<?xml version="1.0" encoding="utf-8"?><svg xmlns="http://www.w3.org/2000/svg" xmlns:xlink="http://www.w3.org/1999/xlink" width="168" height="168" preserveAspectRatio="xMidYMid" viewBox="0 0 168 168" style="display:block;background-repeat-y:initial;background-repeat-x:initial;background-color:rgb(241, 242, 243);animation-play-state:paused" ><g transform="scale(0.66)" style="transform:matrix(0.66, 0, 0, 0.66, 0, 0);animation-play-state:paused" ><g transform="matrix(1,0,0,1,0,0)" style="transform:matrix(1, 0, 0, 1, 0, 0);animation-play-state:paused" ><path d="M94.6,56.2c-1-4.2-3.7-7.6-7.2-9.5c1.6-1.7,2.7-4.1,2.7-6.7c0-5.4-4.4-9.7-9.7-9.7c-3.2,0-6.1,1.6-7.8,4 c-2.5-4.5-7.3-7.6-12.8-7.6c-3.4,0-6.4,1.1-8.9,3.1c-2.4-4.7-7.3-7.9-13-7.9c-5.6,0-10.5,3.2-12.9,7.8c-1.3-0.3-2.7-0.6-4.1-0.6 C12.1,29.1,5,36.1,5,44.9c0,6,3.4,11.3,8.3,13.9c-0.2,1.3-0.2,2.6,0.1,3.9c1.2,5.3,6.5,8.6,11.8,7.4c0.3-0.1,0.6-0.1,0.8-0.2 c2.9,6,9.6,9.5,16.4,8c5.5-1.3,9.6-5.5,10.9-10.6c2.8,1.3,6.1,1.7,9.4,1c1.8-0.4,3.4-1.1,4.8-2.1c3,5.7,9.6,9,16.2,7.5 C91.5,71.9,96.4,64,94.6,56.2z" fill="#85a2b6" transform="translate(179.64049152355705, 218.77249743978535) scale(0.3199999999999999) translate(-36, -24)" style="transform:matrix(0.32, 0, 0, 0.32, 168.12, 211.092);animation-play-state:paused" ></path></g>
<g transform="matrix(1,0,0,1,0,0)" style="transform:matrix(1, 0, 0, 1, 0, 0);animation-play-state:paused" ><path d="M94.6,56.2c-1-4.2-3.7-7.6-7.2-9.5c1.6-1.7,2.7-4.1,2.7-6.7c0-5.4-4.4-9.7-9.7-9.7c-3.2,0-6.1,1.6-7.8,4 c-2.5-4.5-7.3-7.6-12.8-7.6c-3.4,0-6.4,1.1-8.9,3.1c-2.4-4.7-7.3-7.9-13-7.9c-5.6,0-10.5,3.2-12.9,7.8c-1.3-0.3-2.7-0.6-4.1-0.6 C12.1,29.1,5,36.1,5,44.9c0,6,3.4,11.3,8.3,13.9c-0.2,1.3-0.2,2.6,0.1,3.9c1.2,5.3,6.5,8.6,11.8,7.4c0.3-0.1,0.6-0.1,0.8-0.2 c2.9,6,9.6,9.5,16.4,8c5.5-1.3,9.6-5.5,10.9-10.6c2.8,1.3,6.1,1.7,9.4,1c1.8-0.4,3.4-1.1,4.8-2.1c3,5.7,9.6,9,16.2,7.5 C91.5,71.9,96.4,64,94.6,56.2z" fill="#85a2b6" transform="translate(179.64049152355705, -37.227502560214646) scale(0.3199999999999999) translate(-36, -24)" style="transform:matrix(0.32, 0, 0, 0.32, 168.12, -44.9075);animation-play-state:paused" ></path></g>
<g transform="matrix(1,0,0,1,0,0)" style="transform:matrix(1, 0, 0, 1, 0, 0);animation-play-state:paused" ><path d="M94.6,56.2c-1-4.2-3.7-7.6-7.2-9.5c1.6-1.7,2.7-4.1,2.7-6.7c0-5.4-4.4-9.7-9.7-9.7c-3.2,0-6.1,1.6-7.8,4 c-2.5-4.5-7.3-7.6-12.8-7.6c-3.4,0-6.4,1.1-8.9,3.1c-2.4-4.7-7.3-7.9-13-7.9c-5.6,0-10.5,3.2-12.9,7.8c-1.3-0.3-2.7-0.6-4.1-0.6 C12.1,29.1,5,36.1,5,44.9c0,6,3.4,11.3,8.3,13.9c-0.2,1.3-0.2,2.6,0.1,3.9c1.2,5.3,6.5,8.6,11.8,7.4c0.3-0.1,0.6-0.1,0.8-0.2 c2.9,6,9.6,9.5,16.4,8c5.5-1.3,9.6-5.5,10.9-10.6c2.8,1.3,6.1,1.7,9.4,1c1.8-0.4,3.4-1.1,4.8-2.1c3,5.7,9.6,9,16.2,7.5 C91.5,71.9,96.4,64,94.6,56.2z" fill="#85a2b6" transform="translate(-76.35950847644295, 218.77249743978535) scale(0.3199999999999999) translate(-36, -24)" style="transform:matrix(0.32, 0, 0, 0.32, -87.8795, 211.092);animation-play-state:paused" ></path></g>
<g transform="matrix(1,0,0,1,0,0)" style="transform:matrix(1, 0, 0, 1, 0, 0);animation-play-state:paused" ><path d="M94.6,56.2c-1-4.2-3.7-7.6-7.2-9.5c1.6-1.7,2.7-4.1,2.7-6.7c0-5.4-4.4-9.7-9.7-9.7c-3.2,0-6.1,1.6-7.8,4 c-2.5-4.5-7.3-7.6-12.8-7.6c-3.4,0-6.4,1.1-8.9,3.1c-2.4-4.7-7.3-7.9-13-7.9c-5.6,0-10.5,3.2-12.9,7.8c-1.3-0.3-2.7-0.6-4.1-0.6 C12.1,29.1,5,36.1,5,44.9c0,6,3.4,11.3,8.3,13.9c-0.2,1.3-0.2,2.6,0.1,3.9c1.2,5.3,6.5,8.6,11.8,7.4c0.3-0.1,0.6-0.1,0.8-0.2 c2.9,6,9.6,9.5,16.4,8c5.5-1.3,9.6-5.5,10.9-10.6c2.8,1.3,6.1,1.7,9.4,1c1.8-0.4,3.4-1.1,4.8-2.1c3,5.7,9.6,9,16.2,7.5 C91.5,71.9,96.4,64,94.6,56.2z" fill="#85a2b6" transform="translate(-76.35950847644295, -37.227502560214646) scale(0.3199999999999999) translate(-36, -24)" style="transform:matrix(0.32, 0, 0, 0.32, -87.8795, -44.9075);animation-play-state:paused" ></path></g>
<g transform="matrix(1,0,0,1,0,0)" style="transform:matrix(1, 0, 0, 1, 0, 0);animation-play-state:paused" ><path d="M85.3,55.6c0.3-1.1,0.5-2.2,0.6-3.4c0.5-8.5-6-15.7-14.5-16.2c-2.1-0.1-4.2,0.2-6,0.9c-1.5-8.9-9-16-18.4-16.5 C36.1,19.7,26.8,28,26.2,38.9c-0.1,1.1,0,2.3,0.1,3.3c-6.3,0.1-11.6,5-11.9,11.4c0,0.8,0,1.5,0.1,2.2c-0.3,0-0.5-0.1-0.8-0.1 C9.2,55.6,5.3,59,5,63.6s3.2,8.4,7.8,8.7c0.8,0,1.5,0,2.2-0.2c2.5,2.9,8,5.1,14.6,5.5c3.7,0.2,7.2-0.2,10-1.1 c1.7,1.8,4.3,3.1,7.3,3.2c4,0.2,7.5-1.6,9.3-4.3c2.1,1,4.6,1.7,7.4,1.9c4.5,0.3,8.6-1,11.1-3c2,1.7,4.6,2.8,7.6,3 C89,77.6,94.6,73,95,67C95.3,61.5,91.1,56.7,85.3,55.6z" fill="#85a2b6" transform="translate(195.66936240222083, 11.10360937755388) scale(0.3199999999999999) translate(-36, -24)" style="transform:matrix(0.32, 0, 0, 0.32, 184.149, 3.42361);animation-play-state:paused" ></path></g>
<g transform="matrix(1,0,0,1,0,0)" style="transform:matrix(1, 0, 0, 1, 0, 0);animation-play-state:paused" ><path d="M85.3,55.6c0.3-1.1,0.5-2.2,0.6-3.4c0.5-8.5-6-15.7-14.5-16.2c-2.1-0.1-4.2,0.2-6,0.9c-1.5-8.9-9-16-18.4-16.5 C36.1,19.7,26.8,28,26.2,38.9c-0.1,1.1,0,2.3,0.1,3.3c-6.3,0.1-11.6,5-11.9,11.4c0,0.8,0,1.5,0.1,2.2c-0.3,0-0.5-0.1-0.8-0.1 C9.2,55.6,5.3,59,5,63.6s3.2,8.4,7.8,8.7c0.8,0,1.5,0,2.2-0.2c2.5,2.9,8,5.1,14.6,5.5c3.7,0.2,7.2-0.2,10-1.1 c1.7,1.8,4.3,3.1,7.3,3.2c4,0.2,7.5-1.6,9.3-4.3c2.1,1,4.6,1.7,7.4,1.9c4.5,0.3,8.6-1,11.1-3c2,1.7,4.6,2.8,7.6,3 C89,77.6,94.6,73,95,67C95.3,61.5,91.1,56.7,85.3,55.6z" fill="#85a2b6" transform="translate(195.66936240222083, 267.1036093775539) scale(0.3199999999999999) translate(-36, -24)" style="transform:matrix(0.32, 0, 0, 0.32, 184.149, 259.424);animation-play-state:paused" ></path></g>
<g transform="matrix(1,0,0,1,0,0)" style="transform:matrix(1, 0, 0, 1, 0, 0);animation-play-state:paused" ><path d="M85.3,55.6c0.3-1.1,0.5-2.2,0.6-3.4c0.5-8.5-6-15.7-14.5-16.2c-2.1-0.1-4.2,0.2-6,0.9c-1.5-8.9-9-16-18.4-16.5 C36.1,19.7,26.8,28,26.2,38.9c-0.1,1.1,0,2.3,0.1,3.3c-6.3,0.1-11.6,5-11.9,11.4c0,0.8,0,1.5,0.1,2.2c-0.3,0-0.5-0.1-0.8-0.1 C9.2,55.6,5.3,59,5,63.6s3.2,8.4,7.8,8.7c0.8,0,1.5,0,2.2-0.2c2.5,2.9,8,5.1,14.6,5.5c3.7,0.2,7.2-0.2,10-1.1 c1.7,1.8,4.3,3.1,7.3,3.2c4,0.2,7.5-1.6,9.3-4.3c2.1,1,4.6,1.7,7.4,1.9c4.5,0.3,8.6-1,11.1-3c2,1.7,4.6,2.8,7.6,3 C89,77.6,94.6,73,95,67C95.3,61.5,91.1,56.7,85.3,55.6z" fill="#85a2b6" transform="translate(-60.33063759777917, 11.10360937755388) scale(0.3199999999999999) translate(-36, -24)" style="transform:matrix(0.32, 0, 0, 0.32, -71.8506, 3.42361);animation-play-state:paused" ></path></g>
<g transform="matrix(1,0,0,1,0,0)" style="transform:matrix(1, 0, 0, 1, 0, 0);animation-play-state:paused" ><path d="M85.3,55.6c0.3-1.1,0.5-2.2,0.6-3.4c0.5-8.5-6-15.7-14.5-16.2c-2.1-0.1-4.2,0.2-6,0.9c-1.5-8.9-9-16-18.4-16.5 C36.1,19.7,26.8,28,26.2,38.9c-0.1,1.1,0,2.3,0.1,3.3c-6.3,0.1-11.6,5-11.9,11.4c0,0.8,0,1.5,0.1,2.2c-0.3,0-0.5-0.1-0.8-0.1 C9.2,55.6,5.3,59,5,63.6s3.2,8.4,7.8,8.7c0.8,0,1.5,0,2.2-0.2c2.5,2.9,8,5.1,14.6,5.5c3.7,0.2,7.2-0.2,10-1.1 c1.7,1.8,4.3,3.1,7.3,3.2c4,0.2,7.5-1.6,9.3-4.3c2.1,1,4.6,1.7,7.4,1.9c4.5,0.3,8.6-1,11.1-3c2,1.7,4.6,2.8,7.6,3 C89,77.6,94.6,73,95,67C95.3,61.5,91.1,56.7,85.3,55.6z" fill="#85a2b6" transform="translate(-60.33063759777917, 267.1036093775539) scale(0.3199999999999999) translate(-36, -24)" style="transform:matrix(0.32, 0, 0, 0.32, -71.8506, 259.424);animation-play-state:paused" ></path></g>
<g transform="matrix(1,0,0,1,0,0)" style="transform:matrix(1, 0, 0, 1, 0, 0);animation-play-state:paused" ><path d="M95,62.4c-0.5-5.9-5.7-10.3-11.9-10.5c0-0.6,0-1.2,0-1.8c-0.7-7.6-7.9-13.1-16.1-12.4c-0.9,0.1-1.9,0.3-2.7,0.5 c0-0.1,0-0.2,0-0.2c-1-10.9-10.7-19-21.6-18c-9.8,0.9-17.3,8.8-18,18.3C12.8,39.5,4.1,49.2,5.1,60C6.1,71,16.5,79,28.4,77.9 c3.4-0.3,6.4-1.3,9.2-2.8c5,3.7,12.4,5.7,20.5,4.9c6.9-0.6,13.1-3.2,17.3-6.8c2.3,1.4,5.2,2.2,8.2,1.9C90.4,74.4,95.5,68.8,95,62.4z" fill="#85a2b6" transform="translate(-286.5511119648227, 224.20938233915405) scale(0.3199999999999999) translate(-36, -24)" style="transform:matrix(0.32, 0, 0, 0.32, -298.071, 216.529);animation-play-state:paused" ></path></g>
<g transform="matrix(1,0,0,1,0,0)" style="transform:matrix(1, 0, 0, 1, 0, 0);animation-play-state:paused" ><path d="M95,62.4c-0.5-5.9-5.7-10.3-11.9-10.5c0-0.6,0-1.2,0-1.8c-0.7-7.6-7.9-13.1-16.1-12.4c-0.9,0.1-1.9,0.3-2.7,0.5 c0-0.1,0-0.2,0-0.2c-1-10.9-10.7-19-21.6-18c-9.8,0.9-17.3,8.8-18,18.3C12.8,39.5,4.1,49.2,5.1,60C6.1,71,16.5,79,28.4,77.9 c3.4-0.3,6.4-1.3,9.2-2.8c5,3.7,12.4,5.7,20.5,4.9c6.9-0.6,13.1-3.2,17.3-6.8c2.3,1.4,5.2,2.2,8.2,1.9C90.4,74.4,95.5,68.8,95,62.4z" fill="#85a2b6" transform="translate(-286.5511119648227, -31.790617660845953) scale(0.3199999999999999) translate(-36, -24)" style="transform:matrix(0.32, 0, 0, 0.32, -298.071, -39.4706);animation-play-state:paused" ></path></g>
<g transform="matrix(1,0,0,1,0,0)" style="transform:matrix(1, 0, 0, 1, 0, 0);animation-play-state:paused" ><path d="M95,62.4c-0.5-5.9-5.7-10.3-11.9-10.5c0-0.6,0-1.2,0-1.8c-0.7-7.6-7.9-13.1-16.1-12.4c-0.9,0.1-1.9,0.3-2.7,0.5 c0-0.1,0-0.2,0-0.2c-1-10.9-10.7-19-21.6-18c-9.8,0.9-17.3,8.8-18,18.3C12.8,39.5,4.1,49.2,5.1,60C6.1,71,16.5,79,28.4,77.9 c3.4-0.3,6.4-1.3,9.2-2.8c5,3.7,12.4,5.7,20.5,4.9c6.9-0.6,13.1-3.2,17.3-6.8c2.3,1.4,5.2,2.2,8.2,1.9C90.4,74.4,95.5,68.8,95,62.4z" fill="#85a2b6" transform="translate(225.44888803517728, 224.20938233915405) scale(0.3199999999999999) translate(-36, -24)" style="transform:matrix(0.32, 0, 0, 0.32, 213.929, 216.529);animation-play-state:paused" ></path></g>
<g transform="matrix(1,0,0,1,0,0)" style="transform:matrix(1, 0, 0, 1, 0, 0);animation-play-state:paused" ><path d="M95,62.4c-0.5-5.9-5.7-10.3-11.9-10.5c0-0.6,0-1.2,0-1.8c-0.7-7.6-7.9-13.1-16.1-12.4c-0.9,0.1-1.9,0.3-2.7,0.5 c0-0.1,0-0.2,0-0.2c-1-10.9-10.7-19-21.6-18c-9.8,0.9-17.3,8.8-18,18.3C12.8,39.5,4.1,49.2,5.1,60C6.1,71,16.5,79,28.4,77.9 c3.4-0.3,6.4-1.3,9.2-2.8c5,3.7,12.4,5.7,20.5,4.9c6.9-0.6,13.1-3.2,17.3-6.8c2.3,1.4,5.2,2.2,8.2,1.9C90.4,74.4,95.5,68.8,95,62.4z" fill="#85a2b6" transform="translate(225.44888803517728, -31.790617660845953) scale(0.3199999999999999) translate(-36, -24)" style="transform:matrix(0.32, 0, 0, 0.32, 213.929, -39.4706);animation-play-state:paused" ></path></g>
<g transform="matrix(1,0,0,1,0,0)" style="transform:matrix(1, 0, 0, 1, 0, 0);animation-play-state:paused" ><path d="M95,62.4c-0.5-5.9-5.7-10.3-11.9-10.5c0-0.6,0-1.2,0-1.8c-0.7-7.6-7.9-13.1-16.1-12.4c-0.9,0.1-1.9,0.3-2.7,0.5 c0-0.1,0-0.2,0-0.2c-1-10.9-10.7-19-21.6-18c-9.8,0.9-17.3,8.8-18,18.3C12.8,39.5,4.1,49.2,5.1,60C6.1,71,16.5,79,28.4,77.9 c3.4-0.3,6.4-1.3,9.2-2.8c5,3.7,12.4,5.7,20.5,4.9c6.9-0.6,13.1-3.2,17.3-6.8c2.3,1.4,5.2,2.2,8.2,1.9C90.4,74.4,95.5,68.8,95,62.4z" fill="#85a2b6" transform="translate(-30.551111964822724, 224.20938233915405) scale(0.3199999999999999) translate(-36, -24)" style="transform:matrix(0.32, 0, 0, 0.32, -42.0711, 216.529);animation-play-state:paused" ></path></g>
<g transform="matrix(1,0,0,1,0,0)" style="transform:matrix(1, 0, 0, 1, 0, 0);animation-play-state:paused" ><path d="M95,62.4c-0.5-5.9-5.7-10.3-11.9-10.5c0-0.6,0-1.2,0-1.8c-0.7-7.6-7.9-13.1-16.1-12.4c-0.9,0.1-1.9,0.3-2.7,0.5 c0-0.1,0-0.2,0-0.2c-1-10.9-10.7-19-21.6-18c-9.8,0.9-17.3,8.8-18,18.3C12.8,39.5,4.1,49.2,5.1,60C6.1,71,16.5,79,28.4,77.9 c3.4-0.3,6.4-1.3,9.2-2.8c5,3.7,12.4,5.7,20.5,4.9c6.9-0.6,13.1-3.2,17.3-6.8c2.3,1.4,5.2,2.2,8.2,1.9C90.4,74.4,95.5,68.8,95,62.4z" fill="#85a2b6" transform="translate(-30.551111964822724, -31.790617660845953) scale(0.3199999999999999) translate(-36, -24)" style="transform:matrix(0.32, 0, 0, 0.32, -42.0711, -39.4706);animation-play-state:paused" ></path></g>
<g transform="matrix(1,0,0,1,0,0)" style="transform:matrix(1, 0, 0, 1, 0, 0);animation-play-state:paused" ><path d="M95,62.1c0-7.9-5.6-14.5-13.1-15.9C82,45.4,82,44.7,82,44c0-12.3-10-22.3-22.3-22.3c-9.5,0-17.7,6-20.8,14.4 c-1.2-0.3-2.4-0.5-3.7-0.5c-7.6,0-13.8,5.9-14.3,13.3c-0.9-0.2-1.9-0.3-2.8-0.3c-7.2,0-13,5.8-13,13c0,4.8,2.6,9,6.5,11.2 c0,0.1,0,0.1,0,0.2c0,4.7,3.8,8.5,8.5,8.5c2.7,0,5.1-1.3,6.7-3.2c0.1,0,0.2,0,0.3,0h10.4c2.4,2,5.4,3.2,8.7,3.2s6.4-1.2,8.7-3.2h0.2 c3.3,3.8,8.2,6.2,13.6,6.2c5.6,0,10.7-2.6,14-6.6C89.6,76.2,95,69.8,95,62.1z" fill="#85a2b6" transform="translate(84.90778609322376, 145.9289289938361) scale(0.3199999999999999) translate(-36, -24)" style="transform:matrix(0.32, 0, 0, 0.32, 73.3878, 138.249);animation-play-state:paused" ></path></g>
<g transform="matrix(1,0,0,1,0,0)" style="transform:matrix(1, 0, 0, 1, 0, 0);animation-play-state:paused" ><path d="M95,62.1c0-7.9-5.6-14.5-13.1-15.9C82,45.4,82,44.7,82,44c0-12.3-10-22.3-22.3-22.3c-9.5,0-17.7,6-20.8,14.4 c-1.2-0.3-2.4-0.5-3.7-0.5c-7.6,0-13.8,5.9-14.3,13.3c-0.9-0.2-1.9-0.3-2.8-0.3c-7.2,0-13,5.8-13,13c0,4.8,2.6,9,6.5,11.2 c0,0.1,0,0.1,0,0.2c0,4.7,3.8,8.5,8.5,8.5c2.7,0,5.1-1.3,6.7-3.2c0.1,0,0.2,0,0.3,0h10.4c2.4,2,5.4,3.2,8.7,3.2s6.4-1.2,8.7-3.2h0.2 c3.3,3.8,8.2,6.2,13.6,6.2c5.6,0,10.7-2.6,14-6.6C89.6,76.2,95,69.8,95,62.1z" fill="#85a2b6" transform="translate(-171.09221390677624, 145.9289289938361) scale(0.3199999999999999) translate(-36, -24)" style="transform:matrix(0.32, 0, 0, 0.32, -182.612, 138.249);animation-play-state:paused" ></path></g>
<g transform="matrix(1,0,0,1,0,0)" style="transform:matrix(1, 0, 0, 1, 0, 0);animation-play-state:paused" ><path d="M94.6,56.2c-1-4.2-3.7-7.6-7.2-9.5c1.6-1.7,2.7-4.1,2.7-6.7c0-5.4-4.4-9.7-9.7-9.7c-3.2,0-6.1,1.6-7.8,4 c-2.5-4.5-7.3-7.6-12.8-7.6c-3.4,0-6.4,1.1-8.9,3.1c-2.4-4.7-7.3-7.9-13-7.9c-5.6,0-10.5,3.2-12.9,7.8c-1.3-0.3-2.7-0.6-4.1-0.6 C12.1,29.1,5,36.1,5,44.9c0,6,3.4,11.3,8.3,13.9c-0.2,1.3-0.2,2.6,0.1,3.9c1.2,5.3,6.5,8.6,11.8,7.4c0.3-0.1,0.6-0.1,0.8-0.2 c2.9,6,9.6,9.5,16.4,8c5.5-1.3,9.6-5.5,10.9-10.6c2.8,1.3,6.1,1.7,9.4,1c1.8-0.4,3.4-1.1,4.8-2.1c3,5.7,9.6,9,16.2,7.5 C91.5,71.9,96.4,64,94.6,56.2z" fill="#85a2b6" transform="translate(138.60593600517103, 237.07937507450083) scale(0.3199999999999999) translate(-36, -24)" style="transform:matrix(0.32, 0, 0, 0.32, 127.086, 229.399);animation-play-state:paused" ></path></g>
<g transform="matrix(1,0,0,1,0,0)" style="transform:matrix(1, 0, 0, 1, 0, 0);animation-play-state:paused" ><path d="M94.6,56.2c-1-4.2-3.7-7.6-7.2-9.5c1.6-1.7,2.7-4.1,2.7-6.7c0-5.4-4.4-9.7-9.7-9.7c-3.2,0-6.1,1.6-7.8,4 c-2.5-4.5-7.3-7.6-12.8-7.6c-3.4,0-6.4,1.1-8.9,3.1c-2.4-4.7-7.3-7.9-13-7.9c-5.6,0-10.5,3.2-12.9,7.8c-1.3-0.3-2.7-0.6-4.1-0.6 C12.1,29.1,5,36.1,5,44.9c0,6,3.4,11.3,8.3,13.9c-0.2,1.3-0.2,2.6,0.1,3.9c1.2,5.3,6.5,8.6,11.8,7.4c0.3-0.1,0.6-0.1,0.8-0.2 c2.9,6,9.6,9.5,16.4,8c5.5-1.3,9.6-5.5,10.9-10.6c2.8,1.3,6.1,1.7,9.4,1c1.8-0.4,3.4-1.1,4.8-2.1c3,5.7,9.6,9,16.2,7.5 C91.5,71.9,96.4,64,94.6,56.2z" fill="#85a2b6" transform="translate(138.60593600517103, -18.92062492549917) scale(0.3199999999999999) translate(-36, -24)" style="transform:matrix(0.32, 0, 0, 0.32, 127.086, -26.6006);animation-play-state:paused" ></path></g>
<g transform="matrix(1,0,0,1,0,0)" style="transform:matrix(1, 0, 0, 1, 0, 0);animation-play-state:paused" ><path d="M94.6,56.2c-1-4.2-3.7-7.6-7.2-9.5c1.6-1.7,2.7-4.1,2.7-6.7c0-5.4-4.4-9.7-9.7-9.7c-3.2,0-6.1,1.6-7.8,4 c-2.5-4.5-7.3-7.6-12.8-7.6c-3.4,0-6.4,1.1-8.9,3.1c-2.4-4.7-7.3-7.9-13-7.9c-5.6,0-10.5,3.2-12.9,7.8c-1.3-0.3-2.7-0.6-4.1-0.6 C12.1,29.1,5,36.1,5,44.9c0,6,3.4,11.3,8.3,13.9c-0.2,1.3-0.2,2.6,0.1,3.9c1.2,5.3,6.5,8.6,11.8,7.4c0.3-0.1,0.6-0.1,0.8-0.2 c2.9,6,9.6,9.5,16.4,8c5.5-1.3,9.6-5.5,10.9-10.6c2.8,1.3,6.1,1.7,9.4,1c1.8-0.4,3.4-1.1,4.8-2.1c3,5.7,9.6,9,16.2,7.5 C91.5,71.9,96.4,64,94.6,56.2z" fill="#85a2b6" transform="translate(-117.39406399482897, 237.07937507450083) scale(0.3199999999999999) translate(-36, -24)" style="transform:matrix(0.32, 0, 0, 0.32, -128.914, 229.399);animation-play-state:paused" ></path></g>
<g transform="matrix(1,0,0,1,0,0)" style="transform:matrix(1, 0, 0, 1, 0, 0);animation-play-state:paused" ><path d="M94.6,56.2c-1-4.2-3.7-7.6-7.2-9.5c1.6-1.7,2.7-4.1,2.7-6.7c0-5.4-4.4-9.7-9.7-9.7c-3.2,0-6.1,1.6-7.8,4 c-2.5-4.5-7.3-7.6-12.8-7.6c-3.4,0-6.4,1.1-8.9,3.1c-2.4-4.7-7.3-7.9-13-7.9c-5.6,0-10.5,3.2-12.9,7.8c-1.3-0.3-2.7-0.6-4.1-0.6 C12.1,29.1,5,36.1,5,44.9c0,6,3.4,11.3,8.3,13.9c-0.2,1.3-0.2,2.6,0.1,3.9c1.2,5.3,6.5,8.6,11.8,7.4c0.3-0.1,0.6-0.1,0.8-0.2 c2.9,6,9.6,9.5,16.4,8c5.5-1.3,9.6-5.5,10.9-10.6c2.8,1.3,6.1,1.7,9.4,1c1.8-0.4,3.4-1.1,4.8-2.1c3,5.7,9.6,9,16.2,7.5 C91.5,71.9,96.4,64,94.6,56.2z" fill="#85a2b6" transform="translate(-117.39406399482897, -18.92062492549917) scale(0.3199999999999999) translate(-36, -24)" style="transform:matrix(0.32, 0, 0, 0.32, -128.914, -26.6006);animation-play-state:paused" ></path></g>
<g transform="matrix(1,0,0,1,0,0)" style="transform:matrix(1, 0, 0, 1, 0, 0);animation-play-state:paused" ><path d="M85.3,55.6c0.3-1.1,0.5-2.2,0.6-3.4c0.5-8.5-6-15.7-14.5-16.2c-2.1-0.1-4.2,0.2-6,0.9c-1.5-8.9-9-16-18.4-16.5 C36.1,19.7,26.8,28,26.2,38.9c-0.1,1.1,0,2.3,0.1,3.3c-6.3,0.1-11.6,5-11.9,11.4c0,0.8,0,1.5,0.1,2.2c-0.3,0-0.5-0.1-0.8-0.1 C9.2,55.6,5.3,59,5,63.6s3.2,8.4,7.8,8.7c0.8,0,1.5,0,2.2-0.2c2.5,2.9,8,5.1,14.6,5.5c3.7,0.2,7.2-0.2,10-1.1 c1.7,1.8,4.3,3.1,7.3,3.2c4,0.2,7.5-1.6,9.3-4.3c2.1,1,4.6,1.7,7.4,1.9c4.5,0.3,8.6-1,11.1-3c2,1.7,4.6,2.8,7.6,3 C89,77.6,94.6,73,95,67C95.3,61.5,91.1,56.7,85.3,55.6z" fill="#85a2b6" transform="translate(-285.156020481395, 239.79946517988168) scale(0.3199999999999999) translate(-36, -24)" style="transform:matrix(0.32, 0, 0, 0.32, -296.676, 232.119);animation-play-state:paused" ></path></g>
<g transform="matrix(1,0,0,1,0,0)" style="transform:matrix(1, 0, 0, 1, 0, 0);animation-play-state:paused" ><path d="M85.3,55.6c0.3-1.1,0.5-2.2,0.6-3.4c0.5-8.5-6-15.7-14.5-16.2c-2.1-0.1-4.2,0.2-6,0.9c-1.5-8.9-9-16-18.4-16.5 C36.1,19.7,26.8,28,26.2,38.9c-0.1,1.1,0,2.3,0.1,3.3c-6.3,0.1-11.6,5-11.9,11.4c0,0.8,0,1.5,0.1,2.2c-0.3,0-0.5-0.1-0.8-0.1 C9.2,55.6,5.3,59,5,63.6s3.2,8.4,7.8,8.7c0.8,0,1.5,0,2.2-0.2c2.5,2.9,8,5.1,14.6,5.5c3.7,0.2,7.2-0.2,10-1.1 c1.7,1.8,4.3,3.1,7.3,3.2c4,0.2,7.5-1.6,9.3-4.3c2.1,1,4.6,1.7,7.4,1.9c4.5,0.3,8.6-1,11.1-3c2,1.7,4.6,2.8,7.6,3 C89,77.6,94.6,73,95,67C95.3,61.5,91.1,56.7,85.3,55.6z" fill="#85a2b6" transform="translate(-285.156020481395, -16.20053482011832) scale(0.3199999999999999) translate(-36, -24)" style="transform:matrix(0.32, 0, 0, 0.32, -296.676, -23.8805);animation-play-state:paused" ></path></g>
<g transform="matrix(1,0,0,1,0,0)" style="transform:matrix(1, 0, 0, 1, 0, 0);animation-play-state:paused" ><path d="M85.3,55.6c0.3-1.1,0.5-2.2,0.6-3.4c0.5-8.5-6-15.7-14.5-16.2c-2.1-0.1-4.2,0.2-6,0.9c-1.5-8.9-9-16-18.4-16.5 C36.1,19.7,26.8,28,26.2,38.9c-0.1,1.1,0,2.3,0.1,3.3c-6.3,0.1-11.6,5-11.9,11.4c0,0.8,0,1.5,0.1,2.2c-0.3,0-0.5-0.1-0.8-0.1 C9.2,55.6,5.3,59,5,63.6s3.2,8.4,7.8,8.7c0.8,0,1.5,0,2.2-0.2c2.5,2.9,8,5.1,14.6,5.5c3.7,0.2,7.2-0.2,10-1.1 c1.7,1.8,4.3,3.1,7.3,3.2c4,0.2,7.5-1.6,9.3-4.3c2.1,1,4.6,1.7,7.4,1.9c4.5,0.3,8.6-1,11.1-3c2,1.7,4.6,2.8,7.6,3 C89,77.6,94.6,73,95,67C95.3,61.5,91.1,56.7,85.3,55.6z" fill="#85a2b6" transform="translate(226.843979518605, 239.79946517988168) scale(0.3199999999999999) translate(-36, -24)" style="transform:matrix(0.32, 0, 0, 0.32, 215.324, 232.119);animation-play-state:paused" ></path></g>
<g transform="matrix(1,0,0,1,0,0)" style="transform:matrix(1, 0, 0, 1, 0, 0);animation-play-state:paused" ><path d="M85.3,55.6c0.3-1.1,0.5-2.2,0.6-3.4c0.5-8.5-6-15.7-14.5-16.2c-2.1-0.1-4.2,0.2-6,0.9c-1.5-8.9-9-16-18.4-16.5 C36.1,19.7,26.8,28,26.2,38.9c-0.1,1.1,0,2.3,0.1,3.3c-6.3,0.1-11.6,5-11.9,11.4c0,0.8,0,1.5,0.1,2.2c-0.3,0-0.5-0.1-0.8-0.1 C9.2,55.6,5.3,59,5,63.6s3.2,8.4,7.8,8.7c0.8,0,1.5,0,2.2-0.2c2.5,2.9,8,5.1,14.6,5.5c3.7,0.2,7.2-0.2,10-1.1 c1.7,1.8,4.3,3.1,7.3,3.2c4,0.2,7.5-1.6,9.3-4.3c2.1,1,4.6,1.7,7.4,1.9c4.5,0.3,8.6-1,11.1-3c2,1.7,4.6,2.8,7.6,3 C89,77.6,94.6,73,95,67C95.3,61.5,91.1,56.7,85.3,55.6z" fill="#85a2b6" transform="translate(226.843979518605, -16.20053482011832) scale(0.3199999999999999) translate(-36, -24)" style="transform:matrix(0.32, 0, 0, 0.32, 215.324, -23.8805);animation-play-state:paused" ></path></g>
<g transform="matrix(1,0,0,1,0,0)" style="transform:matrix(1, 0, 0, 1, 0, 0);animation-play-state:paused" ><path d="M85.3,55.6c0.3-1.1,0.5-2.2,0.6-3.4c0.5-8.5-6-15.7-14.5-16.2c-2.1-0.1-4.2,0.2-6,0.9c-1.5-8.9-9-16-18.4-16.5 C36.1,19.7,26.8,28,26.2,38.9c-0.1,1.1,0,2.3,0.1,3.3c-6.3,0.1-11.6,5-11.9,11.4c0,0.8,0,1.5,0.1,2.2c-0.3,0-0.5-0.1-0.8-0.1 C9.2,55.6,5.3,59,5,63.6s3.2,8.4,7.8,8.7c0.8,0,1.5,0,2.2-0.2c2.5,2.9,8,5.1,14.6,5.5c3.7,0.2,7.2-0.2,10-1.1 c1.7,1.8,4.3,3.1,7.3,3.2c4,0.2,7.5-1.6,9.3-4.3c2.1,1,4.6,1.7,7.4,1.9c4.5,0.3,8.6-1,11.1-3c2,1.7,4.6,2.8,7.6,3 C89,77.6,94.6,73,95,67C95.3,61.5,91.1,56.7,85.3,55.6z" fill="#85a2b6" transform="translate(-29.15602048139499, 239.79946517988168) scale(0.3199999999999999) translate(-36, -24)" style="transform:matrix(0.32, 0, 0, 0.32, -40.676, 232.119);animation-play-state:paused" ></path></g>
<g transform="matrix(1,0,0,1,0,0)" style="transform:matrix(1, 0, 0, 1, 0, 0);animation-play-state:paused" ><path d="M85.3,55.6c0.3-1.1,0.5-2.2,0.6-3.4c0.5-8.5-6-15.7-14.5-16.2c-2.1-0.1-4.2,0.2-6,0.9c-1.5-8.9-9-16-18.4-16.5 C36.1,19.7,26.8,28,26.2,38.9c-0.1,1.1,0,2.3,0.1,3.3c-6.3,0.1-11.6,5-11.9,11.4c0,0.8,0,1.5,0.1,2.2c-0.3,0-0.5-0.1-0.8-0.1 C9.2,55.6,5.3,59,5,63.6s3.2,8.4,7.8,8.7c0.8,0,1.5,0,2.2-0.2c2.5,2.9,8,5.1,14.6,5.5c3.7,0.2,7.2-0.2,10-1.1 c1.7,1.8,4.3,3.1,7.3,3.2c4,0.2,7.5-1.6,9.3-4.3c2.1,1,4.6,1.7,7.4,1.9c4.5,0.3,8.6-1,11.1-3c2,1.7,4.6,2.8,7.6,3 C89,77.6,94.6,73,95,67C95.3,61.5,91.1,56.7,85.3,55.6z" fill="#85a2b6" transform="translate(-29.15602048139499, -16.20053482011832) scale(0.3199999999999999) translate(-36, -24)" style="transform:matrix(0.32, 0, 0, 0.32, -40.676, -23.8805);animation-play-state:paused" ></path></g>
<g transform="matrix(1,0,0,1,0,0)" style="transform:matrix(1, 0, 0, 1, 0, 0);animation-play-state:paused" ><path d="M95,62.4c-0.5-5.9-5.7-10.3-11.9-10.5c0-0.6,0-1.2,0-1.8c-0.7-7.6-7.9-13.1-16.1-12.4c-0.9,0.1-1.9,0.3-2.7,0.5 c0-0.1,0-0.2,0-0.2c-1-10.9-10.7-19-21.6-18c-9.8,0.9-17.3,8.8-18,18.3C12.8,39.5,4.1,49.2,5.1,60C6.1,71,16.5,79,28.4,77.9 c3.4-0.3,6.4-1.3,9.2-2.8c5,3.7,12.4,5.7,20.5,4.9c6.9-0.6,13.1-3.2,17.3-6.8c2.3,1.4,5.2,2.2,8.2,1.9C90.4,74.4,95.5,68.8,95,62.4z" fill="#85a2b6" transform="translate(115.74378951396011, 191.00677912831333) scale(0.3199999999999999) translate(-36, -24)" style="transform:matrix(0.32, 0, 0, 0.32, 104.224, 183.327);animation-play-state:paused" ></path></g>
<g transform="matrix(1,0,0,1,0,0)" style="transform:matrix(1, 0, 0, 1, 0, 0);animation-play-state:paused" ><path d="M95,62.4c-0.5-5.9-5.7-10.3-11.9-10.5c0-0.6,0-1.2,0-1.8c-0.7-7.6-7.9-13.1-16.1-12.4c-0.9,0.1-1.9,0.3-2.7,0.5 c0-0.1,0-0.2,0-0.2c-1-10.9-10.7-19-21.6-18c-9.8,0.9-17.3,8.8-18,18.3C12.8,39.5,4.1,49.2,5.1,60C6.1,71,16.5,79,28.4,77.9 c3.4-0.3,6.4-1.3,9.2-2.8c5,3.7,12.4,5.7,20.5,4.9c6.9-0.6,13.1-3.2,17.3-6.8c2.3,1.4,5.2,2.2,8.2,1.9C90.4,74.4,95.5,68.8,95,62.4z" fill="#85a2b6" transform="translate(-140.2562104860399, 191.00677912831333) scale(0.3199999999999999) translate(-36, -24)" style="transform:matrix(0.32, 0, 0, 0.32, -151.776, 183.327);animation-play-state:paused" ></path></g>
<g transform="matrix(1,0,0,1,0,0)" style="transform:matrix(1, 0, 0, 1, 0, 0);animation-play-state:paused" ><path d="M95,62.1c0-7.9-5.6-14.5-13.1-15.9C82,45.4,82,44.7,82,44c0-12.3-10-22.3-22.3-22.3c-9.5,0-17.7,6-20.8,14.4 c-1.2-0.3-2.4-0.5-3.7-0.5c-7.6,0-13.8,5.9-14.3,13.3c-0.9-0.2-1.9-0.3-2.8-0.3c-7.2,0-13,5.8-13,13c0,4.8,2.6,9,6.5,11.2 c0,0.1,0,0.1,0,0.2c0,4.7,3.8,8.5,8.5,8.5c2.7,0,5.1-1.3,6.7-3.2c0.1,0,0.2,0,0.3,0h10.4c2.4,2,5.4,3.2,8.7,3.2s6.4-1.2,8.7-3.2h0.2 c3.3,3.8,8.2,6.2,13.6,6.2c5.6,0,10.7-2.6,14-6.6C89.6,76.2,95,69.8,95,62.1z" fill="#bbcedd" transform="translate(-267.52031793934526, 94.55047869296976) scale(0.45999999999999996) translate(-36, -24)" style="transform:matrix(0.46, 0, 0, 0.46, -284.08, 83.5105);animation-play-state:paused" ></path></g>
<g transform="matrix(1,0,0,1,0,0)" style="transform:matrix(1, 0, 0, 1, 0, 0);animation-play-state:paused" ><path d="M95,62.1c0-7.9-5.6-14.5-13.1-15.9C82,45.4,82,44.7,82,44c0-12.3-10-22.3-22.3-22.3c-9.5,0-17.7,6-20.8,14.4 c-1.2-0.3-2.4-0.5-3.7-0.5c-7.6,0-13.8,5.9-14.3,13.3c-0.9-0.2-1.9-0.3-2.8-0.3c-7.2,0-13,5.8-13,13c0,4.8,2.6,9,6.5,11.2 c0,0.1,0,0.1,0,0.2c0,4.7,3.8,8.5,8.5,8.5c2.7,0,5.1-1.3,6.7-3.2c0.1,0,0.2,0,0.3,0h10.4c2.4,2,5.4,3.2,8.7,3.2s6.4-1.2,8.7-3.2h0.2 c3.3,3.8,8.2,6.2,13.6,6.2c5.6,0,10.7-2.6,14-6.6C89.6,76.2,95,69.8,95,62.1z" fill="#bbcedd" transform="translate(244.47968206065474, 94.55047869296976) scale(0.45999999999999996) translate(-36, -24)" style="transform:matrix(0.46, 0, 0, 0.46, 227.92, 83.5105);animation-play-state:paused" ></path></g>
<g transform="matrix(1,0,0,1,0,0)" style="transform:matrix(1, 0, 0, 1, 0, 0);animation-play-state:paused" ><path d="M95,62.1c0-7.9-5.6-14.5-13.1-15.9C82,45.4,82,44.7,82,44c0-12.3-10-22.3-22.3-22.3c-9.5,0-17.7,6-20.8,14.4 c-1.2-0.3-2.4-0.5-3.7-0.5c-7.6,0-13.8,5.9-14.3,13.3c-0.9-0.2-1.9-0.3-2.8-0.3c-7.2,0-13,5.8-13,13c0,4.8,2.6,9,6.5,11.2 c0,0.1,0,0.1,0,0.2c0,4.7,3.8,8.5,8.5,8.5c2.7,0,5.1-1.3,6.7-3.2c0.1,0,0.2,0,0.3,0h10.4c2.4,2,5.4,3.2,8.7,3.2s6.4-1.2,8.7-3.2h0.2 c3.3,3.8,8.2,6.2,13.6,6.2c5.6,0,10.7-2.6,14-6.6C89.6,76.2,95,69.8,95,62.1z" fill="#bbcedd" transform="translate(-11.520317939345261, 94.55047869296976) scale(0.45999999999999996) translate(-36, -24)" style="transform:matrix(0.46, 0, 0, 0.46, -28.0803, 83.5105);animation-play-state:paused" ></path></g>
<g transform="matrix(1,0,0,1,0,0)" style="transform:matrix(1, 0, 0, 1, 0, 0);animation-play-state:paused" ><path d="M94.6,56.2c-1-4.2-3.7-7.6-7.2-9.5c1.6-1.7,2.7-4.1,2.7-6.7c0-5.4-4.4-9.7-9.7-9.7c-3.2,0-6.1,1.6-7.8,4 c-2.5-4.5-7.3-7.6-12.8-7.6c-3.4,0-6.4,1.1-8.9,3.1c-2.4-4.7-7.3-7.9-13-7.9c-5.6,0-10.5,3.2-12.9,7.8c-1.3-0.3-2.7-0.6-4.1-0.6 C12.1,29.1,5,36.1,5,44.9c0,6,3.4,11.3,8.3,13.9c-0.2,1.3-0.2,2.6,0.1,3.9c1.2,5.3,6.5,8.6,11.8,7.4c0.3-0.1,0.6-0.1,0.8-0.2 c2.9,6,9.6,9.5,16.4,8c5.5-1.3,9.6-5.5,10.9-10.6c2.8,1.3,6.1,1.7,9.4,1c1.8-0.4,3.4-1.1,4.8-2.1c3,5.7,9.6,9,16.2,7.5 C91.5,71.9,96.4,64,94.6,56.2z" fill="#bbcedd" transform="translate(191.72122446393604, 73.51137265136617) scale(0.45999999999999996) translate(-36, -24)" style="transform:matrix(0.46, 0, 0, 0.46, 175.161, 62.4714);animation-play-state:paused" ></path></g>
<g transform="matrix(1,0,0,1,0,0)" style="transform:matrix(1, 0, 0, 1, 0, 0);animation-play-state:paused" ><path d="M94.6,56.2c-1-4.2-3.7-7.6-7.2-9.5c1.6-1.7,2.7-4.1,2.7-6.7c0-5.4-4.4-9.7-9.7-9.7c-3.2,0-6.1,1.6-7.8,4 c-2.5-4.5-7.3-7.6-12.8-7.6c-3.4,0-6.4,1.1-8.9,3.1c-2.4-4.7-7.3-7.9-13-7.9c-5.6,0-10.5,3.2-12.9,7.8c-1.3-0.3-2.7-0.6-4.1-0.6 C12.1,29.1,5,36.1,5,44.9c0,6,3.4,11.3,8.3,13.9c-0.2,1.3-0.2,2.6,0.1,3.9c1.2,5.3,6.5,8.6,11.8,7.4c0.3-0.1,0.6-0.1,0.8-0.2 c2.9,6,9.6,9.5,16.4,8c5.5-1.3,9.6-5.5,10.9-10.6c2.8,1.3,6.1,1.7,9.4,1c1.8-0.4,3.4-1.1,4.8-2.1c3,5.7,9.6,9,16.2,7.5 C91.5,71.9,96.4,64,94.6,56.2z" fill="#bbcedd" transform="translate(-64.27877553606396, 73.51137265136617) scale(0.45999999999999996) translate(-36, -24)" style="transform:matrix(0.46, 0, 0, 0.46, -80.8388, 62.4714);animation-play-state:paused" ></path></g>
<g transform="matrix(1,0,0,1,0,0)" style="transform:matrix(1, 0, 0, 1, 0, 0);animation-play-state:paused" ><path d="M85.3,55.6c0.3-1.1,0.5-2.2,0.6-3.4c0.5-8.5-6-15.7-14.5-16.2c-2.1-0.1-4.2,0.2-6,0.9c-1.5-8.9-9-16-18.4-16.5 C36.1,19.7,26.8,28,26.2,38.9c-0.1,1.1,0,2.3,0.1,3.3c-6.3,0.1-11.6,5-11.9,11.4c0,0.8,0,1.5,0.1,2.2c-0.3,0-0.5-0.1-0.8-0.1 C9.2,55.6,5.3,59,5,63.6s3.2,8.4,7.8,8.7c0.8,0,1.5,0,2.2-0.2c2.5,2.9,8,5.1,14.6,5.5c3.7,0.2,7.2-0.2,10-1.1 c1.7,1.8,4.3,3.1,7.3,3.2c4,0.2,7.5-1.6,9.3-4.3c2.1,1,4.6,1.7,7.4,1.9c4.5,0.3,8.6-1,11.1-3c2,1.7,4.6,2.8,7.6,3 C89,77.6,94.6,73,95,67C95.3,61.5,91.1,56.7,85.3,55.6z" fill="#bbcedd" transform="translate(180.74781066423918, 59.932732441988094) scale(0.45999999999999996) translate(-36, -24)" style="transform:matrix(0.46, 0, 0, 0.46, 164.188, 48.8927);animation-play-state:paused" ></path></g>
<g transform="matrix(1,0,0,1,0,0)" style="transform:matrix(1, 0, 0, 1, 0, 0);animation-play-state:paused" ><path d="M85.3,55.6c0.3-1.1,0.5-2.2,0.6-3.4c0.5-8.5-6-15.7-14.5-16.2c-2.1-0.1-4.2,0.2-6,0.9c-1.5-8.9-9-16-18.4-16.5 C36.1,19.7,26.8,28,26.2,38.9c-0.1,1.1,0,2.3,0.1,3.3c-6.3,0.1-11.6,5-11.9,11.4c0,0.8,0,1.5,0.1,2.2c-0.3,0-0.5-0.1-0.8-0.1 C9.2,55.6,5.3,59,5,63.6s3.2,8.4,7.8,8.7c0.8,0,1.5,0,2.2-0.2c2.5,2.9,8,5.1,14.6,5.5c3.7,0.2,7.2-0.2,10-1.1 c1.7,1.8,4.3,3.1,7.3,3.2c4,0.2,7.5-1.6,9.3-4.3c2.1,1,4.6,1.7,7.4,1.9c4.5,0.3,8.6-1,11.1-3c2,1.7,4.6,2.8,7.6,3 C89,77.6,94.6,73,95,67C95.3,61.5,91.1,56.7,85.3,55.6z" fill="#bbcedd" transform="translate(-75.25218933576082, 59.932732441988094) scale(0.45999999999999996) translate(-36, -24)" style="transform:matrix(0.46, 0, 0, 0.46, -91.8122, 48.8927);animation-play-state:paused" ></path></g>
<g transform="matrix(1,0,0,1,0,0)" style="transform:matrix(1, 0, 0, 1, 0, 0);animation-play-state:paused" ><path d="M95,62.4c-0.5-5.9-5.7-10.3-11.9-10.5c0-0.6,0-1.2,0-1.8c-0.7-7.6-7.9-13.1-16.1-12.4c-0.9,0.1-1.9,0.3-2.7,0.5 c0-0.1,0-0.2,0-0.2c-1-10.9-10.7-19-21.6-18c-9.8,0.9-17.3,8.8-18,18.3C12.8,39.5,4.1,49.2,5.1,60C6.1,71,16.5,79,28.4,77.9 c3.4-0.3,6.4-1.3,9.2-2.8c5,3.7,12.4,5.7,20.5,4.9c6.9-0.6,13.1-3.2,17.3-6.8c2.3,1.4,5.2,2.2,8.2,1.9C90.4,74.4,95.5,68.8,95,62.4z" fill="#bbcedd" transform="translate(120.96636863359026, 82.56308192463587) scale(0.45999999999999996) translate(-36, -24)" style="transform:matrix(0.46, 0, 0, 0.46, 104.406, 71.5231);animation-play-state:paused" ></path></g>
<g transform="matrix(1,0,0,1,0,0)" style="transform:matrix(1, 0, 0, 1, 0, 0);animation-play-state:paused" ><path d="M95,62.4c-0.5-5.9-5.7-10.3-11.9-10.5c0-0.6,0-1.2,0-1.8c-0.7-7.6-7.9-13.1-16.1-12.4c-0.9,0.1-1.9,0.3-2.7,0.5 c0-0.1,0-0.2,0-0.2c-1-10.9-10.7-19-21.6-18c-9.8,0.9-17.3,8.8-18,18.3C12.8,39.5,4.1,49.2,5.1,60C6.1,71,16.5,79,28.4,77.9 c3.4-0.3,6.4-1.3,9.2-2.8c5,3.7,12.4,5.7,20.5,4.9c6.9-0.6,13.1-3.2,17.3-6.8c2.3,1.4,5.2,2.2,8.2,1.9C90.4,74.4,95.5,68.8,95,62.4z" fill="#bbcedd" transform="translate(-135.03363136640974, 82.56308192463587) scale(0.45999999999999996) translate(-36, -24)" style="transform:matrix(0.46, 0, 0, 0.46, -151.594, 71.5231);animation-play-state:paused" ></path></g>
<g transform="matrix(1,0,0,1,0,0)" style="transform:matrix(1, 0, 0, 1, 0, 0);animation-play-state:paused" ><path d="M95,62.1c0-7.9-5.6-14.5-13.1-15.9C82,45.4,82,44.7,82,44c0-12.3-10-22.3-22.3-22.3c-9.5,0-17.7,6-20.8,14.4 c-1.2-0.3-2.4-0.5-3.7-0.5c-7.6,0-13.8,5.9-14.3,13.3c-0.9-0.2-1.9-0.3-2.8-0.3c-7.2,0-13,5.8-13,13c0,4.8,2.6,9,6.5,11.2 c0,0.1,0,0.1,0,0.2c0,4.7,3.8,8.5,8.5,8.5c2.7,0,5.1-1.3,6.7-3.2c0.1,0,0.2,0,0.3,0h10.4c2.4,2,5.4,3.2,8.7,3.2s6.4-1.2,8.7-3.2h0.2 c3.3,3.8,8.2,6.2,13.6,6.2c5.6,0,10.7-2.6,14-6.6C89.6,76.2,95,69.8,95,62.1z" fill="#bbcedd" transform="translate(286.80612810377806, 104.60010204091333) scale(0.45999999999999996) translate(-36, -24)" style="transform:matrix(0.46, 0, 0, 0.46, 270.246, 93.5601);animation-play-state:paused" ></path></g>
<g transform="matrix(1,0,0,1,0,0)" style="transform:matrix(1, 0, 0, 1, 0, 0);animation-play-state:paused" ><path d="M95,62.1c0-7.9-5.6-14.5-13.1-15.9C82,45.4,82,44.7,82,44c0-12.3-10-22.3-22.3-22.3c-9.5,0-17.7,6-20.8,14.4 c-1.2-0.3-2.4-0.5-3.7-0.5c-7.6,0-13.8,5.9-14.3,13.3c-0.9-0.2-1.9-0.3-2.8-0.3c-7.2,0-13,5.8-13,13c0,4.8,2.6,9,6.5,11.2 c0,0.1,0,0.1,0,0.2c0,4.7,3.8,8.5,8.5,8.5c2.7,0,5.1-1.3,6.7-3.2c0.1,0,0.2,0,0.3,0h10.4c2.4,2,5.4,3.2,8.7,3.2s6.4-1.2,8.7-3.2h0.2 c3.3,3.8,8.2,6.2,13.6,6.2c5.6,0,10.7-2.6,14-6.6C89.6,76.2,95,69.8,95,62.1z" fill="#bbcedd" transform="translate(30.806128103778065, 104.60010204091333) scale(0.45999999999999996) translate(-36, -24)" style="transform:matrix(0.46, 0, 0, 0.46, 14.2461, 93.5601);animation-play-state:paused" ></path></g>
<g transform="matrix(1,0,0,1,0,0)" style="transform:matrix(1, 0, 0, 1, 0, 0);animation-play-state:paused" ><path d="M95,62.1c0-7.9-5.6-14.5-13.1-15.9C82,45.4,82,44.7,82,44c0-12.3-10-22.3-22.3-22.3c-9.5,0-17.7,6-20.8,14.4 c-1.2-0.3-2.4-0.5-3.7-0.5c-7.6,0-13.8,5.9-14.3,13.3c-0.9-0.2-1.9-0.3-2.8-0.3c-7.2,0-13,5.8-13,13c0,4.8,2.6,9,6.5,11.2 c0,0.1,0,0.1,0,0.2c0,4.7,3.8,8.5,8.5,8.5c2.7,0,5.1-1.3,6.7-3.2c0.1,0,0.2,0,0.3,0h10.4c2.4,2,5.4,3.2,8.7,3.2s6.4-1.2,8.7-3.2h0.2 c3.3,3.8,8.2,6.2,13.6,6.2c5.6,0,10.7-2.6,14-6.6C89.6,76.2,95,69.8,95,62.1z" fill="#bbcedd" transform="translate(-225.19387189622194, 104.60010204091333) scale(0.45999999999999996) translate(-36, -24)" style="transform:matrix(0.46, 0, 0, 0.46, -241.754, 93.5601);animation-play-state:paused" ></path></g>
<g transform="matrix(1,0,0,1,0,0)" style="transform:matrix(1, 0, 0, 1, 0, 0);animation-play-state:paused" ><path d="M94.6,56.2c-1-4.2-3.7-7.6-7.2-9.5c1.6-1.7,2.7-4.1,2.7-6.7c0-5.4-4.4-9.7-9.7-9.7c-3.2,0-6.1,1.6-7.8,4 c-2.5-4.5-7.3-7.6-12.8-7.6c-3.4,0-6.4,1.1-8.9,3.1c-2.4-4.7-7.3-7.9-13-7.9c-5.6,0-10.5,3.2-12.9,7.8c-1.3-0.3-2.7-0.6-4.1-0.6 C12.1,29.1,5,36.1,5,44.9c0,6,3.4,11.3,8.3,13.9c-0.2,1.3-0.2,2.6,0.1,3.9c1.2,5.3,6.5,8.6,11.8,7.4c0.3-0.1,0.6-0.1,0.8-0.2 c2.9,6,9.6,9.5,16.4,8c5.5-1.3,9.6-5.5,10.9-10.6c2.8,1.3,6.1,1.7,9.4,1c1.8-0.4,3.4-1.1,4.8-2.1c3,5.7,9.6,9,16.2,7.5 C91.5,71.9,96.4,64,94.6,56.2z" fill="#bbcedd" transform="translate(141.79110665491476, 203.15216618293817) scale(0.45999999999999996) translate(-36, -24)" style="transform:matrix(0.46, 0, 0, 0.46, 125.231, 192.112);animation-play-state:paused" ></path></g>
<g transform="matrix(1,0,0,1,0,0)" style="transform:matrix(1, 0, 0, 1, 0, 0);animation-play-state:paused" ><path d="M94.6,56.2c-1-4.2-3.7-7.6-7.2-9.5c1.6-1.7,2.7-4.1,2.7-6.7c0-5.4-4.4-9.7-9.7-9.7c-3.2,0-6.1,1.6-7.8,4 c-2.5-4.5-7.3-7.6-12.8-7.6c-3.4,0-6.4,1.1-8.9,3.1c-2.4-4.7-7.3-7.9-13-7.9c-5.6,0-10.5,3.2-12.9,7.8c-1.3-0.3-2.7-0.6-4.1-0.6 C12.1,29.1,5,36.1,5,44.9c0,6,3.4,11.3,8.3,13.9c-0.2,1.3-0.2,2.6,0.1,3.9c1.2,5.3,6.5,8.6,11.8,7.4c0.3-0.1,0.6-0.1,0.8-0.2 c2.9,6,9.6,9.5,16.4,8c5.5-1.3,9.6-5.5,10.9-10.6c2.8,1.3,6.1,1.7,9.4,1c1.8-0.4,3.4-1.1,4.8-2.1c3,5.7,9.6,9,16.2,7.5 C91.5,71.9,96.4,64,94.6,56.2z" fill="#bbcedd" transform="translate(-114.20889334508524, 203.15216618293817) scale(0.45999999999999996) translate(-36, -24)" style="transform:matrix(0.46, 0, 0, 0.46, -130.769, 192.112);animation-play-state:paused" ></path></g>
<g transform="matrix(1,0,0,1,0,0)" style="transform:matrix(1, 0, 0, 1, 0, 0);animation-play-state:paused" ><path d="M85.3,55.6c0.3-1.1,0.5-2.2,0.6-3.4c0.5-8.5-6-15.7-14.5-16.2c-2.1-0.1-4.2,0.2-6,0.9c-1.5-8.9-9-16-18.4-16.5 C36.1,19.7,26.8,28,26.2,38.9c-0.1,1.1,0,2.3,0.1,3.3c-6.3,0.1-11.6,5-11.9,11.4c0,0.8,0,1.5,0.1,2.2c-0.3,0-0.5-0.1-0.8-0.1 C9.2,55.6,5.3,59,5,63.6s3.2,8.4,7.8,8.7c0.8,0,1.5,0,2.2-0.2c2.5,2.9,8,5.1,14.6,5.5c3.7,0.2,7.2-0.2,10-1.1 c1.7,1.8,4.3,3.1,7.3,3.2c4,0.2,7.5-1.6,9.3-4.3c2.1,1,4.6,1.7,7.4,1.9c4.5,0.3,8.6-1,11.1-3c2,1.7,4.6,2.8,7.6,3 C89,77.6,94.6,73,95,67C95.3,61.5,91.1,56.7,85.3,55.6z" fill="#dce4eb" transform="translate(85.7874168333488, 136.95212055582886) scale(0.6) translate(-36, -24)" style="transform:matrix(0.6, 0, 0, 0.6, 64.1874, 122.552);animation-play-state:paused" ></path></g>
<g transform="matrix(1,0,0,1,0,0)" style="transform:matrix(1, 0, 0, 1, 0, 0);animation-play-state:paused" ><path d="M85.3,55.6c0.3-1.1,0.5-2.2,0.6-3.4c0.5-8.5-6-15.7-14.5-16.2c-2.1-0.1-4.2,0.2-6,0.9c-1.5-8.9-9-16-18.4-16.5 C36.1,19.7,26.8,28,26.2,38.9c-0.1,1.1,0,2.3,0.1,3.3c-6.3,0.1-11.6,5-11.9,11.4c0,0.8,0,1.5,0.1,2.2c-0.3,0-0.5-0.1-0.8-0.1 C9.2,55.6,5.3,59,5,63.6s3.2,8.4,7.8,8.7c0.8,0,1.5,0,2.2-0.2c2.5,2.9,8,5.1,14.6,5.5c3.7,0.2,7.2-0.2,10-1.1 c1.7,1.8,4.3,3.1,7.3,3.2c4,0.2,7.5-1.6,9.3-4.3c2.1,1,4.6,1.7,7.4,1.9c4.5,0.3,8.6-1,11.1-3c2,1.7,4.6,2.8,7.6,3 C89,77.6,94.6,73,95,67C95.3,61.5,91.1,56.7,85.3,55.6z" fill="#dce4eb" transform="translate(-170.2125831666512, 136.95212055582886) scale(0.6) translate(-36, -24)" style="transform:matrix(0.6, 0, 0, 0.6, -191.813, 122.552);animation-play-state:paused" ></path></g>
<g transform="matrix(1,0,0,1,0,0)" style="transform:matrix(1, 0, 0, 1, 0, 0);animation-play-state:paused" ><path d="M95,62.4c-0.5-5.9-5.7-10.3-11.9-10.5c0-0.6,0-1.2,0-1.8c-0.7-7.6-7.9-13.1-16.1-12.4c-0.9,0.1-1.9,0.3-2.7,0.5 c0-0.1,0-0.2,0-0.2c-1-10.9-10.7-19-21.6-18c-9.8,0.9-17.3,8.8-18,18.3C12.8,39.5,4.1,49.2,5.1,60C6.1,71,16.5,79,28.4,77.9 c3.4-0.3,6.4-1.3,9.2-2.8c5,3.7,12.4,5.7,20.5,4.9c6.9-0.6,13.1-3.2,17.3-6.8c2.3,1.4,5.2,2.2,8.2,1.9C90.4,74.4,95.5,68.8,95,62.4z" fill="#dce4eb" transform="translate(54.311673576735075, 118.21154124013123) scale(0.6) translate(-36, -24)" style="transform:matrix(0.6, 0, 0, 0.6, 32.7117, 103.812);animation-play-state:paused" ></path></g>
<g transform="matrix(1,0,0,1,0,0)" style="transform:matrix(1, 0, 0, 1, 0, 0);animation-play-state:paused" ><path d="M95,62.4c-0.5-5.9-5.7-10.3-11.9-10.5c0-0.6,0-1.2,0-1.8c-0.7-7.6-7.9-13.1-16.1-12.4c-0.9,0.1-1.9,0.3-2.7,0.5 c0-0.1,0-0.2,0-0.2c-1-10.9-10.7-19-21.6-18c-9.8,0.9-17.3,8.8-18,18.3C12.8,39.5,4.1,49.2,5.1,60C6.1,71,16.5,79,28.4,77.9 c3.4-0.3,6.4-1.3,9.2-2.8c5,3.7,12.4,5.7,20.5,4.9c6.9-0.6,13.1-3.2,17.3-6.8c2.3,1.4,5.2,2.2,8.2,1.9C90.4,74.4,95.5,68.8,95,62.4z" fill="#dce4eb" transform="translate(-201.68832642326493, 118.21154124013123) scale(0.6) translate(-36, -24)" style="transform:matrix(0.6, 0, 0, 0.6, -223.288, 103.812);animation-play-state:paused" ></path></g>
<g transform="matrix(1,0,0,1,0,0)" style="transform:matrix(1, 0, 0, 1, 0, 0);animation-play-state:paused" ><path d="M95,62.1c0-7.9-5.6-14.5-13.1-15.9C82,45.4,82,44.7,82,44c0-12.3-10-22.3-22.3-22.3c-9.5,0-17.7,6-20.8,14.4 c-1.2-0.3-2.4-0.5-3.7-0.5c-7.6,0-13.8,5.9-14.3,13.3c-0.9-0.2-1.9-0.3-2.8-0.3c-7.2,0-13,5.8-13,13c0,4.8,2.6,9,6.5,11.2 c0,0.1,0,0.1,0,0.2c0,4.7,3.8,8.5,8.5,8.5c2.7,0,5.1-1.3,6.7-3.2c0.1,0,0.2,0,0.3,0h10.4c2.4,2,5.4,3.2,8.7,3.2s6.4-1.2,8.7-3.2h0.2 c3.3,3.8,8.2,6.2,13.6,6.2c5.6,0,10.7-2.6,14-6.6C89.6,76.2,95,69.8,95,62.1z" fill="#dce4eb" transform="translate(-266.5358670879522, 253.02595499440866) scale(0.6) translate(-36, -24)" style="transform:matrix(0.6, 0, 0, 0.6, -288.136, 238.626);animation-play-state:paused" ></path></g>
<g transform="matrix(1,0,0,1,0,0)" style="transform:matrix(1, 0, 0, 1, 0, 0);animation-play-state:paused" ><path d="M95,62.1c0-7.9-5.6-14.5-13.1-15.9C82,45.4,82,44.7,82,44c0-12.3-10-22.3-22.3-22.3c-9.5,0-17.7,6-20.8,14.4 c-1.2-0.3-2.4-0.5-3.7-0.5c-7.6,0-13.8,5.9-14.3,13.3c-0.9-0.2-1.9-0.3-2.8-0.3c-7.2,0-13,5.8-13,13c0,4.8,2.6,9,6.5,11.2 c0,0.1,0,0.1,0,0.2c0,4.7,3.8,8.5,8.5,8.5c2.7,0,5.1-1.3,6.7-3.2c0.1,0,0.2,0,0.3,0h10.4c2.4,2,5.4,3.2,8.7,3.2s6.4-1.2,8.7-3.2h0.2 c3.3,3.8,8.2,6.2,13.6,6.2c5.6,0,10.7-2.6,14-6.6C89.6,76.2,95,69.8,95,62.1z" fill="#dce4eb" transform="translate(-266.5358670879522, -2.9740450055913357) scale(0.6) translate(-36, -24)" style="transform:matrix(0.6, 0, 0, 0.6, -288.136, -17.374);animation-play-state:paused" ></path></g>
<g transform="matrix(1,0,0,1,0,0)" style="transform:matrix(1, 0, 0, 1, 0, 0);animation-play-state:paused" ><path d="M95,62.1c0-7.9-5.6-14.5-13.1-15.9C82,45.4,82,44.7,82,44c0-12.3-10-22.3-22.3-22.3c-9.5,0-17.7,6-20.8,14.4 c-1.2-0.3-2.4-0.5-3.7-0.5c-7.6,0-13.8,5.9-14.3,13.3c-0.9-0.2-1.9-0.3-2.8-0.3c-7.2,0-13,5.8-13,13c0,4.8,2.6,9,6.5,11.2 c0,0.1,0,0.1,0,0.2c0,4.7,3.8,8.5,8.5,8.5c2.7,0,5.1-1.3,6.7-3.2c0.1,0,0.2,0,0.3,0h10.4c2.4,2,5.4,3.2,8.7,3.2s6.4-1.2,8.7-3.2h0.2 c3.3,3.8,8.2,6.2,13.6,6.2c5.6,0,10.7-2.6,14-6.6C89.6,76.2,95,69.8,95,62.1z" fill="#dce4eb" transform="translate(245.46413291204777, 253.02595499440866) scale(0.6) translate(-36, -24)" style="transform:matrix(0.6, 0, 0, 0.6, 223.864, 238.626);animation-play-state:paused" ></path></g>
<g transform="matrix(1,0,0,1,0,0)" style="transform:matrix(1, 0, 0, 1, 0, 0);animation-play-state:paused" ><path d="M95,62.1c0-7.9-5.6-14.5-13.1-15.9C82,45.4,82,44.7,82,44c0-12.3-10-22.3-22.3-22.3c-9.5,0-17.7,6-20.8,14.4 c-1.2-0.3-2.4-0.5-3.7-0.5c-7.6,0-13.8,5.9-14.3,13.3c-0.9-0.2-1.9-0.3-2.8-0.3c-7.2,0-13,5.8-13,13c0,4.8,2.6,9,6.5,11.2 c0,0.1,0,0.1,0,0.2c0,4.7,3.8,8.5,8.5,8.5c2.7,0,5.1-1.3,6.7-3.2c0.1,0,0.2,0,0.3,0h10.4c2.4,2,5.4,3.2,8.7,3.2s6.4-1.2,8.7-3.2h0.2 c3.3,3.8,8.2,6.2,13.6,6.2c5.6,0,10.7-2.6,14-6.6C89.6,76.2,95,69.8,95,62.1z" fill="#dce4eb" transform="translate(245.46413291204777, -2.9740450055913357) scale(0.6) translate(-36, -24)" style="transform:matrix(0.6, 0, 0, 0.6, 223.864, -17.374);animation-play-state:paused" ></path></g>
<g transform="matrix(1,0,0,1,0,0)" style="transform:matrix(1, 0, 0, 1, 0, 0);animation-play-state:paused" ><path d="M95,62.1c0-7.9-5.6-14.5-13.1-15.9C82,45.4,82,44.7,82,44c0-12.3-10-22.3-22.3-22.3c-9.5,0-17.7,6-20.8,14.4 c-1.2-0.3-2.4-0.5-3.7-0.5c-7.6,0-13.8,5.9-14.3,13.3c-0.9-0.2-1.9-0.3-2.8-0.3c-7.2,0-13,5.8-13,13c0,4.8,2.6,9,6.5,11.2 c0,0.1,0,0.1,0,0.2c0,4.7,3.8,8.5,8.5,8.5c2.7,0,5.1-1.3,6.7-3.2c0.1,0,0.2,0,0.3,0h10.4c2.4,2,5.4,3.2,8.7,3.2s6.4-1.2,8.7-3.2h0.2 c3.3,3.8,8.2,6.2,13.6,6.2c5.6,0,10.7-2.6,14-6.6C89.6,76.2,95,69.8,95,62.1z" fill="#dce4eb" transform="translate(-10.535867087952226, 253.02595499440866) scale(0.6) translate(-36, -24)" style="transform:matrix(0.6, 0, 0, 0.6, -32.1359, 238.626);animation-play-state:paused" ></path></g>
<g transform="matrix(1,0,0,1,0,0)" style="transform:matrix(1, 0, 0, 1, 0, 0);animation-play-state:paused" ><path d="M95,62.1c0-7.9-5.6-14.5-13.1-15.9C82,45.4,82,44.7,82,44c0-12.3-10-22.3-22.3-22.3c-9.5,0-17.7,6-20.8,14.4 c-1.2-0.3-2.4-0.5-3.7-0.5c-7.6,0-13.8,5.9-14.3,13.3c-0.9-0.2-1.9-0.3-2.8-0.3c-7.2,0-13,5.8-13,13c0,4.8,2.6,9,6.5,11.2 c0,0.1,0,0.1,0,0.2c0,4.7,3.8,8.5,8.5,8.5c2.7,0,5.1-1.3,6.7-3.2c0.1,0,0.2,0,0.3,0h10.4c2.4,2,5.4,3.2,8.7,3.2s6.4-1.2,8.7-3.2h0.2 c3.3,3.8,8.2,6.2,13.6,6.2c5.6,0,10.7-2.6,14-6.6C89.6,76.2,95,69.8,95,62.1z" fill="#dce4eb" transform="translate(-10.535867087952226, -2.9740450055913357) scale(0.6) translate(-36, -24)" style="transform:matrix(0.6, 0, 0, 0.6, -32.1359, -17.374);animation-play-state:paused" ></path></g>
<g transform="matrix(1,0,0,1,0,0)" style="transform:matrix(1, 0, 0, 1, 0, 0);animation-play-state:paused" ><path d="M94.6,56.2c-1-4.2-3.7-7.6-7.2-9.5c1.6-1.7,2.7-4.1,2.7-6.7c0-5.4-4.4-9.7-9.7-9.7c-3.2,0-6.1,1.6-7.8,4 c-2.5-4.5-7.3-7.6-12.8-7.6c-3.4,0-6.4,1.1-8.9,3.1c-2.4-4.7-7.3-7.9-13-7.9c-5.6,0-10.5,3.2-12.9,7.8c-1.3-0.3-2.7-0.6-4.1-0.6 C12.1,29.1,5,36.1,5,44.9c0,6,3.4,11.3,8.3,13.9c-0.2,1.3-0.2,2.6,0.1,3.9c1.2,5.3,6.5,8.6,11.8,7.4c0.3-0.1,0.6-0.1,0.8-0.2 c2.9,6,9.6,9.5,16.4,8c5.5-1.3,9.6-5.5,10.9-10.6c2.8,1.3,6.1,1.7,9.4,1c1.8-0.4,3.4-1.1,4.8-2.1c3,5.7,9.6,9,16.2,7.5 C91.5,71.9,96.4,64,94.6,56.2z" fill="#dce4eb" transform="translate(-262.84451468673717, 173.37770572391014) scale(0.6) translate(-36, -24)" style="transform:matrix(0.6, 0, 0, 0.6, -284.445, 158.978);animation-play-state:paused" ></path></g>
<g transform="matrix(1,0,0,1,0,0)" style="transform:matrix(1, 0, 0, 1, 0, 0);animation-play-state:paused" ><path d="M94.6,56.2c-1-4.2-3.7-7.6-7.2-9.5c1.6-1.7,2.7-4.1,2.7-6.7c0-5.4-4.4-9.7-9.7-9.7c-3.2,0-6.1,1.6-7.8,4 c-2.5-4.5-7.3-7.6-12.8-7.6c-3.4,0-6.4,1.1-8.9,3.1c-2.4-4.7-7.3-7.9-13-7.9c-5.6,0-10.5,3.2-12.9,7.8c-1.3-0.3-2.7-0.6-4.1-0.6 C12.1,29.1,5,36.1,5,44.9c0,6,3.4,11.3,8.3,13.9c-0.2,1.3-0.2,2.6,0.1,3.9c1.2,5.3,6.5,8.6,11.8,7.4c0.3-0.1,0.6-0.1,0.8-0.2 c2.9,6,9.6,9.5,16.4,8c5.5-1.3,9.6-5.5,10.9-10.6c2.8,1.3,6.1,1.7,9.4,1c1.8-0.4,3.4-1.1,4.8-2.1c3,5.7,9.6,9,16.2,7.5 C91.5,71.9,96.4,64,94.6,56.2z" fill="#dce4eb" transform="translate(249.15548531326283, 173.37770572391014) scale(0.6) translate(-36, -24)" style="transform:matrix(0.6, 0, 0, 0.6, 227.555, 158.978);animation-play-state:paused" ></path></g>
<g transform="matrix(1,0,0,1,0,0)" style="transform:matrix(1, 0, 0, 1, 0, 0);animation-play-state:paused" ><path d="M94.6,56.2c-1-4.2-3.7-7.6-7.2-9.5c1.6-1.7,2.7-4.1,2.7-6.7c0-5.4-4.4-9.7-9.7-9.7c-3.2,0-6.1,1.6-7.8,4 c-2.5-4.5-7.3-7.6-12.8-7.6c-3.4,0-6.4,1.1-8.9,3.1c-2.4-4.7-7.3-7.9-13-7.9c-5.6,0-10.5,3.2-12.9,7.8c-1.3-0.3-2.7-0.6-4.1-0.6 C12.1,29.1,5,36.1,5,44.9c0,6,3.4,11.3,8.3,13.9c-0.2,1.3-0.2,2.6,0.1,3.9c1.2,5.3,6.5,8.6,11.8,7.4c0.3-0.1,0.6-0.1,0.8-0.2 c2.9,6,9.6,9.5,16.4,8c5.5-1.3,9.6-5.5,10.9-10.6c2.8,1.3,6.1,1.7,9.4,1c1.8-0.4,3.4-1.1,4.8-2.1c3,5.7,9.6,9,16.2,7.5 C91.5,71.9,96.4,64,94.6,56.2z" fill="#dce4eb" transform="translate(-6.8445146867371705, 173.37770572391014) scale(0.6) translate(-36, -24)" style="transform:matrix(0.6, 0, 0, 0.6, -28.4445, 158.978);animation-play-state:paused" ></path></g>
<g transform="matrix(1,0,0,1,0,0)" style="transform:matrix(1, 0, 0, 1, 0, 0);animation-play-state:paused" ><path d="M85.3,55.6c0.3-1.1,0.5-2.2,0.6-3.4c0.5-8.5-6-15.7-14.5-16.2c-2.1-0.1-4.2,0.2-6,0.9c-1.5-8.9-9-16-18.4-16.5 C36.1,19.7,26.8,28,26.2,38.9c-0.1,1.1,0,2.3,0.1,3.3c-6.3,0.1-11.6,5-11.9,11.4c0,0.8,0,1.5,0.1,2.2c-0.3,0-0.5-0.1-0.8-0.1 C9.2,55.6,5.3,59,5,63.6s3.2,8.4,7.8,8.7c0.8,0,1.5,0,2.2-0.2c2.5,2.9,8,5.1,14.6,5.5c3.7,0.2,7.2-0.2,10-1.1 c1.7,1.8,4.3,3.1,7.3,3.2c4,0.2,7.5-1.6,9.3-4.3c2.1,1,4.6,1.7,7.4,1.9c4.5,0.3,8.6-1,11.1-3c2,1.7,4.6,2.8,7.6,3 C89,77.6,94.6,73,95,67C95.3,61.5,91.1,56.7,85.3,55.6z" fill="#dce4eb" transform="translate(270.48157813964286, 61.331531323243894) scale(0.6) translate(-36, -24)" style="transform:matrix(0.6, 0, 0, 0.6, 248.882, 46.9315);animation-play-state:paused" ></path></g>
<g transform="matrix(1,0,0,1,0,0)" style="transform:matrix(1, 0, 0, 1, 0, 0);animation-play-state:paused" ><path d="M85.3,55.6c0.3-1.1,0.5-2.2,0.6-3.4c0.5-8.5-6-15.7-14.5-16.2c-2.1-0.1-4.2,0.2-6,0.9c-1.5-8.9-9-16-18.4-16.5 C36.1,19.7,26.8,28,26.2,38.9c-0.1,1.1,0,2.3,0.1,3.3c-6.3,0.1-11.6,5-11.9,11.4c0,0.8,0,1.5,0.1,2.2c-0.3,0-0.5-0.1-0.8-0.1 C9.2,55.6,5.3,59,5,63.6s3.2,8.4,7.8,8.7c0.8,0,1.5,0,2.2-0.2c2.5,2.9,8,5.1,14.6,5.5c3.7,0.2,7.2-0.2,10-1.1 c1.7,1.8,4.3,3.1,7.3,3.2c4,0.2,7.5-1.6,9.3-4.3c2.1,1,4.6,1.7,7.4,1.9c4.5,0.3,8.6-1,11.1-3c2,1.7,4.6,2.8,7.6,3 C89,77.6,94.6,73,95,67C95.3,61.5,91.1,56.7,85.3,55.6z" fill="#dce4eb" transform="translate(14.481578139642863, 61.331531323243894) scale(0.6) translate(-36, -24)" style="transform:matrix(0.6, 0, 0, 0.6, -7.11842, 46.9315);animation-play-state:paused" ></path></g>
<g transform="matrix(1,0,0,1,0,0)" style="transform:matrix(1, 0, 0, 1, 0, 0);animation-play-state:paused" ><path d="M85.3,55.6c0.3-1.1,0.5-2.2,0.6-3.4c0.5-8.5-6-15.7-14.5-16.2c-2.1-0.1-4.2,0.2-6,0.9c-1.5-8.9-9-16-18.4-16.5 C36.1,19.7,26.8,28,26.2,38.9c-0.1,1.1,0,2.3,0.1,3.3c-6.3,0.1-11.6,5-11.9,11.4c0,0.8,0,1.5,0.1,2.2c-0.3,0-0.5-0.1-0.8-0.1 C9.2,55.6,5.3,59,5,63.6s3.2,8.4,7.8,8.7c0.8,0,1.5,0,2.2-0.2c2.5,2.9,8,5.1,14.6,5.5c3.7,0.2,7.2-0.2,10-1.1 c1.7,1.8,4.3,3.1,7.3,3.2c4,0.2,7.5-1.6,9.3-4.3c2.1,1,4.6,1.7,7.4,1.9c4.5,0.3,8.6-1,11.1-3c2,1.7,4.6,2.8,7.6,3 C89,77.6,94.6,73,95,67C95.3,61.5,91.1,56.7,85.3,55.6z" fill="#dce4eb" transform="translate(-241.51842186035714, 61.331531323243894) scale(0.6) translate(-36, -24)" style="transform:matrix(0.6, 0, 0, 0.6, -263.118, 46.9315);animation-play-state:paused" ></path></g>
<g transform="matrix(1,0,0,1,0,0)" style="transform:matrix(1, 0, 0, 1, 0, 0);animation-play-state:paused" ><path d="M95,62.4c-0.5-5.9-5.7-10.3-11.9-10.5c0-0.6,0-1.2,0-1.8c-0.7-7.6-7.9-13.1-16.1-12.4c-0.9,0.1-1.9,0.3-2.7,0.5 c0-0.1,0-0.2,0-0.2c-1-10.9-10.7-19-21.6-18c-9.8,0.9-17.3,8.8-18,18.3C12.8,39.5,4.1,49.2,5.1,60C6.1,71,16.5,79,28.4,77.9 c3.4-0.3,6.4-1.3,9.2-2.8c5,3.7,12.4,5.7,20.5,4.9c6.9-0.6,13.1-3.2,17.3-6.8c2.3,1.4,5.2,2.2,8.2,1.9C90.4,74.4,95.5,68.8,95,62.4z" fill="#dce4eb" transform="translate(106.0223494964714, 164.73129128407498) scale(0.6) translate(-36, -24)" style="transform:matrix(0.6, 0, 0, 0.6, 84.4224, 150.331);animation-play-state:paused" ></path></g>
<g transform="matrix(1,0,0,1,0,0)" style="transform:matrix(1, 0, 0, 1, 0, 0);animation-play-state:paused" ><path d="M95,62.4c-0.5-5.9-5.7-10.3-11.9-10.5c0-0.6,0-1.2,0-1.8c-0.7-7.6-7.9-13.1-16.1-12.4c-0.9,0.1-1.9,0.3-2.7,0.5 c0-0.1,0-0.2,0-0.2c-1-10.9-10.7-19-21.6-18c-9.8,0.9-17.3,8.8-18,18.3C12.8,39.5,4.1,49.2,5.1,60C6.1,71,16.5,79,28.4,77.9 c3.4-0.3,6.4-1.3,9.2-2.8c5,3.7,12.4,5.7,20.5,4.9c6.9-0.6,13.1-3.2,17.3-6.8c2.3,1.4,5.2,2.2,8.2,1.9C90.4,74.4,95.5,68.8,95,62.4z" fill="#dce4eb" transform="translate(-149.9776505035286, 164.73129128407498) scale(0.6) translate(-36, -24)" style="transform:matrix(0.6, 0, 0, 0.6, -171.578, 150.331);animation-play-state:paused" ></path></g>
<g transform="matrix(1,0,0,1,0,0)" style="transform:matrix(1, 0, 0, 1, 0, 0);animation-play-state:paused" ><path d="M95,62.1c0-7.9-5.6-14.5-13.1-15.9C82,45.4,82,44.7,82,44c0-12.3-10-22.3-22.3-22.3c-9.5,0-17.7,6-20.8,14.4 c-1.2-0.3-2.4-0.5-3.7-0.5c-7.6,0-13.8,5.9-14.3,13.3c-0.9-0.2-1.9-0.3-2.8-0.3c-7.2,0-13,5.8-13,13c0,4.8,2.6,9,6.5,11.2 c0,0.1,0,0.1,0,0.2c0,4.7,3.8,8.5,8.5,8.5c2.7,0,5.1-1.3,6.7-3.2c0.1,0,0.2,0,0.3,0h10.4c2.4,2,5.4,3.2,8.7,3.2s6.4-1.2,8.7-3.2h0.2 c3.3,3.8,8.2,6.2,13.6,6.2c5.6,0,10.7-2.6,14-6.6C89.6,76.2,95,69.8,95,62.1z" fill="#fdfdfd" transform="translate(70.7911844795475, 5.379666217133604) scale(0.74) translate(-36, -24)" style="transform:matrix(0.74, 0, 0, 0.74, 44.1512, -12.3803);animation-play-state:paused" ></path></g>
<g transform="matrix(1,0,0,1,0,0)" style="transform:matrix(1, 0, 0, 1, 0, 0);animation-play-state:paused" ><path d="M95,62.1c0-7.9-5.6-14.5-13.1-15.9C82,45.4,82,44.7,82,44c0-12.3-10-22.3-22.3-22.3c-9.5,0-17.7,6-20.8,14.4 c-1.2-0.3-2.4-0.5-3.7-0.5c-7.6,0-13.8,5.9-14.3,13.3c-0.9-0.2-1.9-0.3-2.8-0.3c-7.2,0-13,5.8-13,13c0,4.8,2.6,9,6.5,11.2 c0,0.1,0,0.1,0,0.2c0,4.7,3.8,8.5,8.5,8.5c2.7,0,5.1-1.3,6.7-3.2c0.1,0,0.2,0,0.3,0h10.4c2.4,2,5.4,3.2,8.7,3.2s6.4-1.2,8.7-3.2h0.2 c3.3,3.8,8.2,6.2,13.6,6.2c5.6,0,10.7-2.6,14-6.6C89.6,76.2,95,69.8,95,62.1z" fill="#fdfdfd" transform="translate(70.7911844795475, 261.3796662171336) scale(0.74) translate(-36, -24)" style="transform:matrix(0.74, 0, 0, 0.74, 44.1512, 243.62);animation-play-state:paused" ></path></g>
<g transform="matrix(1,0,0,1,0,0)" style="transform:matrix(1, 0, 0, 1, 0, 0);animation-play-state:paused" ><path d="M95,62.1c0-7.9-5.6-14.5-13.1-15.9C82,45.4,82,44.7,82,44c0-12.3-10-22.3-22.3-22.3c-9.5,0-17.7,6-20.8,14.4 c-1.2-0.3-2.4-0.5-3.7-0.5c-7.6,0-13.8,5.9-14.3,13.3c-0.9-0.2-1.9-0.3-2.8-0.3c-7.2,0-13,5.8-13,13c0,4.8,2.6,9,6.5,11.2 c0,0.1,0,0.1,0,0.2c0,4.7,3.8,8.5,8.5,8.5c2.7,0,5.1-1.3,6.7-3.2c0.1,0,0.2,0,0.3,0h10.4c2.4,2,5.4,3.2,8.7,3.2s6.4-1.2,8.7-3.2h0.2 c3.3,3.8,8.2,6.2,13.6,6.2c5.6,0,10.7-2.6,14-6.6C89.6,76.2,95,69.8,95,62.1z" fill="#fdfdfd" transform="translate(-185.2088155204525, 5.379666217133604) scale(0.74) translate(-36, -24)" style="transform:matrix(0.74, 0, 0, 0.74, -211.849, -12.3803);animation-play-state:paused" ></path></g>
<g transform="matrix(1,0,0,1,0,0)" style="transform:matrix(1, 0, 0, 1, 0, 0);animation-play-state:paused" ><path d="M95,62.1c0-7.9-5.6-14.5-13.1-15.9C82,45.4,82,44.7,82,44c0-12.3-10-22.3-22.3-22.3c-9.5,0-17.7,6-20.8,14.4 c-1.2-0.3-2.4-0.5-3.7-0.5c-7.6,0-13.8,5.9-14.3,13.3c-0.9-0.2-1.9-0.3-2.8-0.3c-7.2,0-13,5.8-13,13c0,4.8,2.6,9,6.5,11.2 c0,0.1,0,0.1,0,0.2c0,4.7,3.8,8.5,8.5,8.5c2.7,0,5.1-1.3,6.7-3.2c0.1,0,0.2,0,0.3,0h10.4c2.4,2,5.4,3.2,8.7,3.2s6.4-1.2,8.7-3.2h0.2 c3.3,3.8,8.2,6.2,13.6,6.2c5.6,0,10.7-2.6,14-6.6C89.6,76.2,95,69.8,95,62.1z" fill="#fdfdfd" transform="translate(-185.2088155204525, 261.3796662171336) scale(0.74) translate(-36, -24)" style="transform:matrix(0.74, 0, 0, 0.74, -211.849, 243.62);animation-play-state:paused" ></path></g>
<g transform="matrix(1,0,0,1,0,0)" style="transform:matrix(1, 0, 0, 1, 0, 0);animation-play-state:paused" ><path d="M94.6,56.2c-1-4.2-3.7-7.6-7.2-9.5c1.6-1.7,2.7-4.1,2.7-6.7c0-5.4-4.4-9.7-9.7-9.7c-3.2,0-6.1,1.6-7.8,4 c-2.5-4.5-7.3-7.6-12.8-7.6c-3.4,0-6.4,1.1-8.9,3.1c-2.4-4.7-7.3-7.9-13-7.9c-5.6,0-10.5,3.2-12.9,7.8c-1.3-0.3-2.7-0.6-4.1-0.6 C12.1,29.1,5,36.1,5,44.9c0,6,3.4,11.3,8.3,13.9c-0.2,1.3-0.2,2.6,0.1,3.9c1.2,5.3,6.5,8.6,11.8,7.4c0.3-0.1,0.6-0.1,0.8-0.2 c2.9,6,9.6,9.5,16.4,8c5.5-1.3,9.6-5.5,10.9-10.6c2.8,1.3,6.1,1.7,9.4,1c1.8-0.4,3.4-1.1,4.8-2.1c3,5.7,9.6,9,16.2,7.5 C91.5,71.9,96.4,64,94.6,56.2z" fill="#fdfdfd" transform="translate(256.26807450467373, 74.7781467301088) scale(0.74) translate(-36, -24)" style="transform:matrix(0.74, 0, 0, 0.74, 229.628, 57.0181);animation-play-state:paused" ></path></g>
<g transform="matrix(1,0,0,1,0,0)" style="transform:matrix(1, 0, 0, 1, 0, 0);animation-play-state:paused" ><path d="M94.6,56.2c-1-4.2-3.7-7.6-7.2-9.5c1.6-1.7,2.7-4.1,2.7-6.7c0-5.4-4.4-9.7-9.7-9.7c-3.2,0-6.1,1.6-7.8,4 c-2.5-4.5-7.3-7.6-12.8-7.6c-3.4,0-6.4,1.1-8.9,3.1c-2.4-4.7-7.3-7.9-13-7.9c-5.6,0-10.5,3.2-12.9,7.8c-1.3-0.3-2.7-0.6-4.1-0.6 C12.1,29.1,5,36.1,5,44.9c0,6,3.4,11.3,8.3,13.9c-0.2,1.3-0.2,2.6,0.1,3.9c1.2,5.3,6.5,8.6,11.8,7.4c0.3-0.1,0.6-0.1,0.8-0.2 c2.9,6,9.6,9.5,16.4,8c5.5-1.3,9.6-5.5,10.9-10.6c2.8,1.3,6.1,1.7,9.4,1c1.8-0.4,3.4-1.1,4.8-2.1c3,5.7,9.6,9,16.2,7.5 C91.5,71.9,96.4,64,94.6,56.2z" fill="#fdfdfd" transform="translate(0.2680745046737343, 74.7781467301088) scale(0.74) translate(-36, -24)" style="transform:matrix(0.74, 0, 0, 0.74, -26.3719, 57.0181);animation-play-state:paused" ></path></g>
<g transform="matrix(1,0,0,1,0,0)" style="transform:matrix(1, 0, 0, 1, 0, 0);animation-play-state:paused" ><path d="M94.6,56.2c-1-4.2-3.7-7.6-7.2-9.5c1.6-1.7,2.7-4.1,2.7-6.7c0-5.4-4.4-9.7-9.7-9.7c-3.2,0-6.1,1.6-7.8,4 c-2.5-4.5-7.3-7.6-12.8-7.6c-3.4,0-6.4,1.1-8.9,3.1c-2.4-4.7-7.3-7.9-13-7.9c-5.6,0-10.5,3.2-12.9,7.8c-1.3-0.3-2.7-0.6-4.1-0.6 C12.1,29.1,5,36.1,5,44.9c0,6,3.4,11.3,8.3,13.9c-0.2,1.3-0.2,2.6,0.1,3.9c1.2,5.3,6.5,8.6,11.8,7.4c0.3-0.1,0.6-0.1,0.8-0.2 c2.9,6,9.6,9.5,16.4,8c5.5-1.3,9.6-5.5,10.9-10.6c2.8,1.3,6.1,1.7,9.4,1c1.8-0.4,3.4-1.1,4.8-2.1c3,5.7,9.6,9,16.2,7.5 C91.5,71.9,96.4,64,94.6,56.2z" fill="#fdfdfd" transform="translate(-255.73192549532627, 74.7781467301088) scale(0.74) translate(-36, -24)" style="transform:matrix(0.74, 0, 0, 0.74, -282.372, 57.0181);animation-play-state:paused" ></path></g>
<g transform="matrix(1,0,0,1,0,0)" style="transform:matrix(1, 0, 0, 1, 0, 0);animation-play-state:paused" ><path d="M85.3,55.6c0.3-1.1,0.5-2.2,0.6-3.4c0.5-8.5-6-15.7-14.5-16.2c-2.1-0.1-4.2,0.2-6,0.9c-1.5-8.9-9-16-18.4-16.5 C36.1,19.7,26.8,28,26.2,38.9c-0.1,1.1,0,2.3,0.1,3.3c-6.3,0.1-11.6,5-11.9,11.4c0,0.8,0,1.5,0.1,2.2c-0.3,0-0.5-0.1-0.8-0.1 C9.2,55.6,5.3,59,5,63.6s3.2,8.4,7.8,8.7c0.8,0,1.5,0,2.2-0.2c2.5,2.9,8,5.1,14.6,5.5c3.7,0.2,7.2-0.2,10-1.1 c1.7,1.8,4.3,3.1,7.3,3.2c4,0.2,7.5-1.6,9.3-4.3c2.1,1,4.6,1.7,7.4,1.9c4.5,0.3,8.6-1,11.1-3c2,1.7,4.6,2.8,7.6,3 C89,77.6,94.6,73,95,67C95.3,61.5,91.1,56.7,85.3,55.6z" fill="#fdfdfd" transform="translate(172.23672184308907, 131.47951811481488) scale(0.74) translate(-36, -24)" style="transform:matrix(0.74, 0, 0, 0.74, 145.597, 113.72);animation-play-state:paused" ></path></g>
<g transform="matrix(1,0,0,1,0,0)" style="transform:matrix(1, 0, 0, 1, 0, 0);animation-play-state:paused" ><path d="M85.3,55.6c0.3-1.1,0.5-2.2,0.6-3.4c0.5-8.5-6-15.7-14.5-16.2c-2.1-0.1-4.2,0.2-6,0.9c-1.5-8.9-9-16-18.4-16.5 C36.1,19.7,26.8,28,26.2,38.9c-0.1,1.1,0,2.3,0.1,3.3c-6.3,0.1-11.6,5-11.9,11.4c0,0.8,0,1.5,0.1,2.2c-0.3,0-0.5-0.1-0.8-0.1 C9.2,55.6,5.3,59,5,63.6s3.2,8.4,7.8,8.7c0.8,0,1.5,0,2.2-0.2c2.5,2.9,8,5.1,14.6,5.5c3.7,0.2,7.2-0.2,10-1.1 c1.7,1.8,4.3,3.1,7.3,3.2c4,0.2,7.5-1.6,9.3-4.3c2.1,1,4.6,1.7,7.4,1.9c4.5,0.3,8.6-1,11.1-3c2,1.7,4.6,2.8,7.6,3 C89,77.6,94.6,73,95,67C95.3,61.5,91.1,56.7,85.3,55.6z" fill="#fdfdfd" transform="translate(-83.76327815691093, 131.47951811481488) scale(0.74) translate(-36, -24)" style="transform:matrix(0.74, 0, 0, 0.74, -110.403, 113.72);animation-play-state:paused" ></path></g>
<g transform="matrix(1,0,0,1,0,0)" style="transform:matrix(1, 0, 0, 1, 0, 0);animation-play-state:paused" ><path d="M95,62.4c-0.5-5.9-5.7-10.3-11.9-10.5c0-0.6,0-1.2,0-1.8c-0.7-7.6-7.9-13.1-16.1-12.4c-0.9,0.1-1.9,0.3-2.7,0.5 c0-0.1,0-0.2,0-0.2c-1-10.9-10.7-19-21.6-18c-9.8,0.9-17.3,8.8-18,18.3C12.8,39.5,4.1,49.2,5.1,60C6.1,71,16.5,79,28.4,77.9 c3.4-0.3,6.4-1.3,9.2-2.8c5,3.7,12.4,5.7,20.5,4.9c6.9-0.6,13.1-3.2,17.3-6.8c2.3,1.4,5.2,2.2,8.2,1.9C90.4,74.4,95.5,68.8,95,62.4z" fill="#fdfdfd" transform="translate(45.8348760644555, 164.91122559011734) scale(0.74) translate(-36, -24)" style="transform:matrix(0.74, 0, 0, 0.74, 19.1949, 147.151);animation-play-state:paused" ></path></g>
<g transform="matrix(1,0,0,1,0,0)" style="transform:matrix(1, 0, 0, 1, 0, 0);animation-play-state:paused" ><path d="M95,62.4c-0.5-5.9-5.7-10.3-11.9-10.5c0-0.6,0-1.2,0-1.8c-0.7-7.6-7.9-13.1-16.1-12.4c-0.9,0.1-1.9,0.3-2.7,0.5 c0-0.1,0-0.2,0-0.2c-1-10.9-10.7-19-21.6-18c-9.8,0.9-17.3,8.8-18,18.3C12.8,39.5,4.1,49.2,5.1,60C6.1,71,16.5,79,28.4,77.9 c3.4-0.3,6.4-1.3,9.2-2.8c5,3.7,12.4,5.7,20.5,4.9c6.9-0.6,13.1-3.2,17.3-6.8c2.3,1.4,5.2,2.2,8.2,1.9C90.4,74.4,95.5,68.8,95,62.4z" fill="#fdfdfd" transform="translate(-210.1651239355445, 164.91122559011734) scale(0.74) translate(-36, -24)" style="transform:matrix(0.74, 0, 0, 0.74, -236.805, 147.151);animation-play-state:paused" ></path></g>
<g transform="matrix(1,0,0,1,0,0)" style="transform:matrix(1, 0, 0, 1, 0, 0);animation-play-state:paused" ><path d="M95,62.1c0-7.9-5.6-14.5-13.1-15.9C82,45.4,82,44.7,82,44c0-12.3-10-22.3-22.3-22.3c-9.5,0-17.7,6-20.8,14.4 c-1.2-0.3-2.4-0.5-3.7-0.5c-7.6,0-13.8,5.9-14.3,13.3c-0.9-0.2-1.9-0.3-2.8-0.3c-7.2,0-13,5.8-13,13c0,4.8,2.6,9,6.5,11.2 c0,0.1,0,0.1,0,0.2c0,4.7,3.8,8.5,8.5,8.5c2.7,0,5.1-1.3,6.7-3.2c0.1,0,0.2,0,0.3,0h10.4c2.4,2,5.4,3.2,8.7,3.2s6.4-1.2,8.7-3.2h0.2 c3.3,3.8,8.2,6.2,13.6,6.2c5.6,0,10.7-2.6,14-6.6C89.6,76.2,95,69.8,95,62.1z" fill="#fdfdfd" transform="translate(151.83606325587772, 43.78283989021952) scale(0.74) translate(-36, -24)" style="transform:matrix(0.74, 0, 0, 0.74, 125.196, 26.0228);animation-play-state:paused" ></path></g>
<g transform="matrix(1,0,0,1,0,0)" style="transform:matrix(1, 0, 0, 1, 0, 0);animation-play-state:paused" ><path d="M95,62.1c0-7.9-5.6-14.5-13.1-15.9C82,45.4,82,44.7,82,44c0-12.3-10-22.3-22.3-22.3c-9.5,0-17.7,6-20.8,14.4 c-1.2-0.3-2.4-0.5-3.7-0.5c-7.6,0-13.8,5.9-14.3,13.3c-0.9-0.2-1.9-0.3-2.8-0.3c-7.2,0-13,5.8-13,13c0,4.8,2.6,9,6.5,11.2 c0,0.1,0,0.1,0,0.2c0,4.7,3.8,8.5,8.5,8.5c2.7,0,5.1-1.3,6.7-3.2c0.1,0,0.2,0,0.3,0h10.4c2.4,2,5.4,3.2,8.7,3.2s6.4-1.2,8.7-3.2h0.2 c3.3,3.8,8.2,6.2,13.6,6.2c5.6,0,10.7-2.6,14-6.6C89.6,76.2,95,69.8,95,62.1z" fill="#fdfdfd" transform="translate(151.83606325587772, 299.7828398902195) scale(0.74) translate(-36, -24)" style="transform:matrix(0.74, 0, 0, 0.74, 125.196, 282.023);animation-play-state:paused" ></path></g>
<g transform="matrix(1,0,0,1,0,0)" style="transform:matrix(1, 0, 0, 1, 0, 0);animation-play-state:paused" ><path d="M95,62.1c0-7.9-5.6-14.5-13.1-15.9C82,45.4,82,44.7,82,44c0-12.3-10-22.3-22.3-22.3c-9.5,0-17.7,6-20.8,14.4 c-1.2-0.3-2.4-0.5-3.7-0.5c-7.6,0-13.8,5.9-14.3,13.3c-0.9-0.2-1.9-0.3-2.8-0.3c-7.2,0-13,5.8-13,13c0,4.8,2.6,9,6.5,11.2 c0,0.1,0,0.1,0,0.2c0,4.7,3.8,8.5,8.5,8.5c2.7,0,5.1-1.3,6.7-3.2c0.1,0,0.2,0,0.3,0h10.4c2.4,2,5.4,3.2,8.7,3.2s6.4-1.2,8.7-3.2h0.2 c3.3,3.8,8.2,6.2,13.6,6.2c5.6,0,10.7-2.6,14-6.6C89.6,76.2,95,69.8,95,62.1z" fill="#fdfdfd" transform="translate(-104.16393674412228, 43.78283989021952) scale(0.74) translate(-36, -24)" style="transform:matrix(0.74, 0, 0, 0.74, -130.804, 26.0228);animation-play-state:paused" ></path></g>
<g transform="matrix(1,0,0,1,0,0)" style="transform:matrix(1, 0, 0, 1, 0, 0);animation-play-state:paused" ><path d="M95,62.1c0-7.9-5.6-14.5-13.1-15.9C82,45.4,82,44.7,82,44c0-12.3-10-22.3-22.3-22.3c-9.5,0-17.7,6-20.8,14.4 c-1.2-0.3-2.4-0.5-3.7-0.5c-7.6,0-13.8,5.9-14.3,13.3c-0.9-0.2-1.9-0.3-2.8-0.3c-7.2,0-13,5.8-13,13c0,4.8,2.6,9,6.5,11.2 c0,0.1,0,0.1,0,0.2c0,4.7,3.8,8.5,8.5,8.5c2.7,0,5.1-1.3,6.7-3.2c0.1,0,0.2,0,0.3,0h10.4c2.4,2,5.4,3.2,8.7,3.2s6.4-1.2,8.7-3.2h0.2 c3.3,3.8,8.2,6.2,13.6,6.2c5.6,0,10.7-2.6,14-6.6C89.6,76.2,95,69.8,95,62.1z" fill="#fdfdfd" transform="translate(-104.16393674412228, 299.7828398902195) scale(0.74) translate(-36, -24)" style="transform:matrix(0.74, 0, 0, 0.74, -130.804, 282.023);animation-play-state:paused" ></path></g>
<g transform="matrix(1,0,0,1,0,0)" style="transform:matrix(1, 0, 0, 1, 0, 0);animation-play-state:paused" ><path d="M94.6,56.2c-1-4.2-3.7-7.6-7.2-9.5c1.6-1.7,2.7-4.1,2.7-6.7c0-5.4-4.4-9.7-9.7-9.7c-3.2,0-6.1,1.6-7.8,4 c-2.5-4.5-7.3-7.6-12.8-7.6c-3.4,0-6.4,1.1-8.9,3.1c-2.4-4.7-7.3-7.9-13-7.9c-5.6,0-10.5,3.2-12.9,7.8c-1.3-0.3-2.7-0.6-4.1-0.6 C12.1,29.1,5,36.1,5,44.9c0,6,3.4,11.3,8.3,13.9c-0.2,1.3-0.2,2.6,0.1,3.9c1.2,5.3,6.5,8.6,11.8,7.4c0.3-0.1,0.6-0.1,0.8-0.2 c2.9,6,9.6,9.5,16.4,8c5.5-1.3,9.6-5.5,10.9-10.6c2.8,1.3,6.1,1.7,9.4,1c1.8-0.4,3.4-1.1,4.8-2.1c3,5.7,9.6,9,16.2,7.5 C91.5,71.9,96.4,64,94.6,56.2z" fill="#fdfdfd" transform="translate(167.28317586623638, 65.39739392973559) scale(0.74) translate(-36, -24)" style="transform:matrix(0.74, 0, 0, 0.74, 140.643, 47.6374);animation-play-state:paused" ></path></g>
<g transform="matrix(1,0,0,1,0,0)" style="transform:matrix(1, 0, 0, 1, 0, 0);animation-play-state:paused" ><path d="M94.6,56.2c-1-4.2-3.7-7.6-7.2-9.5c1.6-1.7,2.7-4.1,2.7-6.7c0-5.4-4.4-9.7-9.7-9.7c-3.2,0-6.1,1.6-7.8,4 c-2.5-4.5-7.3-7.6-12.8-7.6c-3.4,0-6.4,1.1-8.9,3.1c-2.4-4.7-7.3-7.9-13-7.9c-5.6,0-10.5,3.2-12.9,7.8c-1.3-0.3-2.7-0.6-4.1-0.6 C12.1,29.1,5,36.1,5,44.9c0,6,3.4,11.3,8.3,13.9c-0.2,1.3-0.2,2.6,0.1,3.9c1.2,5.3,6.5,8.6,11.8,7.4c0.3-0.1,0.6-0.1,0.8-0.2 c2.9,6,9.6,9.5,16.4,8c5.5-1.3,9.6-5.5,10.9-10.6c2.8,1.3,6.1,1.7,9.4,1c1.8-0.4,3.4-1.1,4.8-2.1c3,5.7,9.6,9,16.2,7.5 C91.5,71.9,96.4,64,94.6,56.2z" fill="#fdfdfd" transform="translate(-88.71682413376362, 65.39739392973559) scale(0.74) translate(-36, -24)" style="transform:matrix(0.74, 0, 0, 0.74, -115.357, 47.6374);animation-play-state:paused" ></path></g></g></svg>