<?xml version="1.0" encoding="utf-8"?><svg xmlns="http://www.w3.org/2000/svg" xmlns:xlink="http://www.w3.org/1999/xlink" width="496" height="496" preserveAspectRatio="xMidYMid" viewBox="0 0 496 496" style="display:block;background-repeat-y:initial;background-repeat-x:initial;background-color:rgb(221, 221, 221);animation-play-state:paused" ><g transform="scale(1.9400000000000002)" style="transform:matrix(1.94, 0, 0, 1.94, 0, 0);animation-play-state:paused" ><g transform="matrix(1,0,0,1,0,0)" style="transform:matrix(1, 0, 0, 1, 0, 0);animation-play-state:paused" ><path d="M94.6,56.2c-1-4.2-3.7-7.6-7.2-9.5c1.6-1.7,2.7-4.1,2.7-6.7c0-5.4-4.4-9.7-9.7-9.7c-3.2,0-6.1,1.6-7.8,4 c-2.5-4.5-7.3-7.6-12.8-7.6c-3.4,0-6.4,1.1-8.9,3.1c-2.4-4.7-7.3-7.9-13-7.9c-5.6,0-10.5,3.2-12.9,7.8c-1.3-0.3-2.7-0.6-4.1-0.6 C12.1,29.1,5,36.1,5,44.9c0,6,3.4,11.3,8.3,13.9c-0.2,1.3-0.2,2.6,0.1,3.9c1.2,5.3,6.5,8.6,11.8,7.4c0.3-0.1,0.6-0.1,0.8-0.2 c2.9,6,9.6,9.5,16.4,8c5.5-1.3,9.6-5.5,10.9-10.6c2.8,1.3,6.1,1.7,9.4,1c1.8-0.4,3.4-1.1,4.8-2.1c3,5.7,9.6,9,16.2,7.5 C91.5,71.9,96.4,64,94.6,56.2z" fill="#ffffff" transform="translate(74.62094486167643, 45.56499614422597) scale(0.6666666666666667) translate(-36, -24)" style="transform:matrix(0.666667, 0, 0, 0.666667, 50.6209, 29.565);animation-play-state:paused" ></path></g>
<g transform="matrix(1,0,0,1,0,0)" style="transform:matrix(1, 0, 0, 1, 0, 0);animation-play-state:paused" ><path d="M94.6,56.2c-1-4.2-3.7-7.6-7.2-9.5c1.6-1.7,2.7-4.1,2.7-6.7c0-5.4-4.4-9.7-9.7-9.7c-3.2,0-6.1,1.6-7.8,4 c-2.5-4.5-7.3-7.6-12.8-7.6c-3.4,0-6.4,1.1-8.9,3.1c-2.4-4.7-7.3-7.9-13-7.9c-5.6,0-10.5,3.2-12.9,7.8c-1.3-0.3-2.7-0.6-4.1-0.6 C12.1,29.1,5,36.1,5,44.9c0,6,3.4,11.3,8.3,13.9c-0.2,1.3-0.2,2.6,0.1,3.9c1.2,5.3,6.5,8.6,11.8,7.4c0.3-0.1,0.6-0.1,0.8-0.2 c2.9,6,9.6,9.5,16.4,8c5.5-1.3,9.6-5.5,10.9-10.6c2.8,1.3,6.1,1.7,9.4,1c1.8-0.4,3.4-1.1,4.8-2.1c3,5.7,9.6,9,16.2,7.5 C91.5,71.9,96.4,64,94.6,56.2z" fill="#ffffff" transform="translate(74.62094486167643, 301.564996144226) scale(0.6666666666666667) translate(-36, -24)" style="transform:matrix(0.666667, 0, 0, 0.666667, 50.6209, 285.565);animation-play-state:paused" ></path></g>
<g transform="matrix(1,0,0,1,0,0)" style="transform:matrix(1, 0, 0, 1, 0, 0);animation-play-state:paused" ><path d="M94.6,56.2c-1-4.2-3.7-7.6-7.2-9.5c1.6-1.7,2.7-4.1,2.7-6.7c0-5.4-4.4-9.7-9.7-9.7c-3.2,0-6.1,1.6-7.8,4 c-2.5-4.5-7.3-7.6-12.8-7.6c-3.4,0-6.4,1.1-8.9,3.1c-2.4-4.7-7.3-7.9-13-7.9c-5.6,0-10.5,3.2-12.9,7.8c-1.3-0.3-2.7-0.6-4.1-0.6 C12.1,29.1,5,36.1,5,44.9c0,6,3.4,11.3,8.3,13.9c-0.2,1.3-0.2,2.6,0.1,3.9c1.2,5.3,6.5,8.6,11.8,7.4c0.3-0.1,0.6-0.1,0.8-0.2 c2.9,6,9.6,9.5,16.4,8c5.5-1.3,9.6-5.5,10.9-10.6c2.8,1.3,6.1,1.7,9.4,1c1.8-0.4,3.4-1.1,4.8-2.1c3,5.7,9.6,9,16.2,7.5 C91.5,71.9,96.4,64,94.6,56.2z" fill="#ffffff" transform="translate(-181.37905513832357, 45.56499614422597) scale(0.6666666666666667) translate(-36, -24)" style="transform:matrix(0.666667, 0, 0, 0.666667, -205.379, 29.565);animation-play-state:paused" ></path></g>
<g transform="matrix(1,0,0,1,0,0)" style="transform:matrix(1, 0, 0, 1, 0, 0);animation-play-state:paused" ><path d="M94.6,56.2c-1-4.2-3.7-7.6-7.2-9.5c1.6-1.7,2.7-4.1,2.7-6.7c0-5.4-4.4-9.7-9.7-9.7c-3.2,0-6.1,1.6-7.8,4 c-2.5-4.5-7.3-7.6-12.8-7.6c-3.4,0-6.4,1.1-8.9,3.1c-2.4-4.7-7.3-7.9-13-7.9c-5.6,0-10.5,3.2-12.9,7.8c-1.3-0.3-2.7-0.6-4.1-0.6 C12.1,29.1,5,36.1,5,44.9c0,6,3.4,11.3,8.3,13.9c-0.2,1.3-0.2,2.6,0.1,3.9c1.2,5.3,6.5,8.6,11.8,7.4c0.3-0.1,0.6-0.1,0.8-0.2 c2.9,6,9.6,9.5,16.4,8c5.5-1.3,9.6-5.5,10.9-10.6c2.8,1.3,6.1,1.7,9.4,1c1.8-0.4,3.4-1.1,4.8-2.1c3,5.7,9.6,9,16.2,7.5 C91.5,71.9,96.4,64,94.6,56.2z" fill="#ffffff" transform="translate(-181.37905513832357, 301.564996144226) scale(0.6666666666666667) translate(-36, -24)" style="transform:matrix(0.666667, 0, 0, 0.666667, -205.379, 285.565);animation-play-state:paused" ></path></g>
<g transform="matrix(1,0,0,1,0,0)" style="transform:matrix(1, 0, 0, 1, 0, 0);animation-play-state:paused" ><path d="M85.3,55.6c0.3-1.1,0.5-2.2,0.6-3.4c0.5-8.5-6-15.7-14.5-16.2c-2.1-0.1-4.2,0.2-6,0.9c-1.5-8.9-9-16-18.4-16.5 C36.1,19.7,26.8,28,26.2,38.9c-0.1,1.1,0,2.3,0.1,3.3c-6.3,0.1-11.6,5-11.9,11.4c0,0.8,0,1.5,0.1,2.2c-0.3,0-0.5-0.1-0.8-0.1 C9.2,55.6,5.3,59,5,63.6s3.2,8.4,7.8,8.7c0.8,0,1.5,0,2.2-0.2c2.5,2.9,8,5.1,14.6,5.5c3.7,0.2,7.2-0.2,10-1.1 c1.7,1.8,4.3,3.1,7.3,3.2c4,0.2,7.5-1.6,9.3-4.3c2.1,1,4.6,1.7,7.4,1.9c4.5,0.3,8.6-1,11.1-3c2,1.7,4.6,2.8,7.6,3 C89,77.6,94.6,73,95,67C95.3,61.5,91.1,56.7,85.3,55.6z" fill="#ffffff" transform="translate(56.94137068741685, 120.27337197180736) scale(0.6666666666666667) translate(-36, -24)" style="transform:matrix(0.666667, 0, 0, 0.666667, 32.9414, 104.273);animation-play-state:paused" ></path></g>
<g transform="matrix(1,0,0,1,0,0)" style="transform:matrix(1, 0, 0, 1, 0, 0);animation-play-state:paused" ><path d="M85.3,55.6c0.3-1.1,0.5-2.2,0.6-3.4c0.5-8.5-6-15.7-14.5-16.2c-2.1-0.1-4.2,0.2-6,0.9c-1.5-8.9-9-16-18.4-16.5 C36.1,19.7,26.8,28,26.2,38.9c-0.1,1.1,0,2.3,0.1,3.3c-6.3,0.1-11.6,5-11.9,11.4c0,0.8,0,1.5,0.1,2.2c-0.3,0-0.5-0.1-0.8-0.1 C9.2,55.6,5.3,59,5,63.6s3.2,8.4,7.8,8.7c0.8,0,1.5,0,2.2-0.2c2.5,2.9,8,5.1,14.6,5.5c3.7,0.2,7.2-0.2,10-1.1 c1.7,1.8,4.3,3.1,7.3,3.2c4,0.2,7.5-1.6,9.3-4.3c2.1,1,4.6,1.7,7.4,1.9c4.5,0.3,8.6-1,11.1-3c2,1.7,4.6,2.8,7.6,3 C89,77.6,94.6,73,95,67C95.3,61.5,91.1,56.7,85.3,55.6z" fill="#ffffff" transform="translate(-199.05862931258315, 120.27337197180736) scale(0.6666666666666667) translate(-36, -24)" style="transform:matrix(0.666667, 0, 0, 0.666667, -223.059, 104.273);animation-play-state:paused" ></path></g>
<g transform="matrix(1,0,0,1,0,0)" style="transform:matrix(1, 0, 0, 1, 0, 0);animation-play-state:paused" ><path d="M95,62.4c-0.5-5.9-5.7-10.3-11.9-10.5c0-0.6,0-1.2,0-1.8c-0.7-7.6-7.9-13.1-16.1-12.4c-0.9,0.1-1.9,0.3-2.7,0.5 c0-0.1,0-0.2,0-0.2c-1-10.9-10.7-19-21.6-18c-9.8,0.9-17.3,8.8-18,18.3C12.8,39.5,4.1,49.2,5.1,60C6.1,71,16.5,79,28.4,77.9 c3.4-0.3,6.4-1.3,9.2-2.8c5,3.7,12.4,5.7,20.5,4.9c6.9-0.6,13.1-3.2,17.3-6.8c2.3,1.4,5.2,2.2,8.2,1.9C90.4,74.4,95.5,68.8,95,62.4z" fill="#ffffff" transform="translate(184.3023673259916, 44.443570670412896) scale(0.6666666666666667) translate(-36, -24)" style="transform:matrix(0.666667, 0, 0, 0.666667, 160.302, 28.4436);animation-play-state:paused" ></path></g>
<g transform="matrix(1,0,0,1,0,0)" style="transform:matrix(1, 0, 0, 1, 0, 0);animation-play-state:paused" ><path d="M95,62.4c-0.5-5.9-5.7-10.3-11.9-10.5c0-0.6,0-1.2,0-1.8c-0.7-7.6-7.9-13.1-16.1-12.4c-0.9,0.1-1.9,0.3-2.7,0.5 c0-0.1,0-0.2,0-0.2c-1-10.9-10.7-19-21.6-18c-9.8,0.9-17.3,8.8-18,18.3C12.8,39.5,4.1,49.2,5.1,60C6.1,71,16.5,79,28.4,77.9 c3.4-0.3,6.4-1.3,9.2-2.8c5,3.7,12.4,5.7,20.5,4.9c6.9-0.6,13.1-3.2,17.3-6.8c2.3,1.4,5.2,2.2,8.2,1.9C90.4,74.4,95.5,68.8,95,62.4z" fill="#ffffff" transform="translate(184.3023673259916, 300.4435706704129) scale(0.6666666666666667) translate(-36, -24)" style="transform:matrix(0.666667, 0, 0, 0.666667, 160.302, 284.444);animation-play-state:paused" ></path></g>
<g transform="matrix(1,0,0,1,0,0)" style="transform:matrix(1, 0, 0, 1, 0, 0);animation-play-state:paused" ><path d="M95,62.4c-0.5-5.9-5.7-10.3-11.9-10.5c0-0.6,0-1.2,0-1.8c-0.7-7.6-7.9-13.1-16.1-12.4c-0.9,0.1-1.9,0.3-2.7,0.5 c0-0.1,0-0.2,0-0.2c-1-10.9-10.7-19-21.6-18c-9.8,0.9-17.3,8.8-18,18.3C12.8,39.5,4.1,49.2,5.1,60C6.1,71,16.5,79,28.4,77.9 c3.4-0.3,6.4-1.3,9.2-2.8c5,3.7,12.4,5.7,20.5,4.9c6.9-0.6,13.1-3.2,17.3-6.8c2.3,1.4,5.2,2.2,8.2,1.9C90.4,74.4,95.5,68.8,95,62.4z" fill="#ffffff" transform="translate(-71.69763267400839, 44.443570670412896) scale(0.6666666666666667) translate(-36, -24)" style="transform:matrix(0.666667, 0, 0, 0.666667, -95.6976, 28.4436);animation-play-state:paused" ></path></g>
<g transform="matrix(1,0,0,1,0,0)" style="transform:matrix(1, 0, 0, 1, 0, 0);animation-play-state:paused" ><path d="M95,62.4c-0.5-5.9-5.7-10.3-11.9-10.5c0-0.6,0-1.2,0-1.8c-0.7-7.6-7.9-13.1-16.1-12.4c-0.9,0.1-1.9,0.3-2.7,0.5 c0-0.1,0-0.2,0-0.2c-1-10.9-10.7-19-21.6-18c-9.8,0.9-17.3,8.8-18,18.3C12.8,39.5,4.1,49.2,5.1,60C6.1,71,16.5,79,28.4,77.9 c3.4-0.3,6.4-1.3,9.2-2.8c5,3.7,12.4,5.7,20.5,4.9c6.9-0.6,13.1-3.2,17.3-6.8c2.3,1.4,5.2,2.2,8.2,1.9C90.4,74.4,95.5,68.8,95,62.4z" fill="#ffffff" transform="translate(-71.69763267400839, 300.4435706704129) scale(0.6666666666666667) translate(-36, -24)" style="transform:matrix(0.666667, 0, 0, 0.666667, -95.6976, 284.444);animation-play-state:paused" ></path></g>
<g transform="matrix(1,0,0,1,0,0)" style="transform:matrix(1, 0, 0, 1, 0, 0);animation-play-state:paused" ><path d="M95,62.1c0-7.9-5.6-14.5-13.1-15.9C82,45.4,82,44.7,82,44c0-12.3-10-22.3-22.3-22.3c-9.5,0-17.7,6-20.8,14.4 c-1.2-0.3-2.4-0.5-3.7-0.5c-7.6,0-13.8,5.9-14.3,13.3c-0.9-0.2-1.9-0.3-2.8-0.3c-7.2,0-13,5.8-13,13c0,4.8,2.6,9,6.5,11.2 c0,0.1,0,0.1,0,0.2c0,4.7,3.8,8.5,8.5,8.5c2.7,0,5.1-1.3,6.7-3.2c0.1,0,0.2,0,0.3,0h10.4c2.4,2,5.4,3.2,8.7,3.2s6.4-1.2,8.7-3.2h0.2 c3.3,3.8,8.2,6.2,13.6,6.2c5.6,0,10.7-2.6,14-6.6C89.6,76.2,95,69.8,95,62.1z" fill="#ffffff" transform="translate(208.95383510392037, 240.87277368954386) scale(0.6666666666666667) translate(-36, -24)" style="transform:matrix(0.666667, 0, 0, 0.666667, 184.954, 224.873);animation-play-state:paused" ></path></g>
<g transform="matrix(1,0,0,1,0,0)" style="transform:matrix(1, 0, 0, 1, 0, 0);animation-play-state:paused" ><path d="M95,62.1c0-7.9-5.6-14.5-13.1-15.9C82,45.4,82,44.7,82,44c0-12.3-10-22.3-22.3-22.3c-9.5,0-17.7,6-20.8,14.4 c-1.2-0.3-2.4-0.5-3.7-0.5c-7.6,0-13.8,5.9-14.3,13.3c-0.9-0.2-1.9-0.3-2.8-0.3c-7.2,0-13,5.8-13,13c0,4.8,2.6,9,6.5,11.2 c0,0.1,0,0.1,0,0.2c0,4.7,3.8,8.5,8.5,8.5c2.7,0,5.1-1.3,6.7-3.2c0.1,0,0.2,0,0.3,0h10.4c2.4,2,5.4,3.2,8.7,3.2s6.4-1.2,8.7-3.2h0.2 c3.3,3.8,8.2,6.2,13.6,6.2c5.6,0,10.7-2.6,14-6.6C89.6,76.2,95,69.8,95,62.1z" fill="#ffffff" transform="translate(208.95383510392037, -15.127226310456138) scale(0.6666666666666667) translate(-36, -24)" style="transform:matrix(0.666667, 0, 0, 0.666667, 184.954, -31.1272);animation-play-state:paused" ></path></g>
<g transform="matrix(1,0,0,1,0,0)" style="transform:matrix(1, 0, 0, 1, 0, 0);animation-play-state:paused" ><path d="M95,62.1c0-7.9-5.6-14.5-13.1-15.9C82,45.4,82,44.7,82,44c0-12.3-10-22.3-22.3-22.3c-9.5,0-17.7,6-20.8,14.4 c-1.2-0.3-2.4-0.5-3.7-0.5c-7.6,0-13.8,5.9-14.3,13.3c-0.9-0.2-1.9-0.3-2.8-0.3c-7.2,0-13,5.8-13,13c0,4.8,2.6,9,6.5,11.2 c0,0.1,0,0.1,0,0.2c0,4.7,3.8,8.5,8.5,8.5c2.7,0,5.1-1.3,6.7-3.2c0.1,0,0.2,0,0.3,0h10.4c2.4,2,5.4,3.2,8.7,3.2s6.4-1.2,8.7-3.2h0.2 c3.3,3.8,8.2,6.2,13.6,6.2c5.6,0,10.7-2.6,14-6.6C89.6,76.2,95,69.8,95,62.1z" fill="#ffffff" transform="translate(-47.04616489607963, 240.87277368954386) scale(0.6666666666666667) translate(-36, -24)" style="transform:matrix(0.666667, 0, 0, 0.666667, -71.0462, 224.873);animation-play-state:paused" ></path></g>
<g transform="matrix(1,0,0,1,0,0)" style="transform:matrix(1, 0, 0, 1, 0, 0);animation-play-state:paused" ><path d="M95,62.1c0-7.9-5.6-14.5-13.1-15.9C82,45.4,82,44.7,82,44c0-12.3-10-22.3-22.3-22.3c-9.5,0-17.7,6-20.8,14.4 c-1.2-0.3-2.4-0.5-3.7-0.5c-7.6,0-13.8,5.9-14.3,13.3c-0.9-0.2-1.9-0.3-2.8-0.3c-7.2,0-13,5.8-13,13c0,4.8,2.6,9,6.5,11.2 c0,0.1,0,0.1,0,0.2c0,4.7,3.8,8.5,8.5,8.5c2.7,0,5.1-1.3,6.7-3.2c0.1,0,0.2,0,0.3,0h10.4c2.4,2,5.4,3.2,8.7,3.2s6.4-1.2,8.7-3.2h0.2 c3.3,3.8,8.2,6.2,13.6,6.2c5.6,0,10.7-2.6,14-6.6C89.6,76.2,95,69.8,95,62.1z" fill="#ffffff" transform="translate(-47.04616489607963, -15.127226310456138) scale(0.6666666666666667) translate(-36, -24)" style="transform:matrix(0.666667, 0, 0, 0.666667, -71.0462, -31.1272);animation-play-state:paused" ></path></g>
<g transform="matrix(1,0,0,1,0,0)" style="transform:matrix(1, 0, 0, 1, 0, 0);animation-play-state:paused" ><path d="M94.6,56.2c-1-4.2-3.7-7.6-7.2-9.5c1.6-1.7,2.7-4.1,2.7-6.7c0-5.4-4.4-9.7-9.7-9.7c-3.2,0-6.1,1.6-7.8,4 c-2.5-4.5-7.3-7.6-12.8-7.6c-3.4,0-6.4,1.1-8.9,3.1c-2.4-4.7-7.3-7.9-13-7.9c-5.6,0-10.5,3.2-12.9,7.8c-1.3-0.3-2.7-0.6-4.1-0.6 C12.1,29.1,5,36.1,5,44.9c0,6,3.4,11.3,8.3,13.9c-0.2,1.3-0.2,2.6,0.1,3.9c1.2,5.3,6.5,8.6,11.8,7.4c0.3-0.1,0.6-0.1,0.8-0.2 c2.9,6,9.6,9.5,16.4,8c5.5-1.3,9.6-5.5,10.9-10.6c2.8,1.3,6.1,1.7,9.4,1c1.8-0.4,3.4-1.1,4.8-2.1c3,5.7,9.6,9,16.2,7.5 C91.5,71.9,96.4,64,94.6,56.2z" fill="#ffffff" transform="translate(79.93528554041109, 197.54658445515764) scale(0.6666666666666667) translate(-36, -24)" style="transform:matrix(0.666667, 0, 0, 0.666667, 55.9353, 181.547);animation-play-state:paused" ></path></g>
<g transform="matrix(1,0,0,1,0,0)" style="transform:matrix(1, 0, 0, 1, 0, 0);animation-play-state:paused" ><path d="M94.6,56.2c-1-4.2-3.7-7.6-7.2-9.5c1.6-1.7,2.7-4.1,2.7-6.7c0-5.4-4.4-9.7-9.7-9.7c-3.2,0-6.1,1.6-7.8,4 c-2.5-4.5-7.3-7.6-12.8-7.6c-3.4,0-6.4,1.1-8.9,3.1c-2.4-4.7-7.3-7.9-13-7.9c-5.6,0-10.5,3.2-12.9,7.8c-1.3-0.3-2.7-0.6-4.1-0.6 C12.1,29.1,5,36.1,5,44.9c0,6,3.4,11.3,8.3,13.9c-0.2,1.3-0.2,2.6,0.1,3.9c1.2,5.3,6.5,8.6,11.8,7.4c0.3-0.1,0.6-0.1,0.8-0.2 c2.9,6,9.6,9.5,16.4,8c5.5-1.3,9.6-5.5,10.9-10.6c2.8,1.3,6.1,1.7,9.4,1c1.8-0.4,3.4-1.1,4.8-2.1c3,5.7,9.6,9,16.2,7.5 C91.5,71.9,96.4,64,94.6,56.2z" fill="#ffffff" transform="translate(-176.0647144595889, 197.54658445515764) scale(0.6666666666666667) translate(-36, -24)" style="transform:matrix(0.666667, 0, 0, 0.666667, -200.065, 181.547);animation-play-state:paused" ></path></g>
<g transform="matrix(1,0,0,1,0,0)" style="transform:matrix(1, 0, 0, 1, 0, 0);animation-play-state:paused" ><path d="M85.3,55.6c0.3-1.1,0.5-2.2,0.6-3.4c0.5-8.5-6-15.7-14.5-16.2c-2.1-0.1-4.2,0.2-6,0.9c-1.5-8.9-9-16-18.4-16.5 C36.1,19.7,26.8,28,26.2,38.9c-0.1,1.1,0,2.3,0.1,3.3c-6.3,0.1-11.6,5-11.9,11.4c0,0.8,0,1.5,0.1,2.2c-0.3,0-0.5-0.1-0.8-0.1 C9.2,55.6,5.3,59,5,63.6s3.2,8.4,7.8,8.7c0.8,0,1.5,0,2.2-0.2c2.5,2.9,8,5.1,14.6,5.5c3.7,0.2,7.2-0.2,10-1.1 c1.7,1.8,4.3,3.1,7.3,3.2c4,0.2,7.5-1.6,9.3-4.3c2.1,1,4.6,1.7,7.4,1.9c4.5,0.3,8.6-1,11.1-3c2,1.7,4.6,2.8,7.6,3 C89,77.6,94.6,73,95,67C95.3,61.5,91.1,56.7,85.3,55.6z" fill="#ffffff" transform="translate(257.33198680739264, 143.72568647875795) scale(0.6666666666666667) translate(-36, -24)" style="transform:matrix(0.666667, 0, 0, 0.666667, 233.332, 127.726);animation-play-state:paused" ></path></g>
<g transform="matrix(1,0,0,1,0,0)" style="transform:matrix(1, 0, 0, 1, 0, 0);animation-play-state:paused" ><path d="M85.3,55.6c0.3-1.1,0.5-2.2,0.6-3.4c0.5-8.5-6-15.7-14.5-16.2c-2.1-0.1-4.2,0.2-6,0.9c-1.5-8.9-9-16-18.4-16.5 C36.1,19.7,26.8,28,26.2,38.9c-0.1,1.1,0,2.3,0.1,3.3c-6.3,0.1-11.6,5-11.9,11.4c0,0.8,0,1.5,0.1,2.2c-0.3,0-0.5-0.1-0.8-0.1 C9.2,55.6,5.3,59,5,63.6s3.2,8.4,7.8,8.7c0.8,0,1.5,0,2.2-0.2c2.5,2.9,8,5.1,14.6,5.5c3.7,0.2,7.2-0.2,10-1.1 c1.7,1.8,4.3,3.1,7.3,3.2c4,0.2,7.5-1.6,9.3-4.3c2.1,1,4.6,1.7,7.4,1.9c4.5,0.3,8.6-1,11.1-3c2,1.7,4.6,2.8,7.6,3 C89,77.6,94.6,73,95,67C95.3,61.5,91.1,56.7,85.3,55.6z" fill="#ffffff" transform="translate(1.3319868073926386, 143.72568647875795) scale(0.6666666666666667) translate(-36, -24)" style="transform:matrix(0.666667, 0, 0, 0.666667, -22.668, 127.726);animation-play-state:paused" ></path></g>
<g transform="matrix(1,0,0,1,0,0)" style="transform:matrix(1, 0, 0, 1, 0, 0);animation-play-state:paused" ><path d="M85.3,55.6c0.3-1.1,0.5-2.2,0.6-3.4c0.5-8.5-6-15.7-14.5-16.2c-2.1-0.1-4.2,0.2-6,0.9c-1.5-8.9-9-16-18.4-16.5 C36.1,19.7,26.8,28,26.2,38.9c-0.1,1.1,0,2.3,0.1,3.3c-6.3,0.1-11.6,5-11.9,11.4c0,0.8,0,1.5,0.1,2.2c-0.3,0-0.5-0.1-0.8-0.1 C9.2,55.6,5.3,59,5,63.6s3.2,8.4,7.8,8.7c0.8,0,1.5,0,2.2-0.2c2.5,2.9,8,5.1,14.6,5.5c3.7,0.2,7.2-0.2,10-1.1 c1.7,1.8,4.3,3.1,7.3,3.2c4,0.2,7.5-1.6,9.3-4.3c2.1,1,4.6,1.7,7.4,1.9c4.5,0.3,8.6-1,11.1-3c2,1.7,4.6,2.8,7.6,3 C89,77.6,94.6,73,95,67C95.3,61.5,91.1,56.7,85.3,55.6z" fill="#ffffff" transform="translate(-254.66801319260736, 143.72568647875795) scale(0.6666666666666667) translate(-36, -24)" style="transform:matrix(0.666667, 0, 0, 0.666667, -278.668, 127.726);animation-play-state:paused" ></path></g>
<g transform="matrix(1,0,0,1,0,0)" style="transform:matrix(1, 0, 0, 1, 0, 0);animation-play-state:paused" ><path d="M95,62.4c-0.5-5.9-5.7-10.3-11.9-10.5c0-0.6,0-1.2,0-1.8c-0.7-7.6-7.9-13.1-16.1-12.4c-0.9,0.1-1.9,0.3-2.7,0.5 c0-0.1,0-0.2,0-0.2c-1-10.9-10.7-19-21.6-18c-9.8,0.9-17.3,8.8-18,18.3C12.8,39.5,4.1,49.2,5.1,60C6.1,71,16.5,79,28.4,77.9 c3.4-0.3,6.4-1.3,9.2-2.8c5,3.7,12.4,5.7,20.5,4.9c6.9-0.6,13.1-3.2,17.3-6.8c2.3,1.4,5.2,2.2,8.2,1.9C90.4,74.4,95.5,68.8,95,62.4z" fill="#ffffff" transform="translate(160.04685007338873, 220.77602999868185) scale(0.6666666666666667) translate(-36, -24)" style="transform:matrix(0.666667, 0, 0, 0.666667, 136.047, 204.776);animation-play-state:paused" ></path></g>
<g transform="matrix(1,0,0,1,0,0)" style="transform:matrix(1, 0, 0, 1, 0, 0);animation-play-state:paused" ><path d="M95,62.4c-0.5-5.9-5.7-10.3-11.9-10.5c0-0.6,0-1.2,0-1.8c-0.7-7.6-7.9-13.1-16.1-12.4c-0.9,0.1-1.9,0.3-2.7,0.5 c0-0.1,0-0.2,0-0.2c-1-10.9-10.7-19-21.6-18c-9.8,0.9-17.3,8.8-18,18.3C12.8,39.5,4.1,49.2,5.1,60C6.1,71,16.5,79,28.4,77.9 c3.4-0.3,6.4-1.3,9.2-2.8c5,3.7,12.4,5.7,20.5,4.9c6.9-0.6,13.1-3.2,17.3-6.8c2.3,1.4,5.2,2.2,8.2,1.9C90.4,74.4,95.5,68.8,95,62.4z" fill="#ffffff" transform="translate(160.04685007338873, -35.22397000131815) scale(0.6666666666666667) translate(-36, -24)" style="transform:matrix(0.666667, 0, 0, 0.666667, 136.047, -51.224);animation-play-state:paused" ></path></g>
<g transform="matrix(1,0,0,1,0,0)" style="transform:matrix(1, 0, 0, 1, 0, 0);animation-play-state:paused" ><path d="M95,62.4c-0.5-5.9-5.7-10.3-11.9-10.5c0-0.6,0-1.2,0-1.8c-0.7-7.6-7.9-13.1-16.1-12.4c-0.9,0.1-1.9,0.3-2.7,0.5 c0-0.1,0-0.2,0-0.2c-1-10.9-10.7-19-21.6-18c-9.8,0.9-17.3,8.8-18,18.3C12.8,39.5,4.1,49.2,5.1,60C6.1,71,16.5,79,28.4,77.9 c3.4-0.3,6.4-1.3,9.2-2.8c5,3.7,12.4,5.7,20.5,4.9c6.9-0.6,13.1-3.2,17.3-6.8c2.3,1.4,5.2,2.2,8.2,1.9C90.4,74.4,95.5,68.8,95,62.4z" fill="#ffffff" transform="translate(-95.95314992661127, 220.77602999868185) scale(0.6666666666666667) translate(-36, -24)" style="transform:matrix(0.666667, 0, 0, 0.666667, -119.953, 204.776);animation-play-state:paused" ></path></g>
<g transform="matrix(1,0,0,1,0,0)" style="transform:matrix(1, 0, 0, 1, 0, 0);animation-play-state:paused" ><path d="M95,62.4c-0.5-5.9-5.7-10.3-11.9-10.5c0-0.6,0-1.2,0-1.8c-0.7-7.6-7.9-13.1-16.1-12.4c-0.9,0.1-1.9,0.3-2.7,0.5 c0-0.1,0-0.2,0-0.2c-1-10.9-10.7-19-21.6-18c-9.8,0.9-17.3,8.8-18,18.3C12.8,39.5,4.1,49.2,5.1,60C6.1,71,16.5,79,28.4,77.9 c3.4-0.3,6.4-1.3,9.2-2.8c5,3.7,12.4,5.7,20.5,4.9c6.9-0.6,13.1-3.2,17.3-6.8c2.3,1.4,5.2,2.2,8.2,1.9C90.4,74.4,95.5,68.8,95,62.4z" fill="#ffffff" transform="translate(-95.95314992661127, -35.22397000131815) scale(0.6666666666666667) translate(-36, -24)" style="transform:matrix(0.666667, 0, 0, 0.666667, -119.953, -51.224);animation-play-state:paused" ></path></g>
<g transform="matrix(1,0,0,1,0,0)" style="transform:matrix(1, 0, 0, 1, 0, 0);animation-play-state:paused" ><path d="M95,62.1c0-7.9-5.6-14.5-13.1-15.9C82,45.4,82,44.7,82,44c0-12.3-10-22.3-22.3-22.3c-9.5,0-17.7,6-20.8,14.4 c-1.2-0.3-2.4-0.5-3.7-0.5c-7.6,0-13.8,5.9-14.3,13.3c-0.9-0.2-1.9-0.3-2.8-0.3c-7.2,0-13,5.8-13,13c0,4.8,2.6,9,6.5,11.2 c0,0.1,0,0.1,0,0.2c0,4.7,3.8,8.5,8.5,8.5c2.7,0,5.1-1.3,6.7-3.2c0.1,0,0.2,0,0.3,0h10.4c2.4,2,5.4,3.2,8.7,3.2s6.4-1.2,8.7-3.2h0.2 c3.3,3.8,8.2,6.2,13.6,6.2c5.6,0,10.7-2.6,14-6.6C89.6,76.2,95,69.8,95,62.1z" fill="#f8f8f8" transform="translate(105.74807994948742, 247.59165226576425) scale(0.8333333333333334) translate(-36, -24)" style="transform:matrix(0.833333, 0, 0, 0.833333, 75.7481, 227.592);animation-play-state:paused" ></path></g>
<g transform="matrix(1,0,0,1,0,0)" style="transform:matrix(1, 0, 0, 1, 0, 0);animation-play-state:paused" ><path d="M95,62.1c0-7.9-5.6-14.5-13.1-15.9C82,45.4,82,44.7,82,44c0-12.3-10-22.3-22.3-22.3c-9.5,0-17.7,6-20.8,14.4 c-1.2-0.3-2.4-0.5-3.7-0.5c-7.6,0-13.8,5.9-14.3,13.3c-0.9-0.2-1.9-0.3-2.8-0.3c-7.2,0-13,5.8-13,13c0,4.8,2.6,9,6.5,11.2 c0,0.1,0,0.1,0,0.2c0,4.7,3.8,8.5,8.5,8.5c2.7,0,5.1-1.3,6.7-3.2c0.1,0,0.2,0,0.3,0h10.4c2.4,2,5.4,3.2,8.7,3.2s6.4-1.2,8.7-3.2h0.2 c3.3,3.8,8.2,6.2,13.6,6.2c5.6,0,10.7-2.6,14-6.6C89.6,76.2,95,69.8,95,62.1z" fill="#f8f8f8" transform="translate(105.74807994948742, -8.408347734235747) scale(0.8333333333333334) translate(-36, -24)" style="transform:matrix(0.833333, 0, 0, 0.833333, 75.7481, -28.4083);animation-play-state:paused" ></path></g>
<g transform="matrix(1,0,0,1,0,0)" style="transform:matrix(1, 0, 0, 1, 0, 0);animation-play-state:paused" ><path d="M95,62.1c0-7.9-5.6-14.5-13.1-15.9C82,45.4,82,44.7,82,44c0-12.3-10-22.3-22.3-22.3c-9.5,0-17.7,6-20.8,14.4 c-1.2-0.3-2.4-0.5-3.7-0.5c-7.6,0-13.8,5.9-14.3,13.3c-0.9-0.2-1.9-0.3-2.8-0.3c-7.2,0-13,5.8-13,13c0,4.8,2.6,9,6.5,11.2 c0,0.1,0,0.1,0,0.2c0,4.7,3.8,8.5,8.5,8.5c2.7,0,5.1-1.3,6.7-3.2c0.1,0,0.2,0,0.3,0h10.4c2.4,2,5.4,3.2,8.7,3.2s6.4-1.2,8.7-3.2h0.2 c3.3,3.8,8.2,6.2,13.6,6.2c5.6,0,10.7-2.6,14-6.6C89.6,76.2,95,69.8,95,62.1z" fill="#f8f8f8" transform="translate(-150.25192005051258, 247.59165226576425) scale(0.8333333333333334) translate(-36, -24)" style="transform:matrix(0.833333, 0, 0, 0.833333, -180.252, 227.592);animation-play-state:paused" ></path></g>
<g transform="matrix(1,0,0,1,0,0)" style="transform:matrix(1, 0, 0, 1, 0, 0);animation-play-state:paused" ><path d="M95,62.1c0-7.9-5.6-14.5-13.1-15.9C82,45.4,82,44.7,82,44c0-12.3-10-22.3-22.3-22.3c-9.5,0-17.7,6-20.8,14.4 c-1.2-0.3-2.4-0.5-3.7-0.5c-7.6,0-13.8,5.9-14.3,13.3c-0.9-0.2-1.9-0.3-2.8-0.3c-7.2,0-13,5.8-13,13c0,4.8,2.6,9,6.5,11.2 c0,0.1,0,0.1,0,0.2c0,4.7,3.8,8.5,8.5,8.5c2.7,0,5.1-1.3,6.7-3.2c0.1,0,0.2,0,0.3,0h10.4c2.4,2,5.4,3.2,8.7,3.2s6.4-1.2,8.7-3.2h0.2 c3.3,3.8,8.2,6.2,13.6,6.2c5.6,0,10.7-2.6,14-6.6C89.6,76.2,95,69.8,95,62.1z" fill="#f8f8f8" transform="translate(-150.25192005051258, -8.408347734235747) scale(0.8333333333333334) translate(-36, -24)" style="transform:matrix(0.833333, 0, 0, 0.833333, -180.252, -28.4083);animation-play-state:paused" ></path></g>
<g transform="matrix(1,0,0,1,0,0)" style="transform:matrix(1, 0, 0, 1, 0, 0);animation-play-state:paused" ><path d="M94.6,56.2c-1-4.2-3.7-7.6-7.2-9.5c1.6-1.7,2.7-4.1,2.7-6.7c0-5.4-4.4-9.7-9.7-9.7c-3.2,0-6.1,1.6-7.8,4 c-2.5-4.5-7.3-7.6-12.8-7.6c-3.4,0-6.4,1.1-8.9,3.1c-2.4-4.7-7.3-7.9-13-7.9c-5.6,0-10.5,3.2-12.9,7.8c-1.3-0.3-2.7-0.6-4.1-0.6 C12.1,29.1,5,36.1,5,44.9c0,6,3.4,11.3,8.3,13.9c-0.2,1.3-0.2,2.6,0.1,3.9c1.2,5.3,6.5,8.6,11.8,7.4c0.3-0.1,0.6-0.1,0.8-0.2 c2.9,6,9.6,9.5,16.4,8c5.5-1.3,9.6-5.5,10.9-10.6c2.8,1.3,6.1,1.7,9.4,1c1.8-0.4,3.4-1.1,4.8-2.1c3,5.7,9.6,9,16.2,7.5 C91.5,71.9,96.4,64,94.6,56.2z" fill="#f8f8f8" transform="translate(-269.32481616531123, 27.033878111747526) scale(0.8333333333333334) translate(-36, -24)" style="transform:matrix(0.833333, 0, 0, 0.833333, -299.325, 7.03388);animation-play-state:paused" ></path></g>
<g transform="matrix(1,0,0,1,0,0)" style="transform:matrix(1, 0, 0, 1, 0, 0);animation-play-state:paused" ><path d="M94.6,56.2c-1-4.2-3.7-7.6-7.2-9.5c1.6-1.7,2.7-4.1,2.7-6.7c0-5.4-4.4-9.7-9.7-9.7c-3.2,0-6.1,1.6-7.8,4 c-2.5-4.5-7.3-7.6-12.8-7.6c-3.4,0-6.4,1.1-8.9,3.1c-2.4-4.7-7.3-7.9-13-7.9c-5.6,0-10.5,3.2-12.9,7.8c-1.3-0.3-2.7-0.6-4.1-0.6 C12.1,29.1,5,36.1,5,44.9c0,6,3.4,11.3,8.3,13.9c-0.2,1.3-0.2,2.6,0.1,3.9c1.2,5.3,6.5,8.6,11.8,7.4c0.3-0.1,0.6-0.1,0.8-0.2 c2.9,6,9.6,9.5,16.4,8c5.5-1.3,9.6-5.5,10.9-10.6c2.8,1.3,6.1,1.7,9.4,1c1.8-0.4,3.4-1.1,4.8-2.1c3,5.7,9.6,9,16.2,7.5 C91.5,71.9,96.4,64,94.6,56.2z" fill="#f8f8f8" transform="translate(-269.32481616531123, 283.0338781117475) scale(0.8333333333333334) translate(-36, -24)" style="transform:matrix(0.833333, 0, 0, 0.833333, -299.325, 263.034);animation-play-state:paused" ></path></g>
<g transform="matrix(1,0,0,1,0,0)" style="transform:matrix(1, 0, 0, 1, 0, 0);animation-play-state:paused" ><path d="M94.6,56.2c-1-4.2-3.7-7.6-7.2-9.5c1.6-1.7,2.7-4.1,2.7-6.7c0-5.4-4.4-9.7-9.7-9.7c-3.2,0-6.1,1.6-7.8,4 c-2.5-4.5-7.3-7.6-12.8-7.6c-3.4,0-6.4,1.1-8.9,3.1c-2.4-4.7-7.3-7.9-13-7.9c-5.6,0-10.5,3.2-12.9,7.8c-1.3-0.3-2.7-0.6-4.1-0.6 C12.1,29.1,5,36.1,5,44.9c0,6,3.4,11.3,8.3,13.9c-0.2,1.3-0.2,2.6,0.1,3.9c1.2,5.3,6.5,8.6,11.8,7.4c0.3-0.1,0.6-0.1,0.8-0.2 c2.9,6,9.6,9.5,16.4,8c5.5-1.3,9.6-5.5,10.9-10.6c2.8,1.3,6.1,1.7,9.4,1c1.8-0.4,3.4-1.1,4.8-2.1c3,5.7,9.6,9,16.2,7.5 C91.5,71.9,96.4,64,94.6,56.2z" fill="#f8f8f8" transform="translate(242.67518383468877, 27.033878111747526) scale(0.8333333333333334) translate(-36, -24)" style="transform:matrix(0.833333, 0, 0, 0.833333, 212.675, 7.03388);animation-play-state:paused" ></path></g>
<g transform="matrix(1,0,0,1,0,0)" style="transform:matrix(1, 0, 0, 1, 0, 0);animation-play-state:paused" ><path d="M94.6,56.2c-1-4.2-3.7-7.6-7.2-9.5c1.6-1.7,2.7-4.1,2.7-6.7c0-5.4-4.4-9.7-9.7-9.7c-3.2,0-6.1,1.6-7.8,4 c-2.5-4.5-7.3-7.6-12.8-7.6c-3.4,0-6.4,1.1-8.9,3.1c-2.4-4.7-7.3-7.9-13-7.9c-5.6,0-10.5,3.2-12.9,7.8c-1.3-0.3-2.7-0.6-4.1-0.6 C12.1,29.1,5,36.1,5,44.9c0,6,3.4,11.3,8.3,13.9c-0.2,1.3-0.2,2.6,0.1,3.9c1.2,5.3,6.5,8.6,11.8,7.4c0.3-0.1,0.6-0.1,0.8-0.2 c2.9,6,9.6,9.5,16.4,8c5.5-1.3,9.6-5.5,10.9-10.6c2.8,1.3,6.1,1.7,9.4,1c1.8-0.4,3.4-1.1,4.8-2.1c3,5.7,9.6,9,16.2,7.5 C91.5,71.9,96.4,64,94.6,56.2z" fill="#f8f8f8" transform="translate(242.67518383468877, 283.0338781117475) scale(0.8333333333333334) translate(-36, -24)" style="transform:matrix(0.833333, 0, 0, 0.833333, 212.675, 263.034);animation-play-state:paused" ></path></g>
<g transform="matrix(1,0,0,1,0,0)" style="transform:matrix(1, 0, 0, 1, 0, 0);animation-play-state:paused" ><path d="M94.6,56.2c-1-4.2-3.7-7.6-7.2-9.5c1.6-1.7,2.7-4.1,2.7-6.7c0-5.4-4.4-9.7-9.7-9.7c-3.2,0-6.1,1.6-7.8,4 c-2.5-4.5-7.3-7.6-12.8-7.6c-3.4,0-6.4,1.1-8.9,3.1c-2.4-4.7-7.3-7.9-13-7.9c-5.6,0-10.5,3.2-12.9,7.8c-1.3-0.3-2.7-0.6-4.1-0.6 C12.1,29.1,5,36.1,5,44.9c0,6,3.4,11.3,8.3,13.9c-0.2,1.3-0.2,2.6,0.1,3.9c1.2,5.3,6.5,8.6,11.8,7.4c0.3-0.1,0.6-0.1,0.8-0.2 c2.9,6,9.6,9.5,16.4,8c5.5-1.3,9.6-5.5,10.9-10.6c2.8,1.3,6.1,1.7,9.4,1c1.8-0.4,3.4-1.1,4.8-2.1c3,5.7,9.6,9,16.2,7.5 C91.5,71.9,96.4,64,94.6,56.2z" fill="#f8f8f8" transform="translate(-13.324816165311233, 27.033878111747526) scale(0.8333333333333334) translate(-36, -24)" style="transform:matrix(0.833333, 0, 0, 0.833333, -43.3248, 7.03388);animation-play-state:paused" ></path></g>
<g transform="matrix(1,0,0,1,0,0)" style="transform:matrix(1, 0, 0, 1, 0, 0);animation-play-state:paused" ><path d="M94.6,56.2c-1-4.2-3.7-7.6-7.2-9.5c1.6-1.7,2.7-4.1,2.7-6.7c0-5.4-4.4-9.7-9.7-9.7c-3.2,0-6.1,1.6-7.8,4 c-2.5-4.5-7.3-7.6-12.8-7.6c-3.4,0-6.4,1.1-8.9,3.1c-2.4-4.7-7.3-7.9-13-7.9c-5.6,0-10.5,3.2-12.9,7.8c-1.3-0.3-2.7-0.6-4.1-0.6 C12.1,29.1,5,36.1,5,44.9c0,6,3.4,11.3,8.3,13.9c-0.2,1.3-0.2,2.6,0.1,3.9c1.2,5.3,6.5,8.6,11.8,7.4c0.3-0.1,0.6-0.1,0.8-0.2 c2.9,6,9.6,9.5,16.4,8c5.5-1.3,9.6-5.5,10.9-10.6c2.8,1.3,6.1,1.7,9.4,1c1.8-0.4,3.4-1.1,4.8-2.1c3,5.7,9.6,9,16.2,7.5 C91.5,71.9,96.4,64,94.6,56.2z" fill="#f8f8f8" transform="translate(-13.324816165311233, 283.0338781117475) scale(0.8333333333333334) translate(-36, -24)" style="transform:matrix(0.833333, 0, 0, 0.833333, -43.3248, 263.034);animation-play-state:paused" ></path></g>
<g transform="matrix(1,0,0,1,0,0)" style="transform:matrix(1, 0, 0, 1, 0, 0);animation-play-state:paused" ><path d="M85.3,55.6c0.3-1.1,0.5-2.2,0.6-3.4c0.5-8.5-6-15.7-14.5-16.2c-2.1-0.1-4.2,0.2-6,0.9c-1.5-8.9-9-16-18.4-16.5 C36.1,19.7,26.8,28,26.2,38.9c-0.1,1.1,0,2.3,0.1,3.3c-6.3,0.1-11.6,5-11.9,11.4c0,0.8,0,1.5,0.1,2.2c-0.3,0-0.5-0.1-0.8-0.1 C9.2,55.6,5.3,59,5,63.6s3.2,8.4,7.8,8.7c0.8,0,1.5,0,2.2-0.2c2.5,2.9,8,5.1,14.6,5.5c3.7,0.2,7.2-0.2,10-1.1 c1.7,1.8,4.3,3.1,7.3,3.2c4,0.2,7.5-1.6,9.3-4.3c2.1,1,4.6,1.7,7.4,1.9c4.5,0.3,8.6-1,11.1-3c2,1.7,4.6,2.8,7.6,3 C89,77.6,94.6,73,95,67C95.3,61.5,91.1,56.7,85.3,55.6z" fill="#f8f8f8" transform="translate(200.03897496218713, 124.45815079867054) scale(0.8333333333333334) translate(-36, -24)" style="transform:matrix(0.833333, 0, 0, 0.833333, 170.039, 104.458);animation-play-state:paused" ></path></g>
<g transform="matrix(1,0,0,1,0,0)" style="transform:matrix(1, 0, 0, 1, 0, 0);animation-play-state:paused" ><path d="M85.3,55.6c0.3-1.1,0.5-2.2,0.6-3.4c0.5-8.5-6-15.7-14.5-16.2c-2.1-0.1-4.2,0.2-6,0.9c-1.5-8.9-9-16-18.4-16.5 C36.1,19.7,26.8,28,26.2,38.9c-0.1,1.1,0,2.3,0.1,3.3c-6.3,0.1-11.6,5-11.9,11.4c0,0.8,0,1.5,0.1,2.2c-0.3,0-0.5-0.1-0.8-0.1 C9.2,55.6,5.3,59,5,63.6s3.2,8.4,7.8,8.7c0.8,0,1.5,0,2.2-0.2c2.5,2.9,8,5.1,14.6,5.5c3.7,0.2,7.2-0.2,10-1.1 c1.7,1.8,4.3,3.1,7.3,3.2c4,0.2,7.5-1.6,9.3-4.3c2.1,1,4.6,1.7,7.4,1.9c4.5,0.3,8.6-1,11.1-3c2,1.7,4.6,2.8,7.6,3 C89,77.6,94.6,73,95,67C95.3,61.5,91.1,56.7,85.3,55.6z" fill="#f8f8f8" transform="translate(-55.961025037812874, 124.45815079867054) scale(0.8333333333333334) translate(-36, -24)" style="transform:matrix(0.833333, 0, 0, 0.833333, -85.961, 104.458);animation-play-state:paused" ></path></g>
<g transform="matrix(1,0,0,1,0,0)" style="transform:matrix(1, 0, 0, 1, 0, 0);animation-play-state:paused" ><path d="M95,62.4c-0.5-5.9-5.7-10.3-11.9-10.5c0-0.6,0-1.2,0-1.8c-0.7-7.6-7.9-13.1-16.1-12.4c-0.9,0.1-1.9,0.3-2.7,0.5 c0-0.1,0-0.2,0-0.2c-1-10.9-10.7-19-21.6-18c-9.8,0.9-17.3,8.8-18,18.3C12.8,39.5,4.1,49.2,5.1,60C6.1,71,16.5,79,28.4,77.9 c3.4-0.3,6.4-1.3,9.2-2.8c5,3.7,12.4,5.7,20.5,4.9c6.9-0.6,13.1-3.2,17.3-6.8c2.3,1.4,5.2,2.2,8.2,1.9C90.4,74.4,95.5,68.8,95,62.4z" fill="#f8f8f8" transform="translate(84.47759628606394, 235.46743052858625) scale(0.8333333333333334) translate(-36, -24)" style="transform:matrix(0.833333, 0, 0, 0.833333, 54.4776, 215.467);animation-play-state:paused" ></path></g>
<g transform="matrix(1,0,0,1,0,0)" style="transform:matrix(1, 0, 0, 1, 0, 0);animation-play-state:paused" ><path d="M95,62.4c-0.5-5.9-5.7-10.3-11.9-10.5c0-0.6,0-1.2,0-1.8c-0.7-7.6-7.9-13.1-16.1-12.4c-0.9,0.1-1.9,0.3-2.7,0.5 c0-0.1,0-0.2,0-0.2c-1-10.9-10.7-19-21.6-18c-9.8,0.9-17.3,8.8-18,18.3C12.8,39.5,4.1,49.2,5.1,60C6.1,71,16.5,79,28.4,77.9 c3.4-0.3,6.4-1.3,9.2-2.8c5,3.7,12.4,5.7,20.5,4.9c6.9-0.6,13.1-3.2,17.3-6.8c2.3,1.4,5.2,2.2,8.2,1.9C90.4,74.4,95.5,68.8,95,62.4z" fill="#f8f8f8" transform="translate(84.47759628606394, -20.53256947141375) scale(0.8333333333333334) translate(-36, -24)" style="transform:matrix(0.833333, 0, 0, 0.833333, 54.4776, -40.5326);animation-play-state:paused" ></path></g>
<g transform="matrix(1,0,0,1,0,0)" style="transform:matrix(1, 0, 0, 1, 0, 0);animation-play-state:paused" ><path d="M95,62.4c-0.5-5.9-5.7-10.3-11.9-10.5c0-0.6,0-1.2,0-1.8c-0.7-7.6-7.9-13.1-16.1-12.4c-0.9,0.1-1.9,0.3-2.7,0.5 c0-0.1,0-0.2,0-0.2c-1-10.9-10.7-19-21.6-18c-9.8,0.9-17.3,8.8-18,18.3C12.8,39.5,4.1,49.2,5.1,60C6.1,71,16.5,79,28.4,77.9 c3.4-0.3,6.4-1.3,9.2-2.8c5,3.7,12.4,5.7,20.5,4.9c6.9-0.6,13.1-3.2,17.3-6.8c2.3,1.4,5.2,2.2,8.2,1.9C90.4,74.4,95.5,68.8,95,62.4z" fill="#f8f8f8" transform="translate(-171.52240371393606, 235.46743052858625) scale(0.8333333333333334) translate(-36, -24)" style="transform:matrix(0.833333, 0, 0, 0.833333, -201.522, 215.467);animation-play-state:paused" ></path></g>
<g transform="matrix(1,0,0,1,0,0)" style="transform:matrix(1, 0, 0, 1, 0, 0);animation-play-state:paused" ><path d="M95,62.4c-0.5-5.9-5.7-10.3-11.9-10.5c0-0.6,0-1.2,0-1.8c-0.7-7.6-7.9-13.1-16.1-12.4c-0.9,0.1-1.9,0.3-2.7,0.5 c0-0.1,0-0.2,0-0.2c-1-10.9-10.7-19-21.6-18c-9.8,0.9-17.3,8.8-18,18.3C12.8,39.5,4.1,49.2,5.1,60C6.1,71,16.5,79,28.4,77.9 c3.4-0.3,6.4-1.3,9.2-2.8c5,3.7,12.4,5.7,20.5,4.9c6.9-0.6,13.1-3.2,17.3-6.8c2.3,1.4,5.2,2.2,8.2,1.9C90.4,74.4,95.5,68.8,95,62.4z" fill="#f8f8f8" transform="translate(-171.52240371393606, -20.53256947141375) scale(0.8333333333333334) translate(-36, -24)" style="transform:matrix(0.833333, 0, 0, 0.833333, -201.522, -40.5326);animation-play-state:paused" ></path></g>
<g transform="matrix(1,0,0,1,0,0)" style="transform:matrix(1, 0, 0, 1, 0, 0);animation-play-state:paused" ><path d="M95,62.1c0-7.9-5.6-14.5-13.1-15.9C82,45.4,82,44.7,82,44c0-12.3-10-22.3-22.3-22.3c-9.5,0-17.7,6-20.8,14.4 c-1.2-0.3-2.4-0.5-3.7-0.5c-7.6,0-13.8,5.9-14.3,13.3c-0.9-0.2-1.9-0.3-2.8-0.3c-7.2,0-13,5.8-13,13c0,4.8,2.6,9,6.5,11.2 c0,0.1,0,0.1,0,0.2c0,4.7,3.8,8.5,8.5,8.5c2.7,0,5.1-1.3,6.7-3.2c0.1,0,0.2,0,0.3,0h10.4c2.4,2,5.4,3.2,8.7,3.2s6.4-1.2,8.7-3.2h0.2 c3.3,3.8,8.2,6.2,13.6,6.2c5.6,0,10.7-2.6,14-6.6C89.6,76.2,95,69.8,95,62.1z" fill="#f8f8f8" transform="translate(126.32769028765046, 107.67968732584166) scale(0.8333333333333334) translate(-36, -24)" style="transform:matrix(0.833333, 0, 0, 0.833333, 96.3277, 87.6797);animation-play-state:paused" ></path></g>
<g transform="matrix(1,0,0,1,0,0)" style="transform:matrix(1, 0, 0, 1, 0, 0);animation-play-state:paused" ><path d="M95,62.1c0-7.9-5.6-14.5-13.1-15.9C82,45.4,82,44.7,82,44c0-12.3-10-22.3-22.3-22.3c-9.5,0-17.7,6-20.8,14.4 c-1.2-0.3-2.4-0.5-3.7-0.5c-7.6,0-13.8,5.9-14.3,13.3c-0.9-0.2-1.9-0.3-2.8-0.3c-7.2,0-13,5.8-13,13c0,4.8,2.6,9,6.5,11.2 c0,0.1,0,0.1,0,0.2c0,4.7,3.8,8.5,8.5,8.5c2.7,0,5.1-1.3,6.7-3.2c0.1,0,0.2,0,0.3,0h10.4c2.4,2,5.4,3.2,8.7,3.2s6.4-1.2,8.7-3.2h0.2 c3.3,3.8,8.2,6.2,13.6,6.2c5.6,0,10.7-2.6,14-6.6C89.6,76.2,95,69.8,95,62.1z" fill="#f8f8f8" transform="translate(-129.67230971234954, 107.67968732584166) scale(0.8333333333333334) translate(-36, -24)" style="transform:matrix(0.833333, 0, 0, 0.833333, -159.672, 87.6797);animation-play-state:paused" ></path></g>
<g transform="matrix(1,0,0,1,0,0)" style="transform:matrix(1, 0, 0, 1, 0, 0);animation-play-state:paused" ><path d="M94.6,56.2c-1-4.2-3.7-7.6-7.2-9.5c1.6-1.7,2.7-4.1,2.7-6.7c0-5.4-4.4-9.7-9.7-9.7c-3.2,0-6.1,1.6-7.8,4 c-2.5-4.5-7.3-7.6-12.8-7.6c-3.4,0-6.4,1.1-8.9,3.1c-2.4-4.7-7.3-7.9-13-7.9c-5.6,0-10.5,3.2-12.9,7.8c-1.3-0.3-2.7-0.6-4.1-0.6 C12.1,29.1,5,36.1,5,44.9c0,6,3.4,11.3,8.3,13.9c-0.2,1.3-0.2,2.6,0.1,3.9c1.2,5.3,6.5,8.6,11.8,7.4c0.3-0.1,0.6-0.1,0.8-0.2 c2.9,6,9.6,9.5,16.4,8c5.5-1.3,9.6-5.5,10.9-10.6c2.8,1.3,6.1,1.7,9.4,1c1.8-0.4,3.4-1.1,4.8-2.1c3,5.7,9.6,9,16.2,7.5 C91.5,71.9,96.4,64,94.6,56.2z" fill="#f8f8f8" transform="translate(104.6334072780744, 230.40023486766825) scale(0.8333333333333334) translate(-36, -24)" style="transform:matrix(0.833333, 0, 0, 0.833333, 74.6334, 210.4);animation-play-state:paused" ></path></g>
<g transform="matrix(1,0,0,1,0,0)" style="transform:matrix(1, 0, 0, 1, 0, 0);animation-play-state:paused" ><path d="M94.6,56.2c-1-4.2-3.7-7.6-7.2-9.5c1.6-1.7,2.7-4.1,2.7-6.7c0-5.4-4.4-9.7-9.7-9.7c-3.2,0-6.1,1.6-7.8,4 c-2.5-4.5-7.3-7.6-12.8-7.6c-3.4,0-6.4,1.1-8.9,3.1c-2.4-4.7-7.3-7.9-13-7.9c-5.6,0-10.5,3.2-12.9,7.8c-1.3-0.3-2.7-0.6-4.1-0.6 C12.1,29.1,5,36.1,5,44.9c0,6,3.4,11.3,8.3,13.9c-0.2,1.3-0.2,2.6,0.1,3.9c1.2,5.3,6.5,8.6,11.8,7.4c0.3-0.1,0.6-0.1,0.8-0.2 c2.9,6,9.6,9.5,16.4,8c5.5-1.3,9.6-5.5,10.9-10.6c2.8,1.3,6.1,1.7,9.4,1c1.8-0.4,3.4-1.1,4.8-2.1c3,5.7,9.6,9,16.2,7.5 C91.5,71.9,96.4,64,94.6,56.2z" fill="#f8f8f8" transform="translate(104.6334072780744, -25.599765132331754) scale(0.8333333333333334) translate(-36, -24)" style="transform:matrix(0.833333, 0, 0, 0.833333, 74.6334, -45.5998);animation-play-state:paused" ></path></g>
<g transform="matrix(1,0,0,1,0,0)" style="transform:matrix(1, 0, 0, 1, 0, 0);animation-play-state:paused" ><path d="M94.6,56.2c-1-4.2-3.7-7.6-7.2-9.5c1.6-1.7,2.7-4.1,2.7-6.7c0-5.4-4.4-9.7-9.7-9.7c-3.2,0-6.1,1.6-7.8,4 c-2.5-4.5-7.3-7.6-12.8-7.6c-3.4,0-6.4,1.1-8.9,3.1c-2.4-4.7-7.3-7.9-13-7.9c-5.6,0-10.5,3.2-12.9,7.8c-1.3-0.3-2.7-0.6-4.1-0.6 C12.1,29.1,5,36.1,5,44.9c0,6,3.4,11.3,8.3,13.9c-0.2,1.3-0.2,2.6,0.1,3.9c1.2,5.3,6.5,8.6,11.8,7.4c0.3-0.1,0.6-0.1,0.8-0.2 c2.9,6,9.6,9.5,16.4,8c5.5-1.3,9.6-5.5,10.9-10.6c2.8,1.3,6.1,1.7,9.4,1c1.8-0.4,3.4-1.1,4.8-2.1c3,5.7,9.6,9,16.2,7.5 C91.5,71.9,96.4,64,94.6,56.2z" fill="#f8f8f8" transform="translate(-151.3665927219256, 230.40023486766825) scale(0.8333333333333334) translate(-36, -24)" style="transform:matrix(0.833333, 0, 0, 0.833333, -181.367, 210.4);animation-play-state:paused" ></path></g>
<g transform="matrix(1,0,0,1,0,0)" style="transform:matrix(1, 0, 0, 1, 0, 0);animation-play-state:paused" ><path d="M94.6,56.2c-1-4.2-3.7-7.6-7.2-9.5c1.6-1.7,2.7-4.1,2.7-6.7c0-5.4-4.4-9.7-9.7-9.7c-3.2,0-6.1,1.6-7.8,4 c-2.5-4.5-7.3-7.6-12.8-7.6c-3.4,0-6.4,1.1-8.9,3.1c-2.4-4.7-7.3-7.9-13-7.9c-5.6,0-10.5,3.2-12.9,7.8c-1.3-0.3-2.7-0.6-4.1-0.6 C12.1,29.1,5,36.1,5,44.9c0,6,3.4,11.3,8.3,13.9c-0.2,1.3-0.2,2.6,0.1,3.9c1.2,5.3,6.5,8.6,11.8,7.4c0.3-0.1,0.6-0.1,0.8-0.2 c2.9,6,9.6,9.5,16.4,8c5.5-1.3,9.6-5.5,10.9-10.6c2.8,1.3,6.1,1.7,9.4,1c1.8-0.4,3.4-1.1,4.8-2.1c3,5.7,9.6,9,16.2,7.5 C91.5,71.9,96.4,64,94.6,56.2z" fill="#f8f8f8" transform="translate(-151.3665927219256, -25.599765132331754) scale(0.8333333333333334) translate(-36, -24)" style="transform:matrix(0.833333, 0, 0, 0.833333, -181.367, -45.5998);animation-play-state:paused" ></path></g>
<g transform="matrix(1,0,0,1,0,0)" style="transform:matrix(1, 0, 0, 1, 0, 0);animation-play-state:paused" ><path d="M85.3,55.6c0.3-1.1,0.5-2.2,0.6-3.4c0.5-8.5-6-15.7-14.5-16.2c-2.1-0.1-4.2,0.2-6,0.9c-1.5-8.9-9-16-18.4-16.5 C36.1,19.7,26.8,28,26.2,38.9c-0.1,1.1,0,2.3,0.1,3.3c-6.3,0.1-11.6,5-11.9,11.4c0,0.8,0,1.5,0.1,2.2c-0.3,0-0.5-0.1-0.8-0.1 C9.2,55.6,5.3,59,5,63.6s3.2,8.4,7.8,8.7c0.8,0,1.5,0,2.2-0.2c2.5,2.9,8,5.1,14.6,5.5c3.7,0.2,7.2-0.2,10-1.1 c1.7,1.8,4.3,3.1,7.3,3.2c4,0.2,7.5-1.6,9.3-4.3c2.1,1,4.6,1.7,7.4,1.9c4.5,0.3,8.6-1,11.1-3c2,1.7,4.6,2.8,7.6,3 C89,77.6,94.6,73,95,67C95.3,61.5,91.1,56.7,85.3,55.6z" fill="#f0f0f0" transform="translate(256.6352098465603, 113.59181491430098) scale(1) translate(-36, -24)" style="transform:matrix(1, 0, 0, 1, 220.635, 89.5918);animation-play-state:paused" ></path></g>
<g transform="matrix(1,0,0,1,0,0)" style="transform:matrix(1, 0, 0, 1, 0, 0);animation-play-state:paused" ><path d="M85.3,55.6c0.3-1.1,0.5-2.2,0.6-3.4c0.5-8.5-6-15.7-14.5-16.2c-2.1-0.1-4.2,0.2-6,0.9c-1.5-8.9-9-16-18.4-16.5 C36.1,19.7,26.8,28,26.2,38.9c-0.1,1.1,0,2.3,0.1,3.3c-6.3,0.1-11.6,5-11.9,11.4c0,0.8,0,1.5,0.1,2.2c-0.3,0-0.5-0.1-0.8-0.1 C9.2,55.6,5.3,59,5,63.6s3.2,8.4,7.8,8.7c0.8,0,1.5,0,2.2-0.2c2.5,2.9,8,5.1,14.6,5.5c3.7,0.2,7.2-0.2,10-1.1 c1.7,1.8,4.3,3.1,7.3,3.2c4,0.2,7.5-1.6,9.3-4.3c2.1,1,4.6,1.7,7.4,1.9c4.5,0.3,8.6-1,11.1-3c2,1.7,4.6,2.8,7.6,3 C89,77.6,94.6,73,95,67C95.3,61.5,91.1,56.7,85.3,55.6z" fill="#f0f0f0" transform="translate(0.6352098465603149, 113.59181491430098) scale(1) translate(-36, -24)" style="transform:matrix(1, 0, 0, 1, -35.3648, 89.5918);animation-play-state:paused" ></path></g>
<g transform="matrix(1,0,0,1,0,0)" style="transform:matrix(1, 0, 0, 1, 0, 0);animation-play-state:paused" ><path d="M85.3,55.6c0.3-1.1,0.5-2.2,0.6-3.4c0.5-8.5-6-15.7-14.5-16.2c-2.1-0.1-4.2,0.2-6,0.9c-1.5-8.9-9-16-18.4-16.5 C36.1,19.7,26.8,28,26.2,38.9c-0.1,1.1,0,2.3,0.1,3.3c-6.3,0.1-11.6,5-11.9,11.4c0,0.8,0,1.5,0.1,2.2c-0.3,0-0.5-0.1-0.8-0.1 C9.2,55.6,5.3,59,5,63.6s3.2,8.4,7.8,8.7c0.8,0,1.5,0,2.2-0.2c2.5,2.9,8,5.1,14.6,5.5c3.7,0.2,7.2-0.2,10-1.1 c1.7,1.8,4.3,3.1,7.3,3.2c4,0.2,7.5-1.6,9.3-4.3c2.1,1,4.6,1.7,7.4,1.9c4.5,0.3,8.6-1,11.1-3c2,1.7,4.6,2.8,7.6,3 C89,77.6,94.6,73,95,67C95.3,61.5,91.1,56.7,85.3,55.6z" fill="#f0f0f0" transform="translate(-255.36479015343969, 113.59181491430098) scale(1) translate(-36, -24)" style="transform:matrix(1, 0, 0, 1, -291.365, 89.5918);animation-play-state:paused" ></path></g>
<g transform="matrix(1,0,0,1,0,0)" style="transform:matrix(1, 0, 0, 1, 0, 0);animation-play-state:paused" ><path d="M95,62.4c-0.5-5.9-5.7-10.3-11.9-10.5c0-0.6,0-1.2,0-1.8c-0.7-7.6-7.9-13.1-16.1-12.4c-0.9,0.1-1.9,0.3-2.7,0.5 c0-0.1,0-0.2,0-0.2c-1-10.9-10.7-19-21.6-18c-9.8,0.9-17.3,8.8-18,18.3C12.8,39.5,4.1,49.2,5.1,60C6.1,71,16.5,79,28.4,77.9 c3.4-0.3,6.4-1.3,9.2-2.8c5,3.7,12.4,5.7,20.5,4.9c6.9-0.6,13.1-3.2,17.3-6.8c2.3,1.4,5.2,2.2,8.2,1.9C90.4,74.4,95.5,68.8,95,62.4z" fill="#f0f0f0" transform="translate(92.96451351223897, 15.203129092925451) scale(1) translate(-36, -24)" style="transform:matrix(1, 0, 0, 1, 56.9645, -8.79687);animation-play-state:paused" ></path></g>
<g transform="matrix(1,0,0,1,0,0)" style="transform:matrix(1, 0, 0, 1, 0, 0);animation-play-state:paused" ><path d="M95,62.4c-0.5-5.9-5.7-10.3-11.9-10.5c0-0.6,0-1.2,0-1.8c-0.7-7.6-7.9-13.1-16.1-12.4c-0.9,0.1-1.9,0.3-2.7,0.5 c0-0.1,0-0.2,0-0.2c-1-10.9-10.7-19-21.6-18c-9.8,0.9-17.3,8.8-18,18.3C12.8,39.5,4.1,49.2,5.1,60C6.1,71,16.5,79,28.4,77.9 c3.4-0.3,6.4-1.3,9.2-2.8c5,3.7,12.4,5.7,20.5,4.9c6.9-0.6,13.1-3.2,17.3-6.8c2.3,1.4,5.2,2.2,8.2,1.9C90.4,74.4,95.5,68.8,95,62.4z" fill="#f0f0f0" transform="translate(92.96451351223897, 271.20312909292545) scale(1) translate(-36, -24)" style="transform:matrix(1, 0, 0, 1, 56.9645, 247.203);animation-play-state:paused" ></path></g>
<g transform="matrix(1,0,0,1,0,0)" style="transform:matrix(1, 0, 0, 1, 0, 0);animation-play-state:paused" ><path d="M95,62.4c-0.5-5.9-5.7-10.3-11.9-10.5c0-0.6,0-1.2,0-1.8c-0.7-7.6-7.9-13.1-16.1-12.4c-0.9,0.1-1.9,0.3-2.7,0.5 c0-0.1,0-0.2,0-0.2c-1-10.9-10.7-19-21.6-18c-9.8,0.9-17.3,8.8-18,18.3C12.8,39.5,4.1,49.2,5.1,60C6.1,71,16.5,79,28.4,77.9 c3.4-0.3,6.4-1.3,9.2-2.8c5,3.7,12.4,5.7,20.5,4.9c6.9-0.6,13.1-3.2,17.3-6.8c2.3,1.4,5.2,2.2,8.2,1.9C90.4,74.4,95.5,68.8,95,62.4z" fill="#f0f0f0" transform="translate(-163.03548648776103, 15.203129092925451) scale(1) translate(-36, -24)" style="transform:matrix(1, 0, 0, 1, -199.036, -8.79687);animation-play-state:paused" ></path></g>
<g transform="matrix(1,0,0,1,0,0)" style="transform:matrix(1, 0, 0, 1, 0, 0);animation-play-state:paused" ><path d="M95,62.4c-0.5-5.9-5.7-10.3-11.9-10.5c0-0.6,0-1.2,0-1.8c-0.7-7.6-7.9-13.1-16.1-12.4c-0.9,0.1-1.9,0.3-2.7,0.5 c0-0.1,0-0.2,0-0.2c-1-10.9-10.7-19-21.6-18c-9.8,0.9-17.3,8.8-18,18.3C12.8,39.5,4.1,49.2,5.1,60C6.1,71,16.5,79,28.4,77.9 c3.4-0.3,6.4-1.3,9.2-2.8c5,3.7,12.4,5.7,20.5,4.9c6.9-0.6,13.1-3.2,17.3-6.8c2.3,1.4,5.2,2.2,8.2,1.9C90.4,74.4,95.5,68.8,95,62.4z" fill="#f0f0f0" transform="translate(-163.03548648776103, 271.20312909292545) scale(1) translate(-36, -24)" style="transform:matrix(1, 0, 0, 1, -199.036, 247.203);animation-play-state:paused" ></path></g>
<g transform="matrix(1,0,0,1,0,0)" style="transform:matrix(1, 0, 0, 1, 0, 0);animation-play-state:paused" ><path d="M95,62.1c0-7.9-5.6-14.5-13.1-15.9C82,45.4,82,44.7,82,44c0-12.3-10-22.3-22.3-22.3c-9.5,0-17.7,6-20.8,14.4 c-1.2-0.3-2.4-0.5-3.7-0.5c-7.6,0-13.8,5.9-14.3,13.3c-0.9-0.2-1.9-0.3-2.8-0.3c-7.2,0-13,5.8-13,13c0,4.8,2.6,9,6.5,11.2 c0,0.1,0,0.1,0,0.2c0,4.7,3.8,8.5,8.5,8.5c2.7,0,5.1-1.3,6.7-3.2c0.1,0,0.2,0,0.3,0h10.4c2.4,2,5.4,3.2,8.7,3.2s6.4-1.2,8.7-3.2h0.2 c3.3,3.8,8.2,6.2,13.6,6.2c5.6,0,10.7-2.6,14-6.6C89.6,76.2,95,69.8,95,62.1z" fill="#f0f0f0" transform="translate(165.94555547125503, 181.91824712477836) scale(1) translate(-36, -24)" style="transform:matrix(1, 0, 0, 1, 129.946, 157.918);animation-play-state:paused" ></path></g>
<g transform="matrix(1,0,0,1,0,0)" style="transform:matrix(1, 0, 0, 1, 0, 0);animation-play-state:paused" ><path d="M95,62.1c0-7.9-5.6-14.5-13.1-15.9C82,45.4,82,44.7,82,44c0-12.3-10-22.3-22.3-22.3c-9.5,0-17.7,6-20.8,14.4 c-1.2-0.3-2.4-0.5-3.7-0.5c-7.6,0-13.8,5.9-14.3,13.3c-0.9-0.2-1.9-0.3-2.8-0.3c-7.2,0-13,5.8-13,13c0,4.8,2.6,9,6.5,11.2 c0,0.1,0,0.1,0,0.2c0,4.7,3.8,8.5,8.5,8.5c2.7,0,5.1-1.3,6.7-3.2c0.1,0,0.2,0,0.3,0h10.4c2.4,2,5.4,3.2,8.7,3.2s6.4-1.2,8.7-3.2h0.2 c3.3,3.8,8.2,6.2,13.6,6.2c5.6,0,10.7-2.6,14-6.6C89.6,76.2,95,69.8,95,62.1z" fill="#f0f0f0" transform="translate(-90.05444452874497, 181.91824712477836) scale(1) translate(-36, -24)" style="transform:matrix(1, 0, 0, 1, -126.054, 157.918);animation-play-state:paused" ></path></g>
<g transform="matrix(1,0,0,1,0,0)" style="transform:matrix(1, 0, 0, 1, 0, 0);animation-play-state:paused" ><path d="M94.6,56.2c-1-4.2-3.7-7.6-7.2-9.5c1.6-1.7,2.7-4.1,2.7-6.7c0-5.4-4.4-9.7-9.7-9.7c-3.2,0-6.1,1.6-7.8,4 c-2.5-4.5-7.3-7.6-12.8-7.6c-3.4,0-6.4,1.1-8.9,3.1c-2.4-4.7-7.3-7.9-13-7.9c-5.6,0-10.5,3.2-12.9,7.8c-1.3-0.3-2.7-0.6-4.1-0.6 C12.1,29.1,5,36.1,5,44.9c0,6,3.4,11.3,8.3,13.9c-0.2,1.3-0.2,2.6,0.1,3.9c1.2,5.3,6.5,8.6,11.8,7.4c0.3-0.1,0.6-0.1,0.8-0.2 c2.9,6,9.6,9.5,16.4,8c5.5-1.3,9.6-5.5,10.9-10.6c2.8,1.3,6.1,1.7,9.4,1c1.8-0.4,3.4-1.1,4.8-2.1c3,5.7,9.6,9,16.2,7.5 C91.5,71.9,96.4,64,94.6,56.2z" fill="#f0f0f0" transform="translate(213.93578409711057, 88.83176336449822) scale(1) translate(-36, -24)" style="transform:matrix(1, 0, 0, 1, 177.936, 64.8318);animation-play-state:paused" ></path></g>
<g transform="matrix(1,0,0,1,0,0)" style="transform:matrix(1, 0, 0, 1, 0, 0);animation-play-state:paused" ><path d="M94.6,56.2c-1-4.2-3.7-7.6-7.2-9.5c1.6-1.7,2.7-4.1,2.7-6.7c0-5.4-4.4-9.7-9.7-9.7c-3.2,0-6.1,1.6-7.8,4 c-2.5-4.5-7.3-7.6-12.8-7.6c-3.4,0-6.4,1.1-8.9,3.1c-2.4-4.7-7.3-7.9-13-7.9c-5.6,0-10.5,3.2-12.9,7.8c-1.3-0.3-2.7-0.6-4.1-0.6 C12.1,29.1,5,36.1,5,44.9c0,6,3.4,11.3,8.3,13.9c-0.2,1.3-0.2,2.6,0.1,3.9c1.2,5.3,6.5,8.6,11.8,7.4c0.3-0.1,0.6-0.1,0.8-0.2 c2.9,6,9.6,9.5,16.4,8c5.5-1.3,9.6-5.5,10.9-10.6c2.8,1.3,6.1,1.7,9.4,1c1.8-0.4,3.4-1.1,4.8-2.1c3,5.7,9.6,9,16.2,7.5 C91.5,71.9,96.4,64,94.6,56.2z" fill="#f0f0f0" transform="translate(-42.06421590288943, 88.83176336449822) scale(1) translate(-36, -24)" style="transform:matrix(1, 0, 0, 1, -78.0642, 64.8318);animation-play-state:paused" ></path></g>
<g transform="matrix(1,0,0,1,0,0)" style="transform:matrix(1, 0, 0, 1, 0, 0);animation-play-state:paused" ><path d="M85.3,55.6c0.3-1.1,0.5-2.2,0.6-3.4c0.5-8.5-6-15.7-14.5-16.2c-2.1-0.1-4.2,0.2-6,0.9c-1.5-8.9-9-16-18.4-16.5 C36.1,19.7,26.8,28,26.2,38.9c-0.1,1.1,0,2.3,0.1,3.3c-6.3,0.1-11.6,5-11.9,11.4c0,0.8,0,1.5,0.1,2.2c-0.3,0-0.5-0.1-0.8-0.1 C9.2,55.6,5.3,59,5,63.6s3.2,8.4,7.8,8.7c0.8,0,1.5,0,2.2-0.2c2.5,2.9,8,5.1,14.6,5.5c3.7,0.2,7.2-0.2,10-1.1 c1.7,1.8,4.3,3.1,7.3,3.2c4,0.2,7.5-1.6,9.3-4.3c2.1,1,4.6,1.7,7.4,1.9c4.5,0.3,8.6-1,11.1-3c2,1.7,4.6,2.8,7.6,3 C89,77.6,94.6,73,95,67C95.3,61.5,91.1,56.7,85.3,55.6z" fill="#f0f0f0" transform="translate(42.23729408140974, 98.48028762015088) scale(1) translate(-36, -24)" style="transform:matrix(1, 0, 0, 1, 6.23729, 74.4803);animation-play-state:paused" ></path></g>
<g transform="matrix(1,0,0,1,0,0)" style="transform:matrix(1, 0, 0, 1, 0, 0);animation-play-state:paused" ><path d="M85.3,55.6c0.3-1.1,0.5-2.2,0.6-3.4c0.5-8.5-6-15.7-14.5-16.2c-2.1-0.1-4.2,0.2-6,0.9c-1.5-8.9-9-16-18.4-16.5 C36.1,19.7,26.8,28,26.2,38.9c-0.1,1.1,0,2.3,0.1,3.3c-6.3,0.1-11.6,5-11.9,11.4c0,0.8,0,1.5,0.1,2.2c-0.3,0-0.5-0.1-0.8-0.1 C9.2,55.6,5.3,59,5,63.6s3.2,8.4,7.8,8.7c0.8,0,1.5,0,2.2-0.2c2.5,2.9,8,5.1,14.6,5.5c3.7,0.2,7.2-0.2,10-1.1 c1.7,1.8,4.3,3.1,7.3,3.2c4,0.2,7.5-1.6,9.3-4.3c2.1,1,4.6,1.7,7.4,1.9c4.5,0.3,8.6-1,11.1-3c2,1.7,4.6,2.8,7.6,3 C89,77.6,94.6,73,95,67C95.3,61.5,91.1,56.7,85.3,55.6z" fill="#f0f0f0" transform="translate(-213.76270591859026, 98.48028762015088) scale(1) translate(-36, -24)" style="transform:matrix(1, 0, 0, 1, -249.763, 74.4803);animation-play-state:paused" ></path></g>
<g transform="matrix(1,0,0,1,0,0)" style="transform:matrix(1, 0, 0, 1, 0, 0);animation-play-state:paused" ><path d="M95,62.4c-0.5-5.9-5.7-10.3-11.9-10.5c0-0.6,0-1.2,0-1.8c-0.7-7.6-7.9-13.1-16.1-12.4c-0.9,0.1-1.9,0.3-2.7,0.5 c0-0.1,0-0.2,0-0.2c-1-10.9-10.7-19-21.6-18c-9.8,0.9-17.3,8.8-18,18.3C12.8,39.5,4.1,49.2,5.1,60C6.1,71,16.5,79,28.4,77.9 c3.4-0.3,6.4-1.3,9.2-2.8c5,3.7,12.4,5.7,20.5,4.9c6.9-0.6,13.1-3.2,17.3-6.8c2.3,1.4,5.2,2.2,8.2,1.9C90.4,74.4,95.5,68.8,95,62.4z" fill="#f0f0f0" transform="translate(287.61182687935064, 207.91289354108648) scale(1) translate(-36, -24)" style="transform:matrix(1, 0, 0, 1, 251.612, 183.913);animation-play-state:paused" ></path></g>
<g transform="matrix(1,0,0,1,0,0)" style="transform:matrix(1, 0, 0, 1, 0, 0);animation-play-state:paused" ><path d="M95,62.4c-0.5-5.9-5.7-10.3-11.9-10.5c0-0.6,0-1.2,0-1.8c-0.7-7.6-7.9-13.1-16.1-12.4c-0.9,0.1-1.9,0.3-2.7,0.5 c0-0.1,0-0.2,0-0.2c-1-10.9-10.7-19-21.6-18c-9.8,0.9-17.3,8.8-18,18.3C12.8,39.5,4.1,49.2,5.1,60C6.1,71,16.5,79,28.4,77.9 c3.4-0.3,6.4-1.3,9.2-2.8c5,3.7,12.4,5.7,20.5,4.9c6.9-0.6,13.1-3.2,17.3-6.8c2.3,1.4,5.2,2.2,8.2,1.9C90.4,74.4,95.5,68.8,95,62.4z" fill="#f0f0f0" transform="translate(31.611826879350645, 207.91289354108648) scale(1) translate(-36, -24)" style="transform:matrix(1, 0, 0, 1, -4.38817, 183.913);animation-play-state:paused" ></path></g>
<g transform="matrix(1,0,0,1,0,0)" style="transform:matrix(1, 0, 0, 1, 0, 0);animation-play-state:paused" ><path d="M95,62.4c-0.5-5.9-5.7-10.3-11.9-10.5c0-0.6,0-1.2,0-1.8c-0.7-7.6-7.9-13.1-16.1-12.4c-0.9,0.1-1.9,0.3-2.7,0.5 c0-0.1,0-0.2,0-0.2c-1-10.9-10.7-19-21.6-18c-9.8,0.9-17.3,8.8-18,18.3C12.8,39.5,4.1,49.2,5.1,60C6.1,71,16.5,79,28.4,77.9 c3.4-0.3,6.4-1.3,9.2-2.8c5,3.7,12.4,5.7,20.5,4.9c6.9-0.6,13.1-3.2,17.3-6.8c2.3,1.4,5.2,2.2,8.2,1.9C90.4,74.4,95.5,68.8,95,62.4z" fill="#f0f0f0" transform="translate(-224.38817312064936, 207.91289354108648) scale(1) translate(-36, -24)" style="transform:matrix(1, 0, 0, 1, -260.388, 183.913);animation-play-state:paused" ></path></g>
<g transform="matrix(1,0,0,1,0,0)" style="transform:matrix(1, 0, 0, 1, 0, 0);animation-play-state:paused" ><path d="M95,62.1c0-7.9-5.6-14.5-13.1-15.9C82,45.4,82,44.7,82,44c0-12.3-10-22.3-22.3-22.3c-9.5,0-17.7,6-20.8,14.4 c-1.2-0.3-2.4-0.5-3.7-0.5c-7.6,0-13.8,5.9-14.3,13.3c-0.9-0.2-1.9-0.3-2.8-0.3c-7.2,0-13,5.8-13,13c0,4.8,2.6,9,6.5,11.2 c0,0.1,0,0.1,0,0.2c0,4.7,3.8,8.5,8.5,8.5c2.7,0,5.1-1.3,6.7-3.2c0.1,0,0.2,0,0.3,0h10.4c2.4,2,5.4,3.2,8.7,3.2s6.4-1.2,8.7-3.2h0.2 c3.3,3.8,8.2,6.2,13.6,6.2c5.6,0,10.7-2.6,14-6.6C89.6,76.2,95,69.8,95,62.1z" fill="#f0f0f0" transform="translate(40.264342333568834, 1.5079009721202965) scale(1) translate(-36, -24)" style="transform:matrix(1, 0, 0, 1, 4.26434, -22.4921);animation-play-state:paused" ></path></g>
<g transform="matrix(1,0,0,1,0,0)" style="transform:matrix(1, 0, 0, 1, 0, 0);animation-play-state:paused" ><path d="M95,62.1c0-7.9-5.6-14.5-13.1-15.9C82,45.4,82,44.7,82,44c0-12.3-10-22.3-22.3-22.3c-9.5,0-17.7,6-20.8,14.4 c-1.2-0.3-2.4-0.5-3.7-0.5c-7.6,0-13.8,5.9-14.3,13.3c-0.9-0.2-1.9-0.3-2.8-0.3c-7.2,0-13,5.8-13,13c0,4.8,2.6,9,6.5,11.2 c0,0.1,0,0.1,0,0.2c0,4.7,3.8,8.5,8.5,8.5c2.7,0,5.1-1.3,6.7-3.2c0.1,0,0.2,0,0.3,0h10.4c2.4,2,5.4,3.2,8.7,3.2s6.4-1.2,8.7-3.2h0.2 c3.3,3.8,8.2,6.2,13.6,6.2c5.6,0,10.7-2.6,14-6.6C89.6,76.2,95,69.8,95,62.1z" fill="#f0f0f0" transform="translate(40.264342333568834, 257.5079009721203) scale(1) translate(-36, -24)" style="transform:matrix(1, 0, 0, 1, 4.26434, 233.508);animation-play-state:paused" ></path></g>
<g transform="matrix(1,0,0,1,0,0)" style="transform:matrix(1, 0, 0, 1, 0, 0);animation-play-state:paused" ><path d="M95,62.1c0-7.9-5.6-14.5-13.1-15.9C82,45.4,82,44.7,82,44c0-12.3-10-22.3-22.3-22.3c-9.5,0-17.7,6-20.8,14.4 c-1.2-0.3-2.4-0.5-3.7-0.5c-7.6,0-13.8,5.9-14.3,13.3c-0.9-0.2-1.9-0.3-2.8-0.3c-7.2,0-13,5.8-13,13c0,4.8,2.6,9,6.5,11.2 c0,0.1,0,0.1,0,0.2c0,4.7,3.8,8.5,8.5,8.5c2.7,0,5.1-1.3,6.7-3.2c0.1,0,0.2,0,0.3,0h10.4c2.4,2,5.4,3.2,8.7,3.2s6.4-1.2,8.7-3.2h0.2 c3.3,3.8,8.2,6.2,13.6,6.2c5.6,0,10.7-2.6,14-6.6C89.6,76.2,95,69.8,95,62.1z" fill="#f0f0f0" transform="translate(-215.73565766643117, 1.5079009721202965) scale(1) translate(-36, -24)" style="transform:matrix(1, 0, 0, 1, -251.736, -22.4921);animation-play-state:paused" ></path></g>
<g transform="matrix(1,0,0,1,0,0)" style="transform:matrix(1, 0, 0, 1, 0, 0);animation-play-state:paused" ><path d="M95,62.1c0-7.9-5.6-14.5-13.1-15.9C82,45.4,82,44.7,82,44c0-12.3-10-22.3-22.3-22.3c-9.5,0-17.7,6-20.8,14.4 c-1.2-0.3-2.4-0.5-3.7-0.5c-7.6,0-13.8,5.9-14.3,13.3c-0.9-0.2-1.9-0.3-2.8-0.3c-7.2,0-13,5.8-13,13c0,4.8,2.6,9,6.5,11.2 c0,0.1,0,0.1,0,0.2c0,4.7,3.8,8.5,8.5,8.5c2.7,0,5.1-1.3,6.7-3.2c0.1,0,0.2,0,0.3,0h10.4c2.4,2,5.4,3.2,8.7,3.2s6.4-1.2,8.7-3.2h0.2 c3.3,3.8,8.2,6.2,13.6,6.2c5.6,0,10.7-2.6,14-6.6C89.6,76.2,95,69.8,95,62.1z" fill="#f0f0f0" transform="translate(-215.73565766643117, 257.5079009721203) scale(1) translate(-36, -24)" style="transform:matrix(1, 0, 0, 1, -251.736, 233.508);animation-play-state:paused" ></path></g>
<g transform="matrix(1,0,0,1,0,0)" style="transform:matrix(1, 0, 0, 1, 0, 0);animation-play-state:paused" ><path d="M94.6,56.2c-1-4.2-3.7-7.6-7.2-9.5c1.6-1.7,2.7-4.1,2.7-6.7c0-5.4-4.4-9.7-9.7-9.7c-3.2,0-6.1,1.6-7.8,4 c-2.5-4.5-7.3-7.6-12.8-7.6c-3.4,0-6.4,1.1-8.9,3.1c-2.4-4.7-7.3-7.9-13-7.9c-5.6,0-10.5,3.2-12.9,7.8c-1.3-0.3-2.7-0.6-4.1-0.6 C12.1,29.1,5,36.1,5,44.9c0,6,3.4,11.3,8.3,13.9c-0.2,1.3-0.2,2.6,0.1,3.9c1.2,5.3,6.5,8.6,11.8,7.4c0.3-0.1,0.6-0.1,0.8-0.2 c2.9,6,9.6,9.5,16.4,8c5.5-1.3,9.6-5.5,10.9-10.6c2.8,1.3,6.1,1.7,9.4,1c1.8-0.4,3.4-1.1,4.8-2.1c3,5.7,9.6,9,16.2,7.5 C91.5,71.9,96.4,64,94.6,56.2z" fill="#ebebeb" transform="translate(209.58380035533838, 89.37925832999656) scale(1.1666666666666667) translate(-36, -24)" style="transform:matrix(1.16667, 0, 0, 1.16667, 167.584, 61.3793);animation-play-state:paused" ></path></g>
<g transform="matrix(1,0,0,1,0,0)" style="transform:matrix(1, 0, 0, 1, 0, 0);animation-play-state:paused" ><path d="M94.6,56.2c-1-4.2-3.7-7.6-7.2-9.5c1.6-1.7,2.7-4.1,2.7-6.7c0-5.4-4.4-9.7-9.7-9.7c-3.2,0-6.1,1.6-7.8,4 c-2.5-4.5-7.3-7.6-12.8-7.6c-3.4,0-6.4,1.1-8.9,3.1c-2.4-4.7-7.3-7.9-13-7.9c-5.6,0-10.5,3.2-12.9,7.8c-1.3-0.3-2.7-0.6-4.1-0.6 C12.1,29.1,5,36.1,5,44.9c0,6,3.4,11.3,8.3,13.9c-0.2,1.3-0.2,2.6,0.1,3.9c1.2,5.3,6.5,8.6,11.8,7.4c0.3-0.1,0.6-0.1,0.8-0.2 c2.9,6,9.6,9.5,16.4,8c5.5-1.3,9.6-5.5,10.9-10.6c2.8,1.3,6.1,1.7,9.4,1c1.8-0.4,3.4-1.1,4.8-2.1c3,5.7,9.6,9,16.2,7.5 C91.5,71.9,96.4,64,94.6,56.2z" fill="#ebebeb" transform="translate(-46.41619964466162, 89.37925832999656) scale(1.1666666666666667) translate(-36, -24)" style="transform:matrix(1.16667, 0, 0, 1.16667, -88.4162, 61.3793);animation-play-state:paused" ></path></g>
<g transform="matrix(1,0,0,1,0,0)" style="transform:matrix(1, 0, 0, 1, 0, 0);animation-play-state:paused" ><path d="M85.3,55.6c0.3-1.1,0.5-2.2,0.6-3.4c0.5-8.5-6-15.7-14.5-16.2c-2.1-0.1-4.2,0.2-6,0.9c-1.5-8.9-9-16-18.4-16.5 C36.1,19.7,26.8,28,26.2,38.9c-0.1,1.1,0,2.3,0.1,3.3c-6.3,0.1-11.6,5-11.9,11.4c0,0.8,0,1.5,0.1,2.2c-0.3,0-0.5-0.1-0.8-0.1 C9.2,55.6,5.3,59,5,63.6s3.2,8.4,7.8,8.7c0.8,0,1.5,0,2.2-0.2c2.5,2.9,8,5.1,14.6,5.5c3.7,0.2,7.2-0.2,10-1.1 c1.7,1.8,4.3,3.1,7.3,3.2c4,0.2,7.5-1.6,9.3-4.3c2.1,1,4.6,1.7,7.4,1.9c4.5,0.3,8.6-1,11.1-3c2,1.7,4.6,2.8,7.6,3 C89,77.6,94.6,73,95,67C95.3,61.5,91.1,56.7,85.3,55.6z" fill="#ebebeb" transform="translate(97.52883642318437, 61.182190630960804) scale(1.1666666666666667) translate(-36, -24)" style="transform:matrix(1.16667, 0, 0, 1.16667, 55.5288, 33.1822);animation-play-state:paused" ></path></g>
<g transform="matrix(1,0,0,1,0,0)" style="transform:matrix(1, 0, 0, 1, 0, 0);animation-play-state:paused" ><path d="M85.3,55.6c0.3-1.1,0.5-2.2,0.6-3.4c0.5-8.5-6-15.7-14.5-16.2c-2.1-0.1-4.2,0.2-6,0.9c-1.5-8.9-9-16-18.4-16.5 C36.1,19.7,26.8,28,26.2,38.9c-0.1,1.1,0,2.3,0.1,3.3c-6.3,0.1-11.6,5-11.9,11.4c0,0.8,0,1.5,0.1,2.2c-0.3,0-0.5-0.1-0.8-0.1 C9.2,55.6,5.3,59,5,63.6s3.2,8.4,7.8,8.7c0.8,0,1.5,0,2.2-0.2c2.5,2.9,8,5.1,14.6,5.5c3.7,0.2,7.2-0.2,10-1.1 c1.7,1.8,4.3,3.1,7.3,3.2c4,0.2,7.5-1.6,9.3-4.3c2.1,1,4.6,1.7,7.4,1.9c4.5,0.3,8.6-1,11.1-3c2,1.7,4.6,2.8,7.6,3 C89,77.6,94.6,73,95,67C95.3,61.5,91.1,56.7,85.3,55.6z" fill="#ebebeb" transform="translate(-158.47116357681563, 61.182190630960804) scale(1.1666666666666667) translate(-36, -24)" style="transform:matrix(1.16667, 0, 0, 1.16667, -200.471, 33.1822);animation-play-state:paused" ></path></g>
<g transform="matrix(1,0,0,1,0,0)" style="transform:matrix(1, 0, 0, 1, 0, 0);animation-play-state:paused" ><path d="M95,62.4c-0.5-5.9-5.7-10.3-11.9-10.5c0-0.6,0-1.2,0-1.8c-0.7-7.6-7.9-13.1-16.1-12.4c-0.9,0.1-1.9,0.3-2.7,0.5 c0-0.1,0-0.2,0-0.2c-1-10.9-10.7-19-21.6-18c-9.8,0.9-17.3,8.8-18,18.3C12.8,39.5,4.1,49.2,5.1,60C6.1,71,16.5,79,28.4,77.9 c3.4-0.3,6.4-1.3,9.2-2.8c5,3.7,12.4,5.7,20.5,4.9c6.9-0.6,13.1-3.2,17.3-6.8c2.3,1.4,5.2,2.2,8.2,1.9C90.4,74.4,95.5,68.8,95,62.4z" fill="#ebebeb" transform="translate(122.28442846296053, 124.90726417958939) scale(1.1666666666666667) translate(-36, -24)" style="transform:matrix(1.16667, 0, 0, 1.16667, 80.2844, 96.9073);animation-play-state:paused" ></path></g>
<g transform="matrix(1,0,0,1,0,0)" style="transform:matrix(1, 0, 0, 1, 0, 0);animation-play-state:paused" ><path d="M95,62.4c-0.5-5.9-5.7-10.3-11.9-10.5c0-0.6,0-1.2,0-1.8c-0.7-7.6-7.9-13.1-16.1-12.4c-0.9,0.1-1.9,0.3-2.7,0.5 c0-0.1,0-0.2,0-0.2c-1-10.9-10.7-19-21.6-18c-9.8,0.9-17.3,8.8-18,18.3C12.8,39.5,4.1,49.2,5.1,60C6.1,71,16.5,79,28.4,77.9 c3.4-0.3,6.4-1.3,9.2-2.8c5,3.7,12.4,5.7,20.5,4.9c6.9-0.6,13.1-3.2,17.3-6.8c2.3,1.4,5.2,2.2,8.2,1.9C90.4,74.4,95.5,68.8,95,62.4z" fill="#ebebeb" transform="translate(-133.71557153703947, 124.90726417958939) scale(1.1666666666666667) translate(-36, -24)" style="transform:matrix(1.16667, 0, 0, 1.16667, -175.716, 96.9073);animation-play-state:paused" ></path></g>
<g transform="matrix(1,0,0,1,0,0)" style="transform:matrix(1, 0, 0, 1, 0, 0);animation-play-state:paused" ><path d="M95,62.1c0-7.9-5.6-14.5-13.1-15.9C82,45.4,82,44.7,82,44c0-12.3-10-22.3-22.3-22.3c-9.5,0-17.7,6-20.8,14.4 c-1.2-0.3-2.4-0.5-3.7-0.5c-7.6,0-13.8,5.9-14.3,13.3c-0.9-0.2-1.9-0.3-2.8-0.3c-7.2,0-13,5.8-13,13c0,4.8,2.6,9,6.5,11.2 c0,0.1,0,0.1,0,0.2c0,4.7,3.8,8.5,8.5,8.5c2.7,0,5.1-1.3,6.7-3.2c0.1,0,0.2,0,0.3,0h10.4c2.4,2,5.4,3.2,8.7,3.2s6.4-1.2,8.7-3.2h0.2 c3.3,3.8,8.2,6.2,13.6,6.2c5.6,0,10.7-2.6,14-6.6C89.6,76.2,95,69.8,95,62.1z" fill="#ebebeb" transform="translate(263.4039613939739, 47.65226223037297) scale(1.1666666666666667) translate(-36, -24)" style="transform:matrix(1.16667, 0, 0, 1.16667, 221.404, 19.6523);animation-play-state:paused" ></path></g>
<g transform="matrix(1,0,0,1,0,0)" style="transform:matrix(1, 0, 0, 1, 0, 0);animation-play-state:paused" ><path d="M95,62.1c0-7.9-5.6-14.5-13.1-15.9C82,45.4,82,44.7,82,44c0-12.3-10-22.3-22.3-22.3c-9.5,0-17.7,6-20.8,14.4 c-1.2-0.3-2.4-0.5-3.7-0.5c-7.6,0-13.8,5.9-14.3,13.3c-0.9-0.2-1.9-0.3-2.8-0.3c-7.2,0-13,5.8-13,13c0,4.8,2.6,9,6.5,11.2 c0,0.1,0,0.1,0,0.2c0,4.7,3.8,8.5,8.5,8.5c2.7,0,5.1-1.3,6.7-3.2c0.1,0,0.2,0,0.3,0h10.4c2.4,2,5.4,3.2,8.7,3.2s6.4-1.2,8.7-3.2h0.2 c3.3,3.8,8.2,6.2,13.6,6.2c5.6,0,10.7-2.6,14-6.6C89.6,76.2,95,69.8,95,62.1z" fill="#ebebeb" transform="translate(263.4039613939739, 303.65226223037297) scale(1.1666666666666667) translate(-36, -24)" style="transform:matrix(1.16667, 0, 0, 1.16667, 221.404, 275.652);animation-play-state:paused" ></path></g>
<g transform="matrix(1,0,0,1,0,0)" style="transform:matrix(1, 0, 0, 1, 0, 0);animation-play-state:paused" ><path d="M95,62.1c0-7.9-5.6-14.5-13.1-15.9C82,45.4,82,44.7,82,44c0-12.3-10-22.3-22.3-22.3c-9.5,0-17.7,6-20.8,14.4 c-1.2-0.3-2.4-0.5-3.7-0.5c-7.6,0-13.8,5.9-14.3,13.3c-0.9-0.2-1.9-0.3-2.8-0.3c-7.2,0-13,5.8-13,13c0,4.8,2.6,9,6.5,11.2 c0,0.1,0,0.1,0,0.2c0,4.7,3.8,8.5,8.5,8.5c2.7,0,5.1-1.3,6.7-3.2c0.1,0,0.2,0,0.3,0h10.4c2.4,2,5.4,3.2,8.7,3.2s6.4-1.2,8.7-3.2h0.2 c3.3,3.8,8.2,6.2,13.6,6.2c5.6,0,10.7-2.6,14-6.6C89.6,76.2,95,69.8,95,62.1z" fill="#ebebeb" transform="translate(7.403961393973873, 47.65226223037297) scale(1.1666666666666667) translate(-36, -24)" style="transform:matrix(1.16667, 0, 0, 1.16667, -34.596, 19.6523);animation-play-state:paused" ></path></g>
<g transform="matrix(1,0,0,1,0,0)" style="transform:matrix(1, 0, 0, 1, 0, 0);animation-play-state:paused" ><path d="M95,62.1c0-7.9-5.6-14.5-13.1-15.9C82,45.4,82,44.7,82,44c0-12.3-10-22.3-22.3-22.3c-9.5,0-17.7,6-20.8,14.4 c-1.2-0.3-2.4-0.5-3.7-0.5c-7.6,0-13.8,5.9-14.3,13.3c-0.9-0.2-1.9-0.3-2.8-0.3c-7.2,0-13,5.8-13,13c0,4.8,2.6,9,6.5,11.2 c0,0.1,0,0.1,0,0.2c0,4.7,3.8,8.5,8.5,8.5c2.7,0,5.1-1.3,6.7-3.2c0.1,0,0.2,0,0.3,0h10.4c2.4,2,5.4,3.2,8.7,3.2s6.4-1.2,8.7-3.2h0.2 c3.3,3.8,8.2,6.2,13.6,6.2c5.6,0,10.7-2.6,14-6.6C89.6,76.2,95,69.8,95,62.1z" fill="#ebebeb" transform="translate(7.403961393973873, 303.65226223037297) scale(1.1666666666666667) translate(-36, -24)" style="transform:matrix(1.16667, 0, 0, 1.16667, -34.596, 275.652);animation-play-state:paused" ></path></g>
<g transform="matrix(1,0,0,1,0,0)" style="transform:matrix(1, 0, 0, 1, 0, 0);animation-play-state:paused" ><path d="M95,62.1c0-7.9-5.6-14.5-13.1-15.9C82,45.4,82,44.7,82,44c0-12.3-10-22.3-22.3-22.3c-9.5,0-17.7,6-20.8,14.4 c-1.2-0.3-2.4-0.5-3.7-0.5c-7.6,0-13.8,5.9-14.3,13.3c-0.9-0.2-1.9-0.3-2.8-0.3c-7.2,0-13,5.8-13,13c0,4.8,2.6,9,6.5,11.2 c0,0.1,0,0.1,0,0.2c0,4.7,3.8,8.5,8.5,8.5c2.7,0,5.1-1.3,6.7-3.2c0.1,0,0.2,0,0.3,0h10.4c2.4,2,5.4,3.2,8.7,3.2s6.4-1.2,8.7-3.2h0.2 c3.3,3.8,8.2,6.2,13.6,6.2c5.6,0,10.7-2.6,14-6.6C89.6,76.2,95,69.8,95,62.1z" fill="#ebebeb" transform="translate(-248.59603860602613, 47.65226223037297) scale(1.1666666666666667) translate(-36, -24)" style="transform:matrix(1.16667, 0, 0, 1.16667, -290.596, 19.6523);animation-play-state:paused" ></path></g>
<g transform="matrix(1,0,0,1,0,0)" style="transform:matrix(1, 0, 0, 1, 0, 0);animation-play-state:paused" ><path d="M95,62.1c0-7.9-5.6-14.5-13.1-15.9C82,45.4,82,44.7,82,44c0-12.3-10-22.3-22.3-22.3c-9.5,0-17.7,6-20.8,14.4 c-1.2-0.3-2.4-0.5-3.7-0.5c-7.6,0-13.8,5.9-14.3,13.3c-0.9-0.2-1.9-0.3-2.8-0.3c-7.2,0-13,5.8-13,13c0,4.8,2.6,9,6.5,11.2 c0,0.1,0,0.1,0,0.2c0,4.7,3.8,8.5,8.5,8.5c2.7,0,5.1-1.3,6.7-3.2c0.1,0,0.2,0,0.3,0h10.4c2.4,2,5.4,3.2,8.7,3.2s6.4-1.2,8.7-3.2h0.2 c3.3,3.8,8.2,6.2,13.6,6.2c5.6,0,10.7-2.6,14-6.6C89.6,76.2,95,69.8,95,62.1z" fill="#ebebeb" transform="translate(-248.59603860602613, 303.65226223037297) scale(1.1666666666666667) translate(-36, -24)" style="transform:matrix(1.16667, 0, 0, 1.16667, -290.596, 275.652);animation-play-state:paused" ></path></g>
<g transform="matrix(1,0,0,1,0,0)" style="transform:matrix(1, 0, 0, 1, 0, 0);animation-play-state:paused" ><path d="M94.6,56.2c-1-4.2-3.7-7.6-7.2-9.5c1.6-1.7,2.7-4.1,2.7-6.7c0-5.4-4.4-9.7-9.7-9.7c-3.2,0-6.1,1.6-7.8,4 c-2.5-4.5-7.3-7.6-12.8-7.6c-3.4,0-6.4,1.1-8.9,3.1c-2.4-4.7-7.3-7.9-13-7.9c-5.6,0-10.5,3.2-12.9,7.8c-1.3-0.3-2.7-0.6-4.1-0.6 C12.1,29.1,5,36.1,5,44.9c0,6,3.4,11.3,8.3,13.9c-0.2,1.3-0.2,2.6,0.1,3.9c1.2,5.3,6.5,8.6,11.8,7.4c0.3-0.1,0.6-0.1,0.8-0.2 c2.9,6,9.6,9.5,16.4,8c5.5-1.3,9.6-5.5,10.9-10.6c2.8,1.3,6.1,1.7,9.4,1c1.8-0.4,3.4-1.1,4.8-2.1c3,5.7,9.6,9,16.2,7.5 C91.5,71.9,96.4,64,94.6,56.2z" fill="#ebebeb" transform="translate(202.60058240230683, 205.20953846470286) scale(1.1666666666666667) translate(-36, -24)" style="transform:matrix(1.16667, 0, 0, 1.16667, 160.601, 177.21);animation-play-state:paused" ></path></g>
<g transform="matrix(1,0,0,1,0,0)" style="transform:matrix(1, 0, 0, 1, 0, 0);animation-play-state:paused" ><path d="M94.6,56.2c-1-4.2-3.7-7.6-7.2-9.5c1.6-1.7,2.7-4.1,2.7-6.7c0-5.4-4.4-9.7-9.7-9.7c-3.2,0-6.1,1.6-7.8,4 c-2.5-4.5-7.3-7.6-12.8-7.6c-3.4,0-6.4,1.1-8.9,3.1c-2.4-4.7-7.3-7.9-13-7.9c-5.6,0-10.5,3.2-12.9,7.8c-1.3-0.3-2.7-0.6-4.1-0.6 C12.1,29.1,5,36.1,5,44.9c0,6,3.4,11.3,8.3,13.9c-0.2,1.3-0.2,2.6,0.1,3.9c1.2,5.3,6.5,8.6,11.8,7.4c0.3-0.1,0.6-0.1,0.8-0.2 c2.9,6,9.6,9.5,16.4,8c5.5-1.3,9.6-5.5,10.9-10.6c2.8,1.3,6.1,1.7,9.4,1c1.8-0.4,3.4-1.1,4.8-2.1c3,5.7,9.6,9,16.2,7.5 C91.5,71.9,96.4,64,94.6,56.2z" fill="#ebebeb" transform="translate(-53.39941759769317, 205.20953846470286) scale(1.1666666666666667) translate(-36, -24)" style="transform:matrix(1.16667, 0, 0, 1.16667, -95.3994, 177.21);animation-play-state:paused" ></path></g>
<g transform="matrix(1,0,0,1,0,0)" style="transform:matrix(1, 0, 0, 1, 0, 0);animation-play-state:paused" ><path d="M85.3,55.6c0.3-1.1,0.5-2.2,0.6-3.4c0.5-8.5-6-15.7-14.5-16.2c-2.1-0.1-4.2,0.2-6,0.9c-1.5-8.9-9-16-18.4-16.5 C36.1,19.7,26.8,28,26.2,38.9c-0.1,1.1,0,2.3,0.1,3.3c-6.3,0.1-11.6,5-11.9,11.4c0,0.8,0,1.5,0.1,2.2c-0.3,0-0.5-0.1-0.8-0.1 C9.2,55.6,5.3,59,5,63.6s3.2,8.4,7.8,8.7c0.8,0,1.5,0,2.2-0.2c2.5,2.9,8,5.1,14.6,5.5c3.7,0.2,7.2-0.2,10-1.1 c1.7,1.8,4.3,3.1,7.3,3.2c4,0.2,7.5-1.6,9.3-4.3c2.1,1,4.6,1.7,7.4,1.9c4.5,0.3,8.6-1,11.1-3c2,1.7,4.6,2.8,7.6,3 C89,77.6,94.6,73,95,67C95.3,61.5,91.1,56.7,85.3,55.6z" fill="#ebebeb" transform="translate(268.09802385652506, 144.07166495850186) scale(1.1666666666666667) translate(-36, -24)" style="transform:matrix(1.16667, 0, 0, 1.16667, 226.098, 116.072);animation-play-state:paused" ></path></g>
<g transform="matrix(1,0,0,1,0,0)" style="transform:matrix(1, 0, 0, 1, 0, 0);animation-play-state:paused" ><path d="M85.3,55.6c0.3-1.1,0.5-2.2,0.6-3.4c0.5-8.5-6-15.7-14.5-16.2c-2.1-0.1-4.2,0.2-6,0.9c-1.5-8.9-9-16-18.4-16.5 C36.1,19.7,26.8,28,26.2,38.9c-0.1,1.1,0,2.3,0.1,3.3c-6.3,0.1-11.6,5-11.9,11.4c0,0.8,0,1.5,0.1,2.2c-0.3,0-0.5-0.1-0.8-0.1 C9.2,55.6,5.3,59,5,63.6s3.2,8.4,7.8,8.7c0.8,0,1.5,0,2.2-0.2c2.5,2.9,8,5.1,14.6,5.5c3.7,0.2,7.2-0.2,10-1.1 c1.7,1.8,4.3,3.1,7.3,3.2c4,0.2,7.5-1.6,9.3-4.3c2.1,1,4.6,1.7,7.4,1.9c4.5,0.3,8.6-1,11.1-3c2,1.7,4.6,2.8,7.6,3 C89,77.6,94.6,73,95,67C95.3,61.5,91.1,56.7,85.3,55.6z" fill="#ebebeb" transform="translate(12.09802385652506, 144.07166495850186) scale(1.1666666666666667) translate(-36, -24)" style="transform:matrix(1.16667, 0, 0, 1.16667, -29.902, 116.072);animation-play-state:paused" ></path></g>
<g transform="matrix(1,0,0,1,0,0)" style="transform:matrix(1, 0, 0, 1, 0, 0);animation-play-state:paused" ><path d="M85.3,55.6c0.3-1.1,0.5-2.2,0.6-3.4c0.5-8.5-6-15.7-14.5-16.2c-2.1-0.1-4.2,0.2-6,0.9c-1.5-8.9-9-16-18.4-16.5 C36.1,19.7,26.8,28,26.2,38.9c-0.1,1.1,0,2.3,0.1,3.3c-6.3,0.1-11.6,5-11.9,11.4c0,0.8,0,1.5,0.1,2.2c-0.3,0-0.5-0.1-0.8-0.1 C9.2,55.6,5.3,59,5,63.6s3.2,8.4,7.8,8.7c0.8,0,1.5,0,2.2-0.2c2.5,2.9,8,5.1,14.6,5.5c3.7,0.2,7.2-0.2,10-1.1 c1.7,1.8,4.3,3.1,7.3,3.2c4,0.2,7.5-1.6,9.3-4.3c2.1,1,4.6,1.7,7.4,1.9c4.5,0.3,8.6-1,11.1-3c2,1.7,4.6,2.8,7.6,3 C89,77.6,94.6,73,95,67C95.3,61.5,91.1,56.7,85.3,55.6z" fill="#ebebeb" transform="translate(-243.90197614347494, 144.07166495850186) scale(1.1666666666666667) translate(-36, -24)" style="transform:matrix(1.16667, 0, 0, 1.16667, -285.902, 116.072);animation-play-state:paused" ></path></g></g></svg>